<svg width="339" height="483" viewBox="0 0 339 483" fill="none" xmlns="http://www.w3.org/2000/svg">
<rect width="338.114" height="482.498" fill="#182D1B"/>
<path d="M64.3779 250.55C64.3779 240.55 72.4279 232.5 82.4279 232.5C87.4279 232.5 91.1279 234.05 94.5279 237.15C94.9779 237.55 94.9779 238.15 94.5779 238.55L90.6779 242.6C90.3279 242.95 89.7779 242.95 89.4279 242.6C87.5779 240.95 85.1279 240.05 82.6779 240.05C77.0279 240.05 72.8779 244.75 72.8779 250.35C72.8779 255.9 77.0779 260.5 82.7279 260.5C85.0779 260.5 87.6279 259.65 89.4279 258.1C89.7779 257.8 90.4279 257.8 90.7279 258.15L94.6279 262.3C94.9779 262.65 94.9279 263.3 94.5779 263.65C91.1779 266.95 86.8779 268.5 82.4279 268.5C72.4279 268.5 64.3779 260.55 64.3779 250.55ZM97.874 250.55C97.874 240.55 105.824 232.5 115.824 232.5C125.824 232.5 133.824 240.55 133.824 250.55C133.824 260.55 125.824 268.5 115.824 268.5C105.824 268.5 97.874 260.55 97.874 250.55ZM105.874 250.55C105.874 256 110.374 260.5 115.824 260.5C121.324 260.5 125.824 256 125.824 250.55C125.824 245.05 121.324 240.5 115.824 240.5C110.374 240.5 105.874 245.05 105.874 250.55ZM137.677 266.9L143.327 233.3C143.377 232.85 143.827 232.5 144.227 232.5H145.027C145.277 232.5 145.727 232.7 145.877 233L157.477 254.6H157.577L169.177 233C169.327 232.7 169.777 232.5 170.027 232.5H170.827C171.227 232.5 171.677 232.85 171.727 233.3L177.377 266.9C177.477 267.55 177.027 268 176.427 268H170.527C170.077 268 169.627 267.6 169.577 267.2L167.327 251.75H167.227L158.827 267.95C158.677 268.25 158.227 268.5 157.977 268.5H157.077C156.777 268.5 156.377 268.25 156.227 267.95L147.777 251.75H147.677L145.477 267.2C145.427 267.6 145.027 268 144.527 268H138.627C138.027 268 137.577 267.55 137.677 266.9ZM183.774 267.05V233.95C183.774 233.45 184.174 233 184.724 233H196.774C202.924 233 207.974 238 207.974 244.05C207.974 250.25 202.924 255.3 196.824 255.3H191.574V267.05C191.574 267.55 191.124 268 190.624 268H184.724C184.174 268 183.774 267.55 183.774 267.05ZM191.574 248H196.324C198.474 248 200.274 246.3 200.274 244.05C200.274 241.95 198.474 240.35 196.324 240.35H191.574V248ZM213.071 267.05V233.95C213.071 233.45 213.471 233 214.021 233H228.971C234.971 233 239.871 237.85 239.871 243.8C239.871 248.4 236.821 252.1 232.471 253.85L239.321 266.55C239.671 267.2 239.321 268 238.471 268H231.821C231.421 268 231.121 267.75 231.021 267.55L224.371 254.3H220.921V267.05C220.921 267.55 220.471 268 219.971 268H214.021C213.471 268 213.071 267.55 213.071 267.05ZM220.921 247.95H228.321C230.371 247.95 232.121 246.05 232.121 243.95C232.121 241.85 230.371 240.15 228.321 240.15H220.921V247.95ZM242.917 268C242.167 268 241.767 267.35 242.067 266.7L257.717 233.05C257.867 232.75 258.217 232.5 258.567 232.5H259.067C259.417 232.5 259.767 232.75 259.917 233.05L275.567 266.7C275.867 267.35 275.467 268 274.717 268H269.167C268.267 268 267.867 267.7 267.417 266.75L265.617 262.8H252.017L250.217 266.8C249.967 267.4 249.417 268 248.417 268H242.917ZM255.017 256H262.617L258.817 247.75H258.767L255.017 256Z" fill="white"/>
<path d="M50.9076 326.582V316.682H48.7956C48.5756 316.682 48.3996 316.484 48.3996 316.264V314.878C48.3996 314.79 48.4656 314.614 48.5316 314.548L51.7436 312.04H53.7676C53.9876 312.04 54.1636 312.238 54.1636 312.458V326.582C54.1636 326.802 53.9876 327 53.7676 327H51.3256C51.0836 327 50.9076 326.802 50.9076 326.582ZM62.8256 326.582V312.018C62.8256 311.798 63.0016 311.6 63.2436 311.6H68.5456C71.2516 311.6 73.4736 313.8 73.4736 316.462C73.4736 319.19 71.2516 321.412 68.5676 321.412H66.2576V326.582C66.2576 326.802 66.0596 327 65.8396 327H63.2436C63.0016 327 62.8256 326.802 62.8256 326.582ZM66.2576 318.2H68.3476C69.2936 318.2 70.0856 317.452 70.0856 316.462C70.0856 315.538 69.2936 314.834 68.3476 314.834H66.2576V318.2ZM75.7162 326.582V312.018C75.7162 311.798 75.8922 311.6 76.1342 311.6H82.7122C85.3522 311.6 87.5082 313.734 87.5082 316.352C87.5082 318.376 86.1662 320.004 84.2522 320.774L87.2662 326.362C87.4202 326.648 87.2662 327 86.8922 327H83.9662C83.7902 327 83.6582 326.89 83.6142 326.802L80.6882 320.972H79.1702V326.582C79.1702 326.802 78.9722 327 78.7522 327H76.1342C75.8922 327 75.7162 326.802 75.7162 326.582ZM79.1702 318.178H82.4262C83.3282 318.178 84.0982 317.342 84.0982 316.418C84.0982 315.494 83.3282 314.746 82.4262 314.746H79.1702V318.178ZM89.3325 319.322C89.3325 314.922 92.8305 311.38 97.2305 311.38C101.631 311.38 105.151 314.922 105.151 319.322C105.151 323.722 101.631 327.22 97.2305 327.22C92.8305 327.22 89.3325 323.722 89.3325 319.322ZM92.8525 319.322C92.8525 321.72 94.8325 323.7 97.2305 323.7C99.6505 323.7 101.631 321.72 101.631 319.322C101.631 316.902 99.6505 314.9 97.2305 314.9C94.8325 314.9 92.8525 316.902 92.8525 319.322ZM107.814 326.582V312.018C107.814 311.798 107.99 311.6 108.21 311.6H113.578C117.824 311.6 121.3 315.054 121.3 319.278C121.3 323.546 117.824 327 113.578 327H108.21C107.99 327 107.814 326.802 107.814 326.582ZM111.246 323.744H113.358C115.844 323.744 117.648 321.786 117.648 319.278C117.648 316.792 115.844 314.834 113.358 314.834H111.246V323.744ZM123.772 321.104V312.018C123.772 311.798 123.97 311.6 124.19 311.6H126.896C127.138 311.6 127.314 311.798 127.314 312.018V320.928C127.314 322.468 128.458 323.7 130.02 323.7C131.604 323.7 132.77 322.468 132.77 320.928V312.018C132.77 311.798 132.946 311.6 133.188 311.6H135.894C136.114 311.6 136.312 311.798 136.312 312.018V321.104C136.312 324.448 133.496 327.22 130.02 327.22C126.566 327.22 123.772 324.448 123.772 321.104ZM138.725 319.322C138.725 314.922 142.267 311.38 146.667 311.38C148.867 311.38 150.495 312.062 151.991 313.426C152.189 313.602 152.189 313.866 152.013 314.042L150.297 315.824C150.143 315.978 149.901 315.978 149.747 315.824C148.933 315.098 147.855 314.702 146.777 314.702C144.291 314.702 142.465 316.77 142.465 319.234C142.465 321.676 144.313 323.7 146.799 323.7C147.833 323.7 148.955 323.326 149.747 322.644C149.901 322.512 150.187 322.512 150.319 322.666L152.035 324.492C152.189 324.646 152.167 324.932 152.013 325.086C150.517 326.538 148.625 327.22 146.667 327.22C142.267 327.22 138.725 323.722 138.725 319.322ZM156.63 326.582V314.834H153.484C153.242 314.834 153.066 314.636 153.066 314.416V312.018C153.066 311.798 153.242 311.6 153.484 311.6H163.252C163.494 311.6 163.67 311.798 163.67 312.018V314.416C163.67 314.636 163.494 314.834 163.252 314.834H160.106V326.582C160.106 326.802 159.908 327 159.688 327H157.048C156.828 327 156.63 326.802 156.63 326.582ZM164.657 319.322C164.657 314.922 168.155 311.38 172.555 311.38C176.955 311.38 180.475 314.922 180.475 319.322C180.475 323.722 176.955 327.22 172.555 327.22C168.155 327.22 164.657 323.722 164.657 319.322ZM168.177 319.322C168.177 321.72 170.157 323.7 172.555 323.7C174.975 323.7 176.955 321.72 176.955 319.322C176.955 316.902 174.975 314.9 172.555 314.9C170.157 314.9 168.177 316.902 168.177 319.322ZM186.388 327C186.058 327 185.882 326.714 186.014 326.428L192.9 311.622C192.966 311.49 193.12 311.38 193.274 311.38H193.494C193.648 311.38 193.802 311.49 193.868 311.622L200.754 326.428C200.886 326.714 200.71 327 200.38 327H197.938C197.542 327 197.366 326.868 197.168 326.45L196.376 324.712H190.392L189.6 326.472C189.49 326.736 189.248 327 188.808 327H186.388ZM191.712 321.72H195.056L193.384 318.09H193.362L191.712 321.72ZM202.56 326.582V312.018C202.56 311.798 202.758 311.6 202.978 311.6H205.618C205.838 311.6 206.036 311.798 206.036 312.018V326.582C206.036 326.802 205.838 327 205.618 327H202.978C202.758 327 202.56 326.802 202.56 326.582ZM209.822 326.582V312.018C209.822 311.798 209.998 311.6 210.24 311.6H216.818C219.458 311.6 221.614 313.734 221.614 316.352C221.614 318.376 220.272 320.004 218.358 320.774L221.372 326.362C221.526 326.648 221.372 327 220.998 327H218.072C217.896 327 217.764 326.89 217.72 326.802L214.794 320.972H213.276V326.582C213.276 326.802 213.078 327 212.858 327H210.24C209.998 327 209.822 326.802 209.822 326.582ZM213.276 318.178H216.532C217.434 318.178 218.204 317.342 218.204 316.418C218.204 315.494 217.434 314.746 216.532 314.746H213.276V318.178ZM232.209 326.912L228.051 312.128C227.963 311.82 228.139 311.6 228.447 311.6H231.021C231.197 311.6 231.373 311.754 231.417 311.908L233.309 319.366H233.397L236.807 311.622C236.873 311.49 237.005 311.38 237.181 311.38H237.577C237.775 311.38 237.907 311.49 237.951 311.622L241.361 319.366H241.449L243.341 311.908C243.385 311.754 243.561 311.6 243.737 311.6H246.311C246.619 311.6 246.795 311.82 246.707 312.128L242.549 326.912C242.505 327.088 242.329 327.22 242.153 327.22H241.801C241.647 327.22 241.493 327.11 241.427 326.978L237.401 317.98H237.335L233.331 326.978C233.265 327.11 233.111 327.22 232.957 327.22H232.605C232.429 327.22 232.253 327.088 232.209 326.912ZM249.074 326.582V312.018C249.074 311.798 249.272 311.6 249.492 311.6H252.132C252.352 311.6 252.55 311.798 252.55 312.018V326.582C252.55 326.802 252.352 327 252.132 327H249.492C249.272 327 249.074 326.802 249.074 326.582ZM255.213 319.322C255.213 314.922 258.755 311.38 263.155 311.38C265.355 311.38 266.983 312.062 268.479 313.426C268.677 313.602 268.677 313.866 268.501 314.042L266.785 315.824C266.631 315.978 266.389 315.978 266.235 315.824C265.421 315.098 264.343 314.702 263.265 314.702C260.779 314.702 258.953 316.77 258.953 319.234C258.953 321.676 260.801 323.7 263.287 323.7C264.321 323.7 265.443 323.326 266.235 322.644C266.389 322.512 266.675 322.512 266.807 322.666L268.523 324.492C268.677 324.646 268.655 324.932 268.501 325.086C267.005 326.538 265.113 327.22 263.155 327.22C258.755 327.22 255.213 323.722 255.213 319.322ZM271.138 326.472V312.128C271.138 311.842 271.358 311.6 271.666 311.6H274.24C274.526 311.6 274.768 311.842 274.768 312.128V317.914L279.652 311.82C279.74 311.71 279.938 311.6 280.07 311.6H282.842C283.26 311.6 283.48 312.084 283.238 312.414L278.09 318.86L283.7 326.164C283.942 326.494 283.7 326.978 283.282 326.978H280.246C280.092 326.978 279.894 326.89 279.85 326.824L274.768 319.916V326.472C274.768 326.758 274.526 327 274.24 327H271.666C271.358 327 271.138 326.758 271.138 326.472ZM284.665 325.174C284.665 324.052 285.611 323.084 286.953 323.084C288.031 323.084 289.549 323.92 289.549 326.406C289.549 329.442 287.547 330.982 286.909 331.554C286.733 331.708 286.469 331.752 286.293 331.554L285.831 331.026C285.655 330.828 285.655 330.586 285.875 330.41C286.139 330.19 287.833 328.936 287.855 326.978C287.855 326.978 287.371 327.22 286.711 327.22C285.611 327.22 284.665 326.296 284.665 325.174ZM90.9594 357.472V343.128C90.9594 342.842 91.1794 342.6 91.4874 342.6H94.0614C94.3474 342.6 94.5894 342.842 94.5894 343.128V348.914L99.4734 342.82C99.5614 342.71 99.7594 342.6 99.8914 342.6H102.663C103.081 342.6 103.301 343.084 103.059 343.414L97.9114 349.86L103.521 357.164C103.763 357.494 103.521 357.978 103.103 357.978H100.067C99.9134 357.978 99.7154 357.89 99.6714 357.824L94.5894 350.916V357.472C94.5894 357.758 94.3474 358 94.0614 358H91.4874C91.1794 358 90.9594 357.758 90.9594 357.472ZM105.762 357.582V343.018C105.762 342.798 105.96 342.6 106.18 342.6H108.82C109.04 342.6 109.238 342.798 109.238 343.018V357.582C109.238 357.802 109.04 358 108.82 358H106.18C105.96 358 105.762 357.802 105.762 357.582ZM115.004 357.582V345.834H111.858C111.616 345.834 111.44 345.636 111.44 345.416V343.018C111.44 342.798 111.616 342.6 111.858 342.6H121.626C121.868 342.6 122.044 342.798 122.044 343.018V345.416C122.044 345.636 121.868 345.834 121.626 345.834H118.48V357.582C118.48 357.802 118.282 358 118.062 358H115.422C115.202 358 115.004 357.802 115.004 357.582ZM127.972 350.322C127.972 345.922 131.514 342.38 135.914 342.38C138.114 342.38 139.742 343.062 141.238 344.426C141.436 344.602 141.436 344.866 141.26 345.042L139.544 346.824C139.39 346.978 139.148 346.978 138.994 346.824C138.18 346.098 137.102 345.702 136.024 345.702C133.538 345.702 131.712 347.77 131.712 350.234C131.712 352.676 133.56 354.7 136.046 354.7C137.08 354.7 138.202 354.326 138.994 353.644C139.148 353.512 139.434 353.512 139.566 353.666L141.282 355.492C141.436 355.646 141.414 355.932 141.26 356.086C139.764 357.538 137.872 358.22 135.914 358.22C131.514 358.22 127.972 354.722 127.972 350.322ZM142.71 350.322C142.71 345.922 146.208 342.38 150.608 342.38C155.008 342.38 158.528 345.922 158.528 350.322C158.528 354.722 155.008 358.22 150.608 358.22C146.208 358.22 142.71 354.722 142.71 350.322ZM146.23 350.322C146.23 352.72 148.21 354.7 150.608 354.7C153.028 354.7 155.008 352.72 155.008 350.322C155.008 347.902 153.028 345.9 150.608 345.9C148.21 345.9 146.23 347.902 146.23 350.322ZM160.224 357.516L162.71 342.732C162.732 342.534 162.93 342.38 163.106 342.38H163.458C163.568 342.38 163.766 342.468 163.832 342.6L168.936 352.104H168.98L174.084 342.6C174.15 342.468 174.348 342.38 174.458 342.38H174.81C174.986 342.38 175.184 342.534 175.206 342.732L177.692 357.516C177.736 357.802 177.538 358 177.274 358H174.678C174.48 358 174.282 357.824 174.26 357.648L173.27 350.85H173.226L169.53 357.978C169.464 358.11 169.266 358.22 169.156 358.22H168.76C168.628 358.22 168.452 358.11 168.386 357.978L164.668 350.85H164.624L163.656 357.648C163.634 357.824 163.458 358 163.238 358H160.642C160.378 358 160.18 357.802 160.224 357.516ZM180.506 357.582V343.018C180.506 342.798 180.682 342.6 180.924 342.6H186.226C188.932 342.6 191.154 344.8 191.154 347.462C191.154 350.19 188.932 352.412 186.248 352.412H183.938V357.582C183.938 357.802 183.74 358 183.52 358H180.924C180.682 358 180.506 357.802 180.506 357.582ZM183.938 349.2H186.028C186.974 349.2 187.766 348.452 187.766 347.462C187.766 346.538 186.974 345.834 186.028 345.834H183.938V349.2ZM193.397 357.582V343.018C193.397 342.798 193.573 342.6 193.815 342.6H196.433C196.653 342.6 196.851 342.798 196.851 343.018V354.766H202.087C202.329 354.766 202.505 354.964 202.505 355.184V357.582C202.505 357.802 202.329 358 202.087 358H193.815C193.573 358 193.397 357.802 193.397 357.582ZM204.633 357.582V343.018C204.633 342.798 204.809 342.6 205.051 342.6H214.159C214.401 342.6 214.577 342.798 214.577 343.018V345.416C214.577 345.636 214.401 345.834 214.159 345.834H208.065V348.562H213.081C213.301 348.562 213.499 348.76 213.499 348.98V351.378C213.499 351.62 213.301 351.796 213.081 351.796H208.065V354.766H214.159C214.401 354.766 214.577 354.964 214.577 355.184V357.582C214.577 357.802 214.401 358 214.159 358H205.051C204.809 358 204.633 357.802 204.633 357.582ZM219.504 357.582V345.834H216.358C216.116 345.834 215.94 345.636 215.94 345.416V343.018C215.94 342.798 216.116 342.6 216.358 342.6H226.126C226.368 342.6 226.544 342.798 226.544 343.018V345.416C226.544 345.636 226.368 345.834 226.126 345.834H222.98V357.582C222.98 357.802 222.782 358 222.562 358H219.922C219.702 358 219.504 357.802 219.504 357.582ZM227.531 350.322C227.531 345.922 231.029 342.38 235.429 342.38C239.829 342.38 243.349 345.922 243.349 350.322C243.349 354.722 239.829 358.22 235.429 358.22C231.029 358.22 227.531 354.722 227.531 350.322ZM231.051 350.322C231.051 352.72 233.031 354.7 235.429 354.7C237.849 354.7 239.829 352.72 239.829 350.322C239.829 347.902 237.849 345.9 235.429 345.9C233.031 345.9 231.051 347.902 231.051 350.322ZM244.156 356.152C244.156 355.008 245.102 354.04 246.224 354.04C247.368 354.04 248.336 355.008 248.336 356.152C248.336 357.274 247.368 358.22 246.224 358.22C245.102 358.22 244.156 357.274 244.156 356.152Z" fill="white"/>
<path d="M162.006 142.43V81.5647H149.021C147.669 81.5647 146.587 80.3474 146.587 78.9949V70.4737C146.587 69.9327 146.993 68.8506 147.398 68.4449L167.146 53.0256H179.589C180.942 53.0256 182.024 54.2429 182.024 55.5955V142.43C182.024 143.783 180.942 145 179.589 145H164.576C163.088 145 162.006 143.783 162.006 142.43Z" fill="white"/>
</svg>
