<svg width="339" height="483" viewBox="0 0 339 483" fill="none" xmlns="http://www.w3.org/2000/svg">
<rect width="338.114" height="482.498" fill="#182D1B"/>
<path d="M64.3779 223.55C64.3779 213.55 72.4279 205.5 82.4279 205.5C87.4279 205.5 91.1279 207.05 94.5279 210.15C94.9779 210.55 94.9779 211.15 94.5779 211.55L90.6779 215.6C90.3279 215.95 89.7779 215.95 89.4279 215.6C87.5779 213.95 85.1279 213.05 82.6779 213.05C77.0279 213.05 72.8779 217.75 72.8779 223.35C72.8779 228.9 77.0779 233.5 82.7279 233.5C85.0779 233.5 87.6279 232.65 89.4279 231.1C89.7779 230.8 90.4279 230.8 90.7279 231.15L94.6279 235.3C94.9779 235.65 94.9279 236.3 94.5779 236.65C91.1779 239.95 86.8779 241.5 82.4279 241.5C72.4279 241.5 64.3779 233.55 64.3779 223.55ZM97.874 223.55C97.874 213.55 105.824 205.5 115.824 205.5C125.824 205.5 133.824 213.55 133.824 223.55C133.824 233.55 125.824 241.5 115.824 241.5C105.824 241.5 97.874 233.55 97.874 223.55ZM105.874 223.55C105.874 229 110.374 233.5 115.824 233.5C121.324 233.5 125.824 229 125.824 223.55C125.824 218.05 121.324 213.5 115.824 213.5C110.374 213.5 105.874 218.05 105.874 223.55ZM137.677 239.9L143.327 206.3C143.377 205.85 143.827 205.5 144.227 205.5H145.027C145.277 205.5 145.727 205.7 145.877 206L157.477 227.6H157.577L169.177 206C169.327 205.7 169.777 205.5 170.027 205.5H170.827C171.227 205.5 171.677 205.85 171.727 206.3L177.377 239.9C177.477 240.55 177.027 241 176.427 241H170.527C170.077 241 169.627 240.6 169.577 240.2L167.327 224.75H167.227L158.827 240.95C158.677 241.25 158.227 241.5 157.977 241.5H157.077C156.777 241.5 156.377 241.25 156.227 240.95L147.777 224.75H147.677L145.477 240.2C145.427 240.6 145.027 241 144.527 241H138.627C138.027 241 137.577 240.55 137.677 239.9ZM183.774 240.05V206.95C183.774 206.45 184.174 206 184.724 206H196.774C202.924 206 207.974 211 207.974 217.05C207.974 223.25 202.924 228.3 196.824 228.3H191.574V240.05C191.574 240.55 191.124 241 190.624 241H184.724C184.174 241 183.774 240.55 183.774 240.05ZM191.574 221H196.324C198.474 221 200.274 219.3 200.274 217.05C200.274 214.95 198.474 213.35 196.324 213.35H191.574V221ZM213.071 240.05V206.95C213.071 206.45 213.471 206 214.021 206H228.971C234.971 206 239.871 210.85 239.871 216.8C239.871 221.4 236.821 225.1 232.471 226.85L239.321 239.55C239.671 240.2 239.321 241 238.471 241H231.821C231.421 241 231.121 240.75 231.021 240.55L224.371 227.3H220.921V240.05C220.921 240.55 220.471 241 219.971 241H214.021C213.471 241 213.071 240.55 213.071 240.05ZM220.921 220.95H228.321C230.371 220.95 232.121 219.05 232.121 216.95C232.121 214.85 230.371 213.15 228.321 213.15H220.921V220.95ZM242.917 241C242.167 241 241.767 240.35 242.067 239.7L257.717 206.05C257.867 205.75 258.217 205.5 258.567 205.5H259.067C259.417 205.5 259.767 205.75 259.917 206.05L275.567 239.7C275.867 240.35 275.467 241 274.717 241H269.167C268.267 241 267.867 240.7 267.417 239.75L265.617 235.8H252.017L250.217 239.8C249.967 240.4 249.417 241 248.417 241H242.917ZM255.017 229H262.617L258.817 220.75H258.767L255.017 229Z" fill="white"/>
<path d="M50.9076 299.582V289.682H48.7956C48.5756 289.682 48.3996 289.484 48.3996 289.264V287.878C48.3996 287.79 48.4656 287.614 48.5316 287.548L51.7436 285.04H53.7676C53.9876 285.04 54.1636 285.238 54.1636 285.458V299.582C54.1636 299.802 53.9876 300 53.7676 300H51.3256C51.0836 300 50.9076 299.802 50.9076 299.582ZM62.8256 299.582V285.018C62.8256 284.798 63.0016 284.6 63.2436 284.6H68.5456C71.2516 284.6 73.4736 286.8 73.4736 289.462C73.4736 292.19 71.2516 294.412 68.5676 294.412H66.2576V299.582C66.2576 299.802 66.0596 300 65.8396 300H63.2436C63.0016 300 62.8256 299.802 62.8256 299.582ZM66.2576 291.2H68.3476C69.2936 291.2 70.0856 290.452 70.0856 289.462C70.0856 288.538 69.2936 287.834 68.3476 287.834H66.2576V291.2ZM75.7162 299.582V285.018C75.7162 284.798 75.8922 284.6 76.1342 284.6H82.7122C85.3522 284.6 87.5082 286.734 87.5082 289.352C87.5082 291.376 86.1662 293.004 84.2522 293.774L87.2662 299.362C87.4202 299.648 87.2662 300 86.8922 300H83.9662C83.7902 300 83.6582 299.89 83.6142 299.802L80.6882 293.972H79.1702V299.582C79.1702 299.802 78.9722 300 78.7522 300H76.1342C75.8922 300 75.7162 299.802 75.7162 299.582ZM79.1702 291.178H82.4262C83.3282 291.178 84.0982 290.342 84.0982 289.418C84.0982 288.494 83.3282 287.746 82.4262 287.746H79.1702V291.178ZM89.3325 292.322C89.3325 287.922 92.8305 284.38 97.2305 284.38C101.631 284.38 105.151 287.922 105.151 292.322C105.151 296.722 101.631 300.22 97.2305 300.22C92.8305 300.22 89.3325 296.722 89.3325 292.322ZM92.8525 292.322C92.8525 294.72 94.8325 296.7 97.2305 296.7C99.6505 296.7 101.631 294.72 101.631 292.322C101.631 289.902 99.6505 287.9 97.2305 287.9C94.8325 287.9 92.8525 289.902 92.8525 292.322ZM107.814 299.582V285.018C107.814 284.798 107.99 284.6 108.21 284.6H113.578C117.824 284.6 121.3 288.054 121.3 292.278C121.3 296.546 117.824 300 113.578 300H108.21C107.99 300 107.814 299.802 107.814 299.582ZM111.246 296.744H113.358C115.844 296.744 117.648 294.786 117.648 292.278C117.648 289.792 115.844 287.834 113.358 287.834H111.246V296.744ZM123.772 294.104V285.018C123.772 284.798 123.97 284.6 124.19 284.6H126.896C127.138 284.6 127.314 284.798 127.314 285.018V293.928C127.314 295.468 128.458 296.7 130.02 296.7C131.604 296.7 132.77 295.468 132.77 293.928V285.018C132.77 284.798 132.946 284.6 133.188 284.6H135.894C136.114 284.6 136.312 284.798 136.312 285.018V294.104C136.312 297.448 133.496 300.22 130.02 300.22C126.566 300.22 123.772 297.448 123.772 294.104ZM138.725 292.322C138.725 287.922 142.267 284.38 146.667 284.38C148.867 284.38 150.495 285.062 151.991 286.426C152.189 286.602 152.189 286.866 152.013 287.042L150.297 288.824C150.143 288.978 149.901 288.978 149.747 288.824C148.933 288.098 147.855 287.702 146.777 287.702C144.291 287.702 142.465 289.77 142.465 292.234C142.465 294.676 144.313 296.7 146.799 296.7C147.833 296.7 148.955 296.326 149.747 295.644C149.901 295.512 150.187 295.512 150.319 295.666L152.035 297.492C152.189 297.646 152.167 297.932 152.013 298.086C150.517 299.538 148.625 300.22 146.667 300.22C142.267 300.22 138.725 296.722 138.725 292.322ZM156.63 299.582V287.834H153.484C153.242 287.834 153.066 287.636 153.066 287.416V285.018C153.066 284.798 153.242 284.6 153.484 284.6H163.252C163.494 284.6 163.67 284.798 163.67 285.018V287.416C163.67 287.636 163.494 287.834 163.252 287.834H160.106V299.582C160.106 299.802 159.908 300 159.688 300H157.048C156.828 300 156.63 299.802 156.63 299.582ZM164.657 292.322C164.657 287.922 168.155 284.38 172.555 284.38C176.955 284.38 180.475 287.922 180.475 292.322C180.475 296.722 176.955 300.22 172.555 300.22C168.155 300.22 164.657 296.722 164.657 292.322ZM168.177 292.322C168.177 294.72 170.157 296.7 172.555 296.7C174.975 296.7 176.955 294.72 176.955 292.322C176.955 289.902 174.975 287.9 172.555 287.9C170.157 287.9 168.177 289.902 168.177 292.322ZM186.388 300C186.058 300 185.882 299.714 186.014 299.428L192.9 284.622C192.966 284.49 193.12 284.38 193.274 284.38H193.494C193.648 284.38 193.802 284.49 193.868 284.622L200.754 299.428C200.886 299.714 200.71 300 200.38 300H197.938C197.542 300 197.366 299.868 197.168 299.45L196.376 297.712H190.392L189.6 299.472C189.49 299.736 189.248 300 188.808 300H186.388ZM191.712 294.72H195.056L193.384 291.09H193.362L191.712 294.72ZM202.56 299.582V285.018C202.56 284.798 202.758 284.6 202.978 284.6H205.618C205.838 284.6 206.036 284.798 206.036 285.018V299.582C206.036 299.802 205.838 300 205.618 300H202.978C202.758 300 202.56 299.802 202.56 299.582ZM209.822 299.582V285.018C209.822 284.798 209.998 284.6 210.24 284.6H216.818C219.458 284.6 221.614 286.734 221.614 289.352C221.614 291.376 220.272 293.004 218.358 293.774L221.372 299.362C221.526 299.648 221.372 300 220.998 300H218.072C217.896 300 217.764 299.89 217.72 299.802L214.794 293.972H213.276V299.582C213.276 299.802 213.078 300 212.858 300H210.24C209.998 300 209.822 299.802 209.822 299.582ZM213.276 291.178H216.532C217.434 291.178 218.204 290.342 218.204 289.418C218.204 288.494 217.434 287.746 216.532 287.746H213.276V291.178ZM232.209 299.912L228.051 285.128C227.963 284.82 228.139 284.6 228.447 284.6H231.021C231.197 284.6 231.373 284.754 231.417 284.908L233.309 292.366H233.397L236.807 284.622C236.873 284.49 237.005 284.38 237.181 284.38H237.577C237.775 284.38 237.907 284.49 237.951 284.622L241.361 292.366H241.449L243.341 284.908C243.385 284.754 243.561 284.6 243.737 284.6H246.311C246.619 284.6 246.795 284.82 246.707 285.128L242.549 299.912C242.505 300.088 242.329 300.22 242.153 300.22H241.801C241.647 300.22 241.493 300.11 241.427 299.978L237.401 290.98H237.335L233.331 299.978C233.265 300.11 233.111 300.22 232.957 300.22H232.605C232.429 300.22 232.253 300.088 232.209 299.912ZM249.074 299.582V285.018C249.074 284.798 249.272 284.6 249.492 284.6H252.132C252.352 284.6 252.55 284.798 252.55 285.018V299.582C252.55 299.802 252.352 300 252.132 300H249.492C249.272 300 249.074 299.802 249.074 299.582ZM255.213 292.322C255.213 287.922 258.755 284.38 263.155 284.38C265.355 284.38 266.983 285.062 268.479 286.426C268.677 286.602 268.677 286.866 268.501 287.042L266.785 288.824C266.631 288.978 266.389 288.978 266.235 288.824C265.421 288.098 264.343 287.702 263.265 287.702C260.779 287.702 258.953 289.77 258.953 292.234C258.953 294.676 260.801 296.7 263.287 296.7C264.321 296.7 265.443 296.326 266.235 295.644C266.389 295.512 266.675 295.512 266.807 295.666L268.523 297.492C268.677 297.646 268.655 297.932 268.501 298.086C267.005 299.538 265.113 300.22 263.155 300.22C258.755 300.22 255.213 296.722 255.213 292.322ZM271.138 299.472V285.128C271.138 284.842 271.358 284.6 271.666 284.6H274.24C274.526 284.6 274.768 284.842 274.768 285.128V290.914L279.652 284.82C279.74 284.71 279.938 284.6 280.07 284.6H282.842C283.26 284.6 283.48 285.084 283.238 285.414L278.09 291.86L283.7 299.164C283.942 299.494 283.7 299.978 283.282 299.978H280.246C280.092 299.978 279.894 299.89 279.85 299.824L274.768 292.916V299.472C274.768 299.758 274.526 300 274.24 300H271.666C271.358 300 271.138 299.758 271.138 299.472ZM284.665 298.174C284.665 297.052 285.611 296.084 286.953 296.084C288.031 296.084 289.549 296.92 289.549 299.406C289.549 302.442 287.547 303.982 286.909 304.554C286.733 304.708 286.469 304.752 286.293 304.554L285.831 304.026C285.655 303.828 285.655 303.586 285.875 303.41C286.139 303.19 287.833 301.936 287.855 299.978C287.855 299.978 287.371 300.22 286.711 300.22C285.611 300.22 284.665 299.296 284.665 298.174ZM26.7104 330.582V316.018C26.7104 315.798 26.8864 315.6 27.1284 315.6H33.7064C36.3464 315.6 38.5024 317.734 38.5024 320.352C38.5024 322.376 37.1604 324.004 35.2464 324.774L38.2604 330.362C38.4144 330.648 38.2604 331 37.8864 331H34.9604C34.7844 331 34.6524 330.89 34.6084 330.802L31.6824 324.972H30.1644V330.582C30.1644 330.802 29.9664 331 29.7464 331H27.1284C26.8864 331 26.7104 330.802 26.7104 330.582ZM30.1644 322.178H33.4204C34.3224 322.178 35.0924 321.342 35.0924 320.418C35.0924 319.494 34.3224 318.746 33.4204 318.746H30.1644V322.178ZM41.4486 330.582V316.018C41.4486 315.798 41.6246 315.6 41.8666 315.6H50.9746C51.2166 315.6 51.3926 315.798 51.3926 316.018V318.416C51.3926 318.636 51.2166 318.834 50.9746 318.834H44.8806V321.562H49.8966C50.1166 321.562 50.3146 321.76 50.3146 321.98V324.378C50.3146 324.62 50.1166 324.796 49.8966 324.796H44.8806V327.766H50.9746C51.2166 327.766 51.3926 327.964 51.3926 328.184V330.582C51.3926 330.802 51.2166 331 50.9746 331H41.8666C41.6246 331 41.4486 330.802 41.4486 330.582ZM53.2173 323.322C53.2173 318.922 56.7593 315.38 61.1593 315.38C63.3593 315.38 64.9873 316.062 66.4833 317.426C66.6813 317.602 66.6813 317.866 66.5053 318.042L64.7893 319.824C64.6353 319.978 64.3933 319.978 64.2393 319.824C63.4253 319.098 62.3473 318.702 61.2693 318.702C58.7833 318.702 56.9573 320.77 56.9573 323.234C56.9573 325.676 58.8053 327.7 61.2913 327.7C62.3253 327.7 63.4473 327.326 64.2393 326.644C64.3933 326.512 64.6793 326.512 64.8113 326.666L66.5273 328.492C66.6813 328.646 66.6593 328.932 66.5053 329.086C65.0093 330.538 63.1173 331.22 61.1593 331.22C56.7593 331.22 53.2173 327.722 53.2173 323.322ZM67.536 331C67.206 331 67.03 330.714 67.162 330.428L74.048 315.622C74.114 315.49 74.268 315.38 74.422 315.38H74.642C74.796 315.38 74.95 315.49 75.016 315.622L81.902 330.428C82.034 330.714 81.858 331 81.528 331H79.086C78.69 331 78.514 330.868 78.316 330.45L77.524 328.712H71.54L70.748 330.472C70.638 330.736 70.396 331 69.956 331H67.536ZM72.86 325.72H76.204L74.532 322.09H74.51L72.86 325.72ZM82.7404 330.516L85.2264 315.732C85.2484 315.534 85.4464 315.38 85.6224 315.38H85.9744C86.0844 315.38 86.2824 315.468 86.3484 315.6L91.4524 325.104H91.4964L96.6004 315.6C96.6664 315.468 96.8644 315.38 96.9744 315.38H97.3264C97.5024 315.38 97.7004 315.534 97.7224 315.732L100.208 330.516C100.252 330.802 100.054 331 99.7904 331H97.1944C96.9964 331 96.7984 330.824 96.7764 330.648L95.7864 323.85H95.7424L92.0464 330.978C91.9804 331.11 91.7824 331.22 91.6724 331.22H91.2764C91.1444 331.22 90.9684 331.11 90.9024 330.978L87.1844 323.85H87.1404L86.1724 330.648C86.1504 330.824 85.9744 331 85.7544 331H83.1584C82.8944 331 82.6964 330.802 82.7404 330.516ZM103.023 330.582V316.018C103.023 315.798 103.199 315.6 103.441 315.6H108.567C111.163 315.6 113.297 317.382 113.297 319.692C113.297 321.386 111.779 322.618 110.745 323.168C111.911 323.652 113.693 324.73 113.693 326.754C113.693 329.218 111.515 331 108.897 331H103.441C103.199 331 103.023 330.802 103.023 330.582ZM106.455 321.848H108.171C109.007 321.848 109.711 321.144 109.711 320.264C109.711 319.384 109.007 318.768 108.171 318.768H106.455V321.848ZM106.455 327.854H108.457C109.315 327.854 110.041 327.15 110.041 326.248C110.041 325.368 109.095 324.708 108.237 324.708H106.455V327.854ZM116.494 330.582V316.018C116.494 315.798 116.692 315.6 116.912 315.6H119.552C119.772 315.6 119.97 315.798 119.97 316.018V330.582C119.97 330.802 119.772 331 119.552 331H116.912C116.692 331 116.494 330.802 116.494 330.582ZM122.633 323.322C122.633 318.922 126.131 315.38 130.531 315.38C134.931 315.38 138.451 318.922 138.451 323.322C138.451 327.722 134.931 331.22 130.531 331.22C126.131 331.22 122.633 327.722 122.633 323.322ZM126.153 323.322C126.153 325.72 128.133 327.7 130.531 327.7C132.951 327.7 134.931 325.72 134.931 323.322C134.931 320.902 132.951 318.9 130.531 318.9C128.133 318.9 126.153 320.902 126.153 323.322ZM145.97 330.582V316.018C145.97 315.798 146.146 315.6 146.366 315.6H151.734C155.98 315.6 159.456 319.054 159.456 323.278C159.456 327.546 155.98 331 151.734 331H146.366C146.146 331 145.97 330.802 145.97 330.582ZM149.402 327.744H151.514C154 327.744 155.804 325.786 155.804 323.278C155.804 320.792 154 318.834 151.514 318.834H149.402V327.744ZM162.148 330.582V316.018C162.148 315.798 162.324 315.6 162.566 315.6H171.674C171.916 315.6 172.092 315.798 172.092 316.018V318.416C172.092 318.636 171.916 318.834 171.674 318.834H165.58V321.562H170.596C170.816 321.562 171.014 321.76 171.014 321.98V324.378C171.014 324.62 170.816 324.796 170.596 324.796H165.58V327.766H171.674C171.916 327.766 172.092 327.964 172.092 328.184V330.582C172.092 330.802 171.916 331 171.674 331H162.566C162.324 331 162.148 330.802 162.148 330.582ZM179.894 330.582V316.018C179.894 315.798 180.07 315.6 180.312 315.6H189.42C189.662 315.6 189.838 315.798 189.838 316.018V318.416C189.838 318.636 189.662 318.834 189.42 318.834H183.326V321.562H188.342C188.562 321.562 188.76 321.76 188.76 321.98V324.378C188.76 324.62 188.562 324.796 188.342 324.796H183.326V327.766H189.42C189.662 327.766 189.838 327.964 189.838 328.184V330.582C189.838 330.802 189.662 331 189.42 331H180.312C180.07 331 179.894 330.802 179.894 330.582ZM192.785 330.582V316.018C192.785 315.798 192.961 315.6 193.203 315.6H195.821C196.041 315.6 196.239 315.798 196.239 316.018V327.766H201.475C201.717 327.766 201.893 327.964 201.893 328.184V330.582C201.893 330.802 201.717 331 201.475 331H193.203C192.961 331 192.785 330.802 192.785 330.582ZM204.021 330.582V316.018C204.021 315.798 204.197 315.6 204.439 315.6H213.547C213.789 315.6 213.965 315.798 213.965 316.018V318.416C213.965 318.636 213.789 318.834 213.547 318.834H207.453V321.562H212.469C212.689 321.562 212.887 321.76 212.887 321.98V324.378C212.887 324.62 212.689 324.796 212.469 324.796H207.453V327.766H213.547C213.789 327.766 213.965 327.964 213.965 328.184V330.582C213.965 330.802 213.789 331 213.547 331H204.439C204.197 331 204.021 330.802 204.021 330.582ZM207.541 314.236C207.255 314.412 207.057 314.258 206.947 314.038L206.485 313.114C206.397 312.938 206.507 312.784 206.617 312.696L210.357 310.408C210.489 310.32 210.819 310.276 210.929 310.474L211.677 311.772C211.853 312.102 211.721 312.322 211.545 312.432L207.541 314.236ZM215.79 323.322C215.79 318.922 219.332 315.38 223.732 315.38C225.932 315.38 227.56 316.062 229.056 317.426C229.254 317.602 229.254 317.866 229.078 318.042L227.362 319.824C227.208 319.978 226.966 319.978 226.812 319.824C225.998 319.098 224.92 318.702 223.842 318.702C221.356 318.702 219.53 320.77 219.53 323.234C219.53 325.676 221.378 327.7 223.864 327.7C224.898 327.7 226.02 327.326 226.812 326.644C226.966 326.512 227.252 326.512 227.384 326.666L229.1 328.492C229.254 328.646 229.232 328.932 229.078 329.086C227.582 330.538 225.69 331.22 223.732 331.22C219.332 331.22 215.79 327.722 215.79 323.322ZM233.694 330.582V318.834H230.548C230.306 318.834 230.13 318.636 230.13 318.416V316.018C230.13 315.798 230.306 315.6 230.548 315.6H240.316C240.558 315.6 240.734 315.798 240.734 316.018V318.416C240.734 318.636 240.558 318.834 240.316 318.834H237.17V330.582C237.17 330.802 236.972 331 236.752 331H234.112C233.892 331 233.694 330.802 233.694 330.582ZM242.929 330.582V316.018C242.929 315.798 243.105 315.6 243.347 315.6H249.925C252.565 315.6 254.721 317.734 254.721 320.352C254.721 322.376 253.379 324.004 251.465 324.774L254.479 330.362C254.633 330.648 254.479 331 254.105 331H251.179C251.003 331 250.871 330.89 250.827 330.802L247.901 324.972H246.383V330.582C246.383 330.802 246.185 331 245.965 331H243.347C243.105 331 242.929 330.802 242.929 330.582ZM246.383 322.178H249.639C250.541 322.178 251.311 321.342 251.311 320.418C251.311 319.494 250.541 318.746 249.639 318.746H246.383V322.178ZM257.667 330.582V316.018C257.667 315.798 257.865 315.6 258.085 315.6H260.725C260.945 315.6 261.143 315.798 261.143 316.018V330.582C261.143 330.802 260.945 331 260.725 331H258.085C257.865 331 257.667 330.802 257.667 330.582ZM263.807 323.322C263.807 318.922 267.349 315.38 271.749 315.38C273.949 315.38 275.577 316.062 277.073 317.426C277.271 317.602 277.271 317.866 277.095 318.042L275.379 319.824C275.225 319.978 274.983 319.978 274.829 319.824C274.015 319.098 272.937 318.702 271.859 318.702C269.373 318.702 267.547 320.77 267.547 323.234C267.547 325.676 269.395 327.7 271.881 327.7C272.915 327.7 274.037 327.326 274.829 326.644C274.983 326.512 275.269 326.512 275.401 326.666L277.117 328.492C277.271 328.646 277.249 328.932 277.095 329.086C275.599 330.538 273.707 331.22 271.749 331.22C267.349 331.22 263.807 327.722 263.807 323.322ZM278.545 323.322C278.545 318.922 282.043 315.38 286.443 315.38C290.843 315.38 294.363 318.922 294.363 323.322C294.363 327.722 290.843 331.22 286.443 331.22C282.043 331.22 278.545 327.722 278.545 323.322ZM282.065 323.322C282.065 325.72 284.045 327.7 286.443 327.7C288.863 327.7 290.843 325.72 290.843 323.322C290.843 320.902 288.863 318.9 286.443 318.9C284.045 318.9 282.065 320.902 282.065 323.322ZM296.257 329.526C296.037 329.306 295.971 329.218 296.147 328.91L297.181 327.084C297.357 326.798 297.775 326.842 297.929 326.952C298.017 326.996 299.601 328.162 301.053 328.162C301.933 328.162 302.571 327.612 302.571 326.842C302.571 325.918 301.801 325.214 300.305 324.62C298.413 323.872 296.037 322.398 296.037 319.758C296.037 317.58 297.731 315.38 301.119 315.38C303.407 315.38 305.167 316.546 305.827 317.03C306.091 317.184 306.047 317.58 305.959 317.734L304.837 319.428C304.683 319.67 304.287 319.868 304.089 319.714C303.891 319.604 302.285 318.394 300.943 318.394C300.151 318.394 299.557 318.922 299.557 319.516C299.557 320.33 300.217 320.946 301.955 321.65C303.671 322.332 306.399 323.674 306.399 326.666C306.399 328.932 304.441 331.22 301.207 331.22C298.347 331.22 296.763 330.032 296.257 329.526ZM307.696 329.174C307.696 328.052 308.642 327.084 309.984 327.084C311.062 327.084 312.58 327.92 312.58 330.406C312.58 333.442 310.578 334.982 309.94 335.554C309.764 335.708 309.5 335.752 309.324 335.554L308.862 335.026C308.686 334.828 308.686 334.586 308.906 334.41C309.17 334.19 310.864 332.936 310.886 330.978C310.886 330.978 310.402 331.22 309.742 331.22C308.642 331.22 307.696 330.296 307.696 329.174ZM53.8075 362C53.4775 362 53.3015 361.714 53.4335 361.428L60.3195 346.622C60.3855 346.49 60.5395 346.38 60.6935 346.38H60.9135C61.0675 346.38 61.2215 346.49 61.2875 346.622L68.1735 361.428C68.3055 361.714 68.1295 362 67.7995 362H65.3575C64.9615 362 64.7855 361.868 64.5875 361.45L63.7955 359.712H57.8115L57.0195 361.472C56.9095 361.736 56.6675 362 56.2275 362H53.8075ZM59.1315 356.72H62.4755L60.8035 353.09H60.7815L59.1315 356.72ZM68.729 354.322C68.729 349.922 72.271 346.38 76.671 346.38C78.871 346.38 80.499 347.062 81.995 348.426C82.193 348.602 82.193 348.866 82.017 349.042L80.301 350.824C80.147 350.978 79.905 350.978 79.751 350.824C78.937 350.098 77.859 349.702 76.781 349.702C74.295 349.702 72.469 351.77 72.469 354.234C72.469 356.676 74.317 358.7 76.803 358.7C77.837 358.7 78.959 358.326 79.751 357.644C79.905 357.512 80.191 357.512 80.323 357.666L82.039 359.492C82.193 359.646 82.171 359.932 82.017 360.086C80.521 361.538 78.629 362.22 76.671 362.22C72.271 362.22 68.729 358.722 68.729 354.322ZM86.6337 361.582V349.834H83.4877C83.2457 349.834 83.0697 349.636 83.0697 349.416V347.018C83.0697 346.798 83.2457 346.6 83.4877 346.6H93.2557C93.4977 346.6 93.6737 346.798 93.6737 347.018V349.416C93.6737 349.636 93.4977 349.834 93.2557 349.834H90.1097V361.582C90.1097 361.802 89.9117 362 89.6917 362H87.0517C86.8317 362 86.6337 361.802 86.6337 361.582ZM95.8686 361.582V347.018C95.8686 346.798 96.0666 346.6 96.2866 346.6H98.9266C99.1466 346.6 99.3446 346.798 99.3446 347.018V361.582C99.3446 361.802 99.1466 362 98.9266 362H96.2866C96.0666 362 95.8686 361.802 95.8686 361.582ZM108.014 361.978L101.15 347.172C101.018 346.886 101.194 346.6 101.524 346.6H104.45C104.626 346.6 104.78 346.732 104.824 346.842L108.454 354.872H108.586L112.216 346.842C112.26 346.732 112.414 346.6 112.59 346.6H115.516C115.846 346.6 116.022 346.886 115.89 347.172L108.982 361.978C108.916 362.11 108.784 362.22 108.608 362.22H108.388C108.212 362.22 108.08 362.11 108.014 361.978ZM117.697 361.582V347.018C117.697 346.798 117.873 346.6 118.115 346.6H127.223C127.465 346.6 127.641 346.798 127.641 347.018V349.416C127.641 349.636 127.465 349.834 127.223 349.834H121.129V352.562H126.145C126.365 352.562 126.563 352.76 126.563 352.98V355.378C126.563 355.62 126.365 355.796 126.145 355.796H121.129V358.766H127.223C127.465 358.766 127.641 358.964 127.641 359.184V361.582C127.641 361.802 127.465 362 127.223 362H118.115C117.873 362 117.697 361.802 117.697 361.582ZM135.443 361.582V347.018C135.443 346.798 135.619 346.6 135.861 346.6H144.969C145.211 346.6 145.387 346.798 145.387 347.018V349.416C145.387 349.636 145.211 349.834 144.969 349.834H138.875V353.002H143.891C144.111 353.002 144.309 353.2 144.309 353.42V355.818C144.309 356.038 144.111 356.236 143.891 356.236H138.875V361.582C138.875 361.802 138.677 362 138.457 362H135.861C135.619 362 135.443 361.802 135.443 361.582ZM147.839 361.582V347.018C147.839 346.798 148.015 346.6 148.257 346.6H154.835C157.475 346.6 159.631 348.734 159.631 351.352C159.631 353.376 158.289 355.004 156.375 355.774L159.389 361.362C159.543 361.648 159.389 362 159.015 362H156.089C155.913 362 155.781 361.89 155.737 361.802L152.811 355.972H151.293V361.582C151.293 361.802 151.095 362 150.875 362H148.257C148.015 362 147.839 361.802 147.839 361.582ZM151.293 353.178H154.549C155.451 353.178 156.221 352.342 156.221 351.418C156.221 350.494 155.451 349.746 154.549 349.746H151.293V353.178ZM162.578 361.582V347.018C162.578 346.798 162.754 346.6 162.996 346.6H172.104C172.346 346.6 172.522 346.798 172.522 347.018V349.416C172.522 349.636 172.346 349.834 172.104 349.834H166.01V352.562H171.026C171.246 352.562 171.444 352.76 171.444 352.98V355.378C171.444 355.62 171.246 355.796 171.026 355.796H166.01V358.766H172.104C172.346 358.766 172.522 358.964 172.522 359.184V361.582C172.522 361.802 172.346 362 172.104 362H162.996C162.754 362 162.578 361.802 162.578 361.582ZM174.698 360.526C174.478 360.306 174.412 360.218 174.588 359.91L175.622 358.084C175.798 357.798 176.216 357.842 176.37 357.952C176.458 357.996 178.042 359.162 179.494 359.162C180.374 359.162 181.012 358.612 181.012 357.842C181.012 356.918 180.242 356.214 178.746 355.62C176.854 354.872 174.478 353.398 174.478 350.758C174.478 348.58 176.172 346.38 179.56 346.38C181.848 346.38 183.608 347.546 184.268 348.03C184.532 348.184 184.488 348.58 184.4 348.734L183.278 350.428C183.124 350.67 182.728 350.868 182.53 350.714C182.332 350.604 180.726 349.394 179.384 349.394C178.592 349.394 177.998 349.922 177.998 350.516C177.998 351.33 178.658 351.946 180.396 352.65C182.112 353.332 184.84 354.674 184.84 357.666C184.84 359.932 182.882 362.22 179.648 362.22C176.788 362.22 175.204 361.032 174.698 360.526ZM187.521 361.582V347.018C187.521 346.798 187.719 346.6 187.939 346.6H190.557C190.799 346.6 190.975 346.798 190.975 347.018V352.562H197.267V347.018C197.267 346.798 197.443 346.6 197.685 346.6H200.303C200.523 346.6 200.721 346.798 200.721 347.018V361.582C200.721 361.802 200.523 362 200.303 362H197.685C197.443 362 197.267 361.802 197.267 361.582V355.796H190.975V361.582C190.975 361.802 190.799 362 190.557 362H187.939C187.719 362 187.521 361.802 187.521 361.582ZM212.209 361.582V354.586L207.347 347.238C207.171 346.952 207.347 346.6 207.699 346.6H210.559C210.735 346.6 210.845 346.71 210.911 346.798L213.969 351.308L217.027 346.798C217.093 346.71 217.181 346.6 217.379 346.6H220.239C220.591 346.6 220.767 346.952 220.591 347.238L215.663 354.564V361.582C215.663 361.802 215.465 362 215.245 362H212.627C212.385 362 212.209 361.802 212.209 361.582ZM227.203 361.582L227.181 346.776C227.181 346.556 227.379 346.38 227.599 346.38H228.149L236.927 354.828H236.949V347.018C236.949 346.798 237.125 346.6 237.367 346.6H240.007C240.227 346.6 240.425 346.798 240.425 347.018V361.824C240.425 362.044 240.227 362.22 240.007 362.22H239.655C239.589 362.22 239.413 362.154 239.369 362.11L230.679 353.376H230.657V361.582C230.657 361.802 230.481 362 230.239 362H227.621C227.401 362 227.203 361.802 227.203 361.582ZM243.934 356.104V347.018C243.934 346.798 244.132 346.6 244.352 346.6H247.058C247.3 346.6 247.476 346.798 247.476 347.018V355.928C247.476 357.468 248.62 358.7 250.182 358.7C251.766 358.7 252.932 357.468 252.932 355.928V347.018C252.932 346.798 253.108 346.6 253.35 346.6H256.056C256.276 346.6 256.474 346.798 256.474 347.018V356.104C256.474 359.448 253.658 362.22 250.182 362.22C246.728 362.22 243.934 359.448 243.934 356.104ZM260.009 361.582V347.018C260.009 346.798 260.185 346.6 260.427 346.6H265.553C268.149 346.6 270.283 348.382 270.283 350.692C270.283 352.386 268.765 353.618 267.731 354.168C268.897 354.652 270.679 355.73 270.679 357.754C270.679 360.218 268.501 362 265.883 362H260.427C260.185 362 260.009 361.802 260.009 361.582ZM263.441 352.848H265.157C265.993 352.848 266.697 352.144 266.697 351.264C266.697 350.384 265.993 349.768 265.157 349.768H263.441V352.848ZM263.441 358.854H265.443C266.301 358.854 267.027 358.15 267.027 357.248C267.027 356.368 266.081 355.708 265.223 355.708H263.441V358.854ZM273.48 361.582V347.018C273.48 346.798 273.656 346.6 273.898 346.6H283.006C283.248 346.6 283.424 346.798 283.424 347.018V349.416C283.424 349.636 283.248 349.834 283.006 349.834H276.912V352.562H281.928C282.148 352.562 282.346 352.76 282.346 352.98V355.378C282.346 355.62 282.148 355.796 281.928 355.796H276.912V358.766H283.006C283.248 358.766 283.424 358.964 283.424 359.184V361.582C283.424 361.802 283.248 362 283.006 362H273.898C273.656 362 273.48 361.802 273.48 361.582ZM101.583 392.582V378.018C101.583 377.798 101.759 377.6 102.001 377.6H107.303C110.009 377.6 112.231 379.8 112.231 382.462C112.231 385.19 110.009 387.412 107.325 387.412H105.015V392.582C105.015 392.802 104.817 393 104.597 393H102.001C101.759 393 101.583 392.802 101.583 392.582ZM105.015 384.2H107.105C108.051 384.2 108.843 383.452 108.843 382.462C108.843 381.538 108.051 380.834 107.105 380.834H105.015V384.2ZM114.474 392.582V378.018C114.474 377.798 114.65 377.6 114.892 377.6H124C124.242 377.6 124.418 377.798 124.418 378.018V380.416C124.418 380.636 124.242 380.834 124 380.834H117.906V383.562H122.922C123.142 383.562 123.34 383.76 123.34 383.98V386.378C123.34 386.62 123.142 386.796 122.922 386.796H117.906V389.766H124C124.242 389.766 124.418 389.964 124.418 390.184V392.582C124.418 392.802 124.242 393 124 393H114.892C114.65 393 114.474 392.802 114.474 392.582ZM127.365 392.582V378.018C127.365 377.798 127.541 377.6 127.783 377.6H134.361C137.001 377.6 139.157 379.734 139.157 382.352C139.157 384.376 137.815 386.004 135.901 386.774L138.915 392.362C139.069 392.648 138.915 393 138.541 393H135.615C135.439 393 135.307 392.89 135.263 392.802L132.337 386.972H130.819V392.582C130.819 392.802 130.621 393 130.401 393H127.783C127.541 393 127.365 392.802 127.365 392.582ZM130.819 384.178H134.075C134.977 384.178 135.747 383.342 135.747 382.418C135.747 381.494 134.977 380.746 134.075 380.746H130.819V384.178ZM142.103 392.582V378.018C142.103 377.798 142.279 377.6 142.521 377.6H151.629C151.871 377.6 152.047 377.798 152.047 378.018V380.416C152.047 380.636 151.871 380.834 151.629 380.834H145.535V384.002H150.551C150.771 384.002 150.969 384.2 150.969 384.42V386.818C150.969 387.038 150.771 387.236 150.551 387.236H145.535V392.582C145.535 392.802 145.337 393 145.117 393H142.521C142.279 393 142.103 392.802 142.103 392.582ZM154.279 387.104V378.018C154.279 377.798 154.477 377.6 154.697 377.6H157.403C157.645 377.6 157.821 377.798 157.821 378.018V386.928C157.821 388.468 158.965 389.7 160.527 389.7C162.111 389.7 163.277 388.468 163.277 386.928V378.018C163.277 377.798 163.453 377.6 163.695 377.6H166.401C166.621 377.6 166.819 377.798 166.819 378.018V387.104C166.819 390.448 164.003 393.22 160.527 393.22C157.073 393.22 154.279 390.448 154.279 387.104ZM169.387 392.516L171.873 377.732C171.895 377.534 172.093 377.38 172.269 377.38H172.621C172.731 377.38 172.929 377.468 172.995 377.6L178.099 387.104H178.143L183.247 377.6C183.313 377.468 183.511 377.38 183.621 377.38H183.973C184.149 377.38 184.347 377.534 184.369 377.732L186.855 392.516C186.899 392.802 186.701 393 186.437 393H183.841C183.643 393 183.445 392.824 183.423 392.648L182.433 385.85H182.389L178.693 392.978C178.627 393.11 178.429 393.22 178.319 393.22H177.923C177.791 393.22 177.615 393.11 177.549 392.978L173.831 385.85H173.787L172.819 392.648C172.797 392.824 172.621 393 172.401 393H169.805C169.541 393 169.343 392.802 169.387 392.516ZM188.063 393C187.733 393 187.557 392.714 187.689 392.428L194.575 377.622C194.641 377.49 194.795 377.38 194.949 377.38H195.169C195.323 377.38 195.477 377.49 195.543 377.622L202.429 392.428C202.561 392.714 202.385 393 202.055 393H199.613C199.217 393 199.041 392.868 198.843 392.45L198.051 390.712H192.067L191.275 392.472C191.165 392.736 190.923 393 190.483 393H188.063ZM193.387 387.72H196.731L195.059 384.09H195.037L193.387 387.72ZM204.236 392.582V378.018C204.236 377.798 204.412 377.6 204.632 377.6H210C214.246 377.6 217.722 381.054 217.722 385.278C217.722 389.546 214.246 393 210 393H204.632C204.412 393 204.236 392.802 204.236 392.582ZM207.668 389.744H209.78C212.266 389.744 214.07 387.786 214.07 385.278C214.07 382.792 212.266 380.834 209.78 380.834H207.668V389.744ZM218.657 393C218.327 393 218.151 392.714 218.283 392.428L225.169 377.622C225.235 377.49 225.389 377.38 225.543 377.38H225.763C225.917 377.38 226.071 377.49 226.137 377.622L233.023 392.428C233.155 392.714 232.979 393 232.649 393H230.207C229.811 393 229.635 392.868 229.437 392.45L228.645 390.712H222.661L221.869 392.472C221.759 392.736 221.517 393 221.077 393H218.657ZM223.981 387.72H227.325L225.653 384.09H225.631L223.981 387.72ZM233.532 391.152C233.532 390.008 234.478 389.04 235.6 389.04C236.744 389.04 237.712 390.008 237.712 391.152C237.712 392.274 236.744 393.22 235.6 393.22C234.478 393.22 233.532 392.274 233.532 391.152Z" fill="white"/>
<path d="M162.006 142.43V81.5647H149.021C147.669 81.5647 146.587 80.3474 146.587 78.9949V70.4737C146.587 69.9327 146.993 68.8506 147.398 68.4449L167.146 53.0256H179.589C180.942 53.0256 182.024 54.2429 182.024 55.5955V142.43C182.024 143.783 180.942 145 179.589 145H164.576C163.088 145 162.006 143.783 162.006 142.43Z" fill="white"/>
</svg>
