<svg width="339" height="483" viewBox="0 0 339 483" fill="none" xmlns="http://www.w3.org/2000/svg">
<rect width="338.114" height="482.498" fill="#182D1B"/>
<path d="M66.2822 250.55C66.2822 240.55 74.3322 232.5 84.3322 232.5C89.3322 232.5 93.0322 234.05 96.4322 237.15C96.8822 237.55 96.8822 238.15 96.4822 238.55L92.5822 242.6C92.2322 242.95 91.6822 242.95 91.3322 242.6C89.4822 240.95 87.0322 240.05 84.5822 240.05C78.9322 240.05 74.7822 244.75 74.7822 250.35C74.7822 255.9 78.9822 260.5 84.6322 260.5C86.9822 260.5 89.5322 259.65 91.3322 258.1C91.6822 257.8 92.3322 257.8 92.6322 258.15L96.5322 262.3C96.8822 262.65 96.8322 263.3 96.4822 263.65C93.0822 266.95 88.7822 268.5 84.3322 268.5C74.3322 268.5 66.2822 260.55 66.2822 250.55ZM99.7783 250.55C99.7783 240.55 107.728 232.5 117.728 232.5C127.728 232.5 135.728 240.55 135.728 250.55C135.728 260.55 127.728 268.5 117.728 268.5C107.728 268.5 99.7783 260.55 99.7783 250.55ZM107.778 250.55C107.778 256 112.278 260.5 117.728 260.5C123.228 260.5 127.728 256 127.728 250.55C127.728 245.05 123.228 240.5 117.728 240.5C112.278 240.5 107.778 245.05 107.778 250.55ZM139.581 266.9L145.231 233.3C145.281 232.85 145.731 232.5 146.131 232.5H146.931C147.181 232.5 147.631 232.7 147.781 233L159.381 254.6H159.481L171.081 233C171.231 232.7 171.681 232.5 171.931 232.5H172.731C173.131 232.5 173.581 232.85 173.631 233.3L179.281 266.9C179.381 267.55 178.931 268 178.331 268H172.431C171.981 268 171.531 267.6 171.481 267.2L169.231 251.75H169.131L160.731 267.95C160.581 268.25 160.131 268.5 159.881 268.5H158.981C158.681 268.5 158.281 268.25 158.131 267.95L149.681 251.75H149.581L147.381 267.2C147.331 267.6 146.931 268 146.431 268H140.531C139.931 268 139.481 267.55 139.581 266.9ZM185.678 267.05V233.95C185.678 233.45 186.078 233 186.628 233H198.678C204.828 233 209.878 238 209.878 244.05C209.878 250.25 204.828 255.3 198.728 255.3H193.478V267.05C193.478 267.55 193.028 268 192.528 268H186.628C186.078 268 185.678 267.55 185.678 267.05ZM193.478 248H198.228C200.378 248 202.178 246.3 202.178 244.05C202.178 241.95 200.378 240.35 198.228 240.35H193.478V248ZM214.975 267.05V233.95C214.975 233.45 215.375 233 215.925 233H230.875C236.875 233 241.775 237.85 241.775 243.8C241.775 248.4 238.725 252.1 234.375 253.85L241.225 266.55C241.575 267.2 241.225 268 240.375 268H233.725C233.325 268 233.025 267.75 232.925 267.55L226.275 254.3H222.825V267.05C222.825 267.55 222.375 268 221.875 268H215.925C215.375 268 214.975 267.55 214.975 267.05ZM222.825 247.95H230.225C232.275 247.95 234.025 246.05 234.025 243.95C234.025 241.85 232.275 240.15 230.225 240.15H222.825V247.95ZM248.471 267.05V233.95C248.471 233.45 248.871 233 249.421 233H270.121C270.671 233 271.071 233.45 271.071 233.95V239.4C271.071 239.9 270.671 240.35 270.121 240.35H256.271V246.55H267.671C268.171 246.55 268.621 247 268.621 247.5V252.95C268.621 253.5 268.171 253.9 267.671 253.9H256.271V260.65H270.121C270.671 260.65 271.071 261.1 271.071 261.6V267.05C271.071 267.55 270.671 268 270.121 268H249.421C248.871 268 248.471 267.55 248.471 267.05Z" fill="white"/>
<path d="M58.309 326.582V316.682H56.197C55.977 316.682 55.801 316.484 55.801 316.264V314.878C55.801 314.79 55.867 314.614 55.933 314.548L59.145 312.04H61.169C61.389 312.04 61.565 312.238 61.565 312.458V326.582C61.565 326.802 61.389 327 61.169 327H58.727C58.485 327 58.309 326.802 58.309 326.582ZM70.227 326.582V312.018C70.227 311.798 70.403 311.6 70.645 311.6H75.947C78.653 311.6 80.875 313.8 80.875 316.462C80.875 319.19 78.653 321.412 75.969 321.412H73.659V326.582C73.659 326.802 73.461 327 73.241 327H70.645C70.403 327 70.227 326.802 70.227 326.582ZM73.659 318.2H75.749C76.695 318.2 77.487 317.452 77.487 316.462C77.487 315.538 76.695 314.834 75.749 314.834H73.659V318.2ZM83.1176 326.582V312.018C83.1176 311.798 83.2936 311.6 83.5356 311.6H90.1136C92.7536 311.6 94.9096 313.734 94.9096 316.352C94.9096 318.376 93.5676 320.004 91.6536 320.774L94.6676 326.362C94.8216 326.648 94.6676 327 94.2936 327H91.3676C91.1916 327 91.0596 326.89 91.0156 326.802L88.0896 320.972H86.5716V326.582C86.5716 326.802 86.3736 327 86.1536 327H83.5356C83.2936 327 83.1176 326.802 83.1176 326.582ZM86.5716 318.178H89.8276C90.7296 318.178 91.4996 317.342 91.4996 316.418C91.4996 315.494 90.7296 314.746 89.8276 314.746H86.5716V318.178ZM96.7339 319.322C96.7339 314.922 100.232 311.38 104.632 311.38C109.032 311.38 112.552 314.922 112.552 319.322C112.552 323.722 109.032 327.22 104.632 327.22C100.232 327.22 96.7339 323.722 96.7339 319.322ZM100.254 319.322C100.254 321.72 102.234 323.7 104.632 323.7C107.052 323.7 109.032 321.72 109.032 319.322C109.032 316.902 107.052 314.9 104.632 314.9C102.234 314.9 100.254 316.902 100.254 319.322ZM115.215 326.582V312.018C115.215 311.798 115.391 311.6 115.611 311.6H120.979C125.225 311.6 128.701 315.054 128.701 319.278C128.701 323.546 125.225 327 120.979 327H115.611C115.391 327 115.215 326.802 115.215 326.582ZM118.647 323.744H120.759C123.245 323.744 125.049 321.786 125.049 319.278C125.049 316.792 123.245 314.834 120.759 314.834H118.647V323.744ZM131.173 321.104V312.018C131.173 311.798 131.371 311.6 131.591 311.6H134.297C134.539 311.6 134.715 311.798 134.715 312.018V320.928C134.715 322.468 135.859 323.7 137.421 323.7C139.005 323.7 140.171 322.468 140.171 320.928V312.018C140.171 311.798 140.347 311.6 140.589 311.6H143.295C143.515 311.6 143.713 311.798 143.713 312.018V321.104C143.713 324.448 140.897 327.22 137.421 327.22C133.967 327.22 131.173 324.448 131.173 321.104ZM149.228 326.582V314.834H146.082C145.84 314.834 145.664 314.636 145.664 314.416V312.018C145.664 311.798 145.84 311.6 146.082 311.6H155.85C156.092 311.6 156.268 311.798 156.268 312.018V314.416C156.268 314.636 156.092 314.834 155.85 314.834H152.704V326.582C152.704 326.802 152.506 327 152.286 327H149.646C149.426 327 149.228 326.802 149.228 326.582ZM157.255 319.322C157.255 314.922 160.753 311.38 165.153 311.38C169.553 311.38 173.073 314.922 173.073 319.322C173.073 323.722 169.553 327.22 165.153 327.22C160.753 327.22 157.255 323.722 157.255 319.322ZM160.775 319.322C160.775 321.72 162.755 323.7 165.153 323.7C167.573 323.7 169.553 321.72 169.553 319.322C169.553 316.902 167.573 314.9 165.153 314.9C162.755 314.9 160.775 316.902 160.775 319.322ZM178.986 327C178.656 327 178.48 326.714 178.612 326.428L185.498 311.622C185.564 311.49 185.718 311.38 185.872 311.38H186.092C186.246 311.38 186.4 311.49 186.466 311.622L193.352 326.428C193.484 326.714 193.308 327 192.978 327H190.536C190.14 327 189.964 326.868 189.766 326.45L188.974 324.712H182.99L182.198 326.472C182.088 326.736 181.846 327 181.406 327H178.986ZM184.31 321.72H187.654L185.982 318.09H185.96L184.31 321.72ZM195.159 326.582V312.018C195.159 311.798 195.357 311.6 195.577 311.6H198.217C198.437 311.6 198.635 311.798 198.635 312.018V326.582C198.635 326.802 198.437 327 198.217 327H195.577C195.357 327 195.159 326.802 195.159 326.582ZM202.42 326.582V312.018C202.42 311.798 202.596 311.6 202.838 311.6H209.416C212.056 311.6 214.212 313.734 214.212 316.352C214.212 318.376 212.87 320.004 210.956 320.774L213.97 326.362C214.124 326.648 213.97 327 213.596 327H210.67C210.494 327 210.362 326.89 210.318 326.802L207.392 320.972H205.874V326.582C205.874 326.802 205.676 327 205.456 327H202.838C202.596 327 202.42 326.802 202.42 326.582ZM205.874 318.178H209.13C210.032 318.178 210.802 317.342 210.802 316.418C210.802 315.494 210.032 314.746 209.13 314.746H205.874V318.178ZM224.808 326.912L220.65 312.128C220.562 311.82 220.738 311.6 221.046 311.6H223.62C223.796 311.6 223.972 311.754 224.016 311.908L225.908 319.366H225.996L229.406 311.622C229.472 311.49 229.604 311.38 229.78 311.38H230.176C230.374 311.38 230.506 311.49 230.55 311.622L233.96 319.366H234.048L235.94 311.908C235.984 311.754 236.16 311.6 236.336 311.6H238.91C239.218 311.6 239.394 311.82 239.306 312.128L235.148 326.912C235.104 327.088 234.928 327.22 234.752 327.22H234.4C234.246 327.22 234.092 327.11 234.026 326.978L230 317.98H229.934L225.93 326.978C225.864 327.11 225.71 327.22 225.556 327.22H225.204C225.028 327.22 224.852 327.088 224.808 326.912ZM241.672 326.582V312.018C241.672 311.798 241.87 311.6 242.09 311.6H244.73C244.95 311.6 245.148 311.798 245.148 312.018V326.582C245.148 326.802 244.95 327 244.73 327H242.09C241.87 327 241.672 326.802 241.672 326.582ZM247.812 319.322C247.812 314.922 251.354 311.38 255.754 311.38C257.954 311.38 259.582 312.062 261.078 313.426C261.276 313.602 261.276 313.866 261.1 314.042L259.384 315.824C259.23 315.978 258.988 315.978 258.834 315.824C258.02 315.098 256.942 314.702 255.864 314.702C253.378 314.702 251.552 316.77 251.552 319.234C251.552 321.676 253.4 323.7 255.886 323.7C256.92 323.7 258.042 323.326 258.834 322.644C258.988 322.512 259.274 322.512 259.406 322.666L261.122 324.492C261.276 324.646 261.254 324.932 261.1 325.086C259.604 326.538 257.712 327.22 255.754 327.22C251.354 327.22 247.812 323.722 247.812 319.322ZM263.737 326.472V312.128C263.737 311.842 263.957 311.6 264.265 311.6H266.839C267.125 311.6 267.367 311.842 267.367 312.128V317.914L272.251 311.82C272.339 311.71 272.537 311.6 272.669 311.6H275.441C275.859 311.6 276.079 312.084 275.837 312.414L270.689 318.86L276.299 326.164C276.541 326.494 276.299 326.978 275.881 326.978H272.845C272.691 326.978 272.493 326.89 272.449 326.824L267.367 319.916V326.472C267.367 326.758 267.125 327 266.839 327H264.265C263.957 327 263.737 326.758 263.737 326.472ZM277.263 325.174C277.263 324.052 278.209 323.084 279.551 323.084C280.629 323.084 282.147 323.92 282.147 326.406C282.147 329.442 280.145 330.982 279.507 331.554C279.331 331.708 279.067 331.752 278.891 331.554L278.429 331.026C278.253 330.828 278.253 330.586 278.473 330.41C278.737 330.19 280.431 328.936 280.453 326.978C280.453 326.978 279.969 327.22 279.309 327.22C278.209 327.22 277.263 326.296 277.263 325.174ZM90.9594 357.472V343.128C90.9594 342.842 91.1794 342.6 91.4874 342.6H94.0614C94.3474 342.6 94.5894 342.842 94.5894 343.128V348.914L99.4734 342.82C99.5614 342.71 99.7594 342.6 99.8914 342.6H102.663C103.081 342.6 103.301 343.084 103.059 343.414L97.9114 349.86L103.521 357.164C103.763 357.494 103.521 357.978 103.103 357.978H100.067C99.9134 357.978 99.7154 357.89 99.6714 357.824L94.5894 350.916V357.472C94.5894 357.758 94.3474 358 94.0614 358H91.4874C91.1794 358 90.9594 357.758 90.9594 357.472ZM105.762 357.582V343.018C105.762 342.798 105.96 342.6 106.18 342.6H108.82C109.04 342.6 109.238 342.798 109.238 343.018V357.582C109.238 357.802 109.04 358 108.82 358H106.18C105.96 358 105.762 357.802 105.762 357.582ZM115.004 357.582V345.834H111.858C111.616 345.834 111.44 345.636 111.44 345.416V343.018C111.44 342.798 111.616 342.6 111.858 342.6H121.626C121.868 342.6 122.044 342.798 122.044 343.018V345.416C122.044 345.636 121.868 345.834 121.626 345.834H118.48V357.582C118.48 357.802 118.282 358 118.062 358H115.422C115.202 358 115.004 357.802 115.004 357.582ZM127.972 350.322C127.972 345.922 131.514 342.38 135.914 342.38C138.114 342.38 139.742 343.062 141.238 344.426C141.436 344.602 141.436 344.866 141.26 345.042L139.544 346.824C139.39 346.978 139.148 346.978 138.994 346.824C138.18 346.098 137.102 345.702 136.024 345.702C133.538 345.702 131.712 347.77 131.712 350.234C131.712 352.676 133.56 354.7 136.046 354.7C137.08 354.7 138.202 354.326 138.994 353.644C139.148 353.512 139.434 353.512 139.566 353.666L141.282 355.492C141.436 355.646 141.414 355.932 141.26 356.086C139.764 357.538 137.872 358.22 135.914 358.22C131.514 358.22 127.972 354.722 127.972 350.322ZM142.71 350.322C142.71 345.922 146.208 342.38 150.608 342.38C155.008 342.38 158.528 345.922 158.528 350.322C158.528 354.722 155.008 358.22 150.608 358.22C146.208 358.22 142.71 354.722 142.71 350.322ZM146.23 350.322C146.23 352.72 148.21 354.7 150.608 354.7C153.028 354.7 155.008 352.72 155.008 350.322C155.008 347.902 153.028 345.9 150.608 345.9C148.21 345.9 146.23 347.902 146.23 350.322ZM160.224 357.516L162.71 342.732C162.732 342.534 162.93 342.38 163.106 342.38H163.458C163.568 342.38 163.766 342.468 163.832 342.6L168.936 352.104H168.98L174.084 342.6C174.15 342.468 174.348 342.38 174.458 342.38H174.81C174.986 342.38 175.184 342.534 175.206 342.732L177.692 357.516C177.736 357.802 177.538 358 177.274 358H174.678C174.48 358 174.282 357.824 174.26 357.648L173.27 350.85H173.226L169.53 357.978C169.464 358.11 169.266 358.22 169.156 358.22H168.76C168.628 358.22 168.452 358.11 168.386 357.978L164.668 350.85H164.624L163.656 357.648C163.634 357.824 163.458 358 163.238 358H160.642C160.378 358 160.18 357.802 160.224 357.516ZM180.506 357.582V343.018C180.506 342.798 180.682 342.6 180.924 342.6H186.226C188.932 342.6 191.154 344.8 191.154 347.462C191.154 350.19 188.932 352.412 186.248 352.412H183.938V357.582C183.938 357.802 183.74 358 183.52 358H180.924C180.682 358 180.506 357.802 180.506 357.582ZM183.938 349.2H186.028C186.974 349.2 187.766 348.452 187.766 347.462C187.766 346.538 186.974 345.834 186.028 345.834H183.938V349.2ZM193.397 357.582V343.018C193.397 342.798 193.573 342.6 193.815 342.6H196.433C196.653 342.6 196.851 342.798 196.851 343.018V354.766H202.087C202.329 354.766 202.505 354.964 202.505 355.184V357.582C202.505 357.802 202.329 358 202.087 358H193.815C193.573 358 193.397 357.802 193.397 357.582ZM204.633 357.582V343.018C204.633 342.798 204.809 342.6 205.051 342.6H214.159C214.401 342.6 214.577 342.798 214.577 343.018V345.416C214.577 345.636 214.401 345.834 214.159 345.834H208.065V348.562H213.081C213.301 348.562 213.499 348.76 213.499 348.98V351.378C213.499 351.62 213.301 351.796 213.081 351.796H208.065V354.766H214.159C214.401 354.766 214.577 354.964 214.577 355.184V357.582C214.577 357.802 214.401 358 214.159 358H205.051C204.809 358 204.633 357.802 204.633 357.582ZM219.504 357.582V345.834H216.358C216.116 345.834 215.94 345.636 215.94 345.416V343.018C215.94 342.798 216.116 342.6 216.358 342.6H226.126C226.368 342.6 226.544 342.798 226.544 343.018V345.416C226.544 345.636 226.368 345.834 226.126 345.834H222.98V357.582C222.98 357.802 222.782 358 222.562 358H219.922C219.702 358 219.504 357.802 219.504 357.582ZM227.531 350.322C227.531 345.922 231.029 342.38 235.429 342.38C239.829 342.38 243.349 345.922 243.349 350.322C243.349 354.722 239.829 358.22 235.429 358.22C231.029 358.22 227.531 354.722 227.531 350.322ZM231.051 350.322C231.051 352.72 233.031 354.7 235.429 354.7C237.849 354.7 239.829 352.72 239.829 350.322C239.829 347.902 237.849 345.9 235.429 345.9C233.031 345.9 231.051 347.902 231.051 350.322ZM244.156 356.152C244.156 355.008 245.102 354.04 246.224 354.04C247.368 354.04 248.336 355.008 248.336 356.152C248.336 357.274 247.368 358.22 246.224 358.22C245.102 358.22 244.156 357.274 244.156 356.152Z" fill="white"/>
<path d="M162.006 142.43V81.5647H149.021C147.669 81.5647 146.587 80.3474 146.587 78.9949V70.4737C146.587 69.9327 146.993 68.8506 147.398 68.4449L167.146 53.0256H179.589C180.942 53.0256 182.024 54.2429 182.024 55.5955V142.43C182.024 143.783 180.942 145 179.589 145H164.576C163.088 145 162.006 143.783 162.006 142.43Z" fill="white"/>
</svg>
