<svg width="339" height="483" viewBox="0 0 339 483" fill="none" xmlns="http://www.w3.org/2000/svg">
<rect width="338.114" height="482.498" fill="#061F0E"/>
<path d="M137.872 142.43V139.725C145.717 129.446 165.735 102.259 173.715 90.0859C175.473 87.3808 177.232 83.5936 177.232 79.8064C177.232 74.6667 172.904 70.0679 165.329 70.0679C159.784 70.0679 154.779 73.9904 152.209 76.8308C151.127 77.9128 149.504 77.9128 148.422 76.8308L140.172 68.4449C139.225 67.6333 139.089 66.0102 140.036 64.9282C140.036 64.9282 150.992 51.6731 167.088 51.6731C186.429 51.6731 197.791 63.9814 197.791 78.9949C197.791 86.1635 195.762 90.2211 192.516 96.5782C188.188 104.288 177.097 118.76 170.74 127.687H194.545C195.897 127.687 197.115 128.904 197.115 130.257V142.43C197.115 143.783 195.897 145 194.545 145H140.442C138.954 145 137.872 143.783 137.872 142.43Z" fill="white"/>
<path d="M79.9534 223.248C79.9534 213.648 87.6814 205.92 97.2814 205.92C102.081 205.92 105.633 207.408 108.897 210.384C109.329 210.768 109.329 211.344 108.945 211.728L105.201 215.616C104.865 215.952 104.337 215.952 104.001 215.616C102.225 214.032 99.8734 213.168 97.5214 213.168C92.0974 213.168 88.1134 217.68 88.1134 223.056C88.1134 228.384 92.1454 232.8 97.5694 232.8C99.8254 232.8 102.273 231.984 104.001 230.496C104.337 230.208 104.961 230.208 105.249 230.544L108.993 234.528C109.329 234.864 109.281 235.488 108.945 235.824C105.681 238.992 101.553 240.48 97.2814 240.48C87.6814 240.48 79.9534 232.848 79.9534 223.248ZM111.194 240C110.474 240 110.09 239.376 110.378 238.752L125.402 206.448C125.546 206.16 125.882 205.92 126.218 205.92H126.698C127.034 205.92 127.37 206.16 127.514 206.448L142.538 238.752C142.826 239.376 142.442 240 141.722 240H136.394C135.53 240 135.146 239.712 134.714 238.8L132.986 235.008H119.93L118.202 238.848C117.962 239.424 117.434 240 116.474 240H111.194ZM122.81 228.48H130.106L126.458 220.56H126.41L122.81 228.48ZM146.48 239.088L146.432 206.784C146.432 206.304 146.864 205.92 147.344 205.92H148.544L167.696 224.352H167.744V207.312C167.744 206.832 168.128 206.4 168.656 206.4H174.416C174.896 206.4 175.328 206.832 175.328 207.312V239.616C175.328 240.096 174.896 240.48 174.416 240.48H173.648C173.504 240.48 173.12 240.336 173.024 240.24L154.064 221.184H154.016V239.088C154.016 239.568 153.632 240 153.104 240H147.392C146.912 240 146.48 239.568 146.48 239.088ZM178.805 236.976C178.565 236.592 178.613 236.112 178.901 235.776L182.165 232.56C182.549 232.224 183.077 232.176 183.461 232.56C184.037 233.136 184.613 233.568 185.909 233.568C187.253 233.568 188.741 232.32 188.741 229.92V207.312C188.741 206.832 189.125 206.4 189.653 206.4H195.509C196.037 206.4 196.421 206.832 196.421 207.312V229.968C196.421 236.64 191.717 240.48 186.101 240.48C181.925 240.48 179.621 237.984 178.805 236.976ZM203.948 239.088V207.312C203.948 206.832 204.332 206.4 204.86 206.4H224.732C225.26 206.4 225.644 206.832 225.644 207.312V212.544C225.644 213.024 225.26 213.456 224.732 213.456H211.436V219.408H222.38C222.86 219.408 223.292 219.84 223.292 220.32V225.552C223.292 226.08 222.86 226.464 222.38 226.464H211.436V232.944H224.732C225.26 232.944 225.644 233.376 225.644 233.856V239.088C225.644 239.568 225.26 240 224.732 240H204.86C204.332 240 203.948 239.568 203.948 239.088ZM228.569 240C227.849 240 227.465 239.376 227.753 238.752L242.777 206.448C242.921 206.16 243.257 205.92 243.593 205.92H244.073C244.409 205.92 244.745 206.16 244.889 206.448L259.913 238.752C260.201 239.376 259.817 240 259.097 240H253.769C252.905 240 252.521 239.712 252.089 238.8L250.361 235.008H237.305L235.577 238.848C235.337 239.424 234.809 240 233.849 240H228.569ZM240.185 228.48H247.481L243.833 220.56H243.785L240.185 228.48ZM74.8193 292C74.0993 292 73.7153 291.376 74.0033 290.752L89.0273 258.448C89.1713 258.16 89.5073 257.92 89.8433 257.92H90.3233C90.6593 257.92 90.9953 258.16 91.1393 258.448L106.163 290.752C106.451 291.376 106.067 292 105.347 292H100.019C99.1553 292 98.7713 291.712 98.3393 290.8L96.6113 287.008H83.5553L81.8273 290.848C81.5873 291.424 81.0593 292 80.0993 292H74.8193ZM86.4353 280.48H93.7313L90.0833 272.56H90.0353L86.4353 280.48ZM107.375 275.248C107.375 265.648 115.007 257.92 124.607 257.92C134.207 257.92 141.887 265.648 141.887 275.248C141.887 281.488 138.287 287.152 133.007 290.368L139.199 300.064C139.583 300.736 139.199 301.504 138.431 301.504H131.951C131.567 301.504 131.327 301.264 131.183 301.024L126.095 292.432C125.519 292.48 124.943 292.48 124.607 292.48C115.007 292.48 107.375 284.848 107.375 275.248ZM115.055 275.248C115.055 280.48 119.375 284.8 124.607 284.8C129.887 284.8 134.207 280.48 134.207 275.248C134.207 269.968 129.887 265.6 124.607 265.6C119.375 265.6 115.055 269.968 115.055 275.248ZM147.359 279.136V259.312C147.359 258.832 147.791 258.4 148.271 258.4H154.175C154.703 258.4 155.087 258.832 155.087 259.312V278.752C155.087 282.112 157.583 284.8 160.991 284.8C164.447 284.8 166.991 282.112 166.991 278.752V259.312C166.991 258.832 167.375 258.4 167.903 258.4H173.807C174.287 258.4 174.719 258.832 174.719 259.312V279.136C174.719 286.432 168.575 292.48 160.991 292.48C153.455 292.48 147.359 286.432 147.359 279.136ZM182.433 291.088V259.312C182.433 258.832 182.865 258.4 183.345 258.4H189.105C189.585 258.4 190.017 258.832 190.017 259.312V291.088C190.017 291.568 189.585 292 189.105 292H183.345C182.865 292 182.433 291.568 182.433 291.088ZM182.817 255.424C182.193 255.808 181.761 255.472 181.521 254.992L180.513 252.976C180.321 252.592 180.561 252.256 180.801 252.064L188.961 247.072C189.249 246.88 189.969 246.784 190.209 247.216L191.841 250.048C192.225 250.768 191.937 251.248 191.553 251.488L182.817 255.424ZM213.19 291.088V265.456H206.326C205.798 265.456 205.414 265.024 205.414 264.544V259.312C205.414 258.832 205.798 258.4 206.326 258.4H227.638C228.166 258.4 228.55 258.832 228.55 259.312V264.544C228.55 265.024 228.166 265.456 227.638 265.456H220.774V291.088C220.774 291.568 220.342 292 219.862 292H214.102C213.622 292 213.19 291.568 213.19 291.088ZM232.859 279.136V259.312C232.859 258.832 233.291 258.4 233.771 258.4H239.675C240.203 258.4 240.587 258.832 240.587 259.312V278.752C240.587 282.112 243.083 284.8 246.491 284.8C249.947 284.8 252.491 282.112 252.491 278.752V259.312C252.491 258.832 252.875 258.4 253.403 258.4H259.307C259.787 258.4 260.219 258.832 260.219 259.312V279.136C260.219 286.432 254.075 292.48 246.491 292.48C238.955 292.48 232.859 286.432 232.859 279.136ZM62.4912 344C61.7712 344 61.3872 343.376 61.6752 342.752L76.6992 310.448C76.8432 310.16 77.1792 309.92 77.5152 309.92H77.9952C78.3312 309.92 78.6672 310.16 78.8112 310.448L93.8352 342.752C94.1232 343.376 93.7392 344 93.0192 344H87.6912C86.8272 344 86.4432 343.712 86.0112 342.8L84.2832 339.008H71.2272L69.4992 342.848C69.2592 343.424 68.7312 344 67.7712 344H62.4912ZM74.1072 332.48H81.4032L77.7552 324.56H77.7072L74.1072 332.48ZM97.7764 343.088V311.312C97.7764 310.832 98.1604 310.4 98.6884 310.4H110.256C116.16 310.4 121.008 315.2 121.008 321.008C121.008 326.96 116.16 331.808 110.304 331.808H105.264V343.088C105.264 343.568 104.832 344 104.352 344H98.6884C98.1604 344 97.7764 343.568 97.7764 343.088ZM105.264 324.8H109.824C111.888 324.8 113.616 323.168 113.616 321.008C113.616 318.992 111.888 317.456 109.824 317.456H105.264V324.8ZM120.616 344C119.896 344 119.512 343.376 119.8 342.752L134.824 310.448C134.968 310.16 135.304 309.92 135.64 309.92H136.12C136.456 309.92 136.792 310.16 136.936 310.448L151.96 342.752C152.248 343.376 151.864 344 151.144 344H145.816C144.952 344 144.568 343.712 144.136 342.8L142.408 339.008H129.352L127.624 342.848C127.384 343.424 126.856 344 125.896 344H120.616ZM132.232 332.48H139.528L135.88 324.56H135.832L132.232 332.48ZM155.901 343.088V311.312C155.901 310.832 156.285 310.4 156.813 310.4H171.165C176.925 310.4 181.629 315.056 181.629 320.768C181.629 325.184 178.701 328.736 174.525 330.416L181.101 342.608C181.437 343.232 181.101 344 180.285 344H173.901C173.517 344 173.229 343.76 173.133 343.568L166.749 330.848H163.437V343.088C163.437 343.568 163.005 344 162.525 344H156.813C156.285 344 155.901 343.568 155.901 343.088ZM163.437 324.752H170.541C172.509 324.752 174.189 322.928 174.189 320.912C174.189 318.896 172.509 317.264 170.541 317.264H163.437V324.752ZM184.554 344C183.834 344 183.45 343.376 183.738 342.752L198.762 310.448C198.906 310.16 199.242 309.92 199.578 309.92H200.058C200.394 309.92 200.73 310.16 200.874 310.448L215.898 342.752C216.186 343.376 215.802 344 215.082 344H209.754C208.89 344 208.506 343.712 208.074 342.8L206.346 339.008H193.29L191.562 342.848C191.322 343.424 190.794 344 189.834 344H184.554ZM196.17 332.48H203.466L199.818 324.56H199.77L196.17 332.48ZM222.425 343.088V317.456H215.561C215.033 317.456 214.649 317.024 214.649 316.544V311.312C214.649 310.832 215.033 310.4 215.561 310.4H236.873C237.401 310.4 237.785 310.832 237.785 311.312V316.544C237.785 317.024 237.401 317.456 236.873 317.456H230.009V343.088C230.009 343.568 229.577 344 229.097 344H223.337C222.857 344 222.425 343.568 222.425 343.088ZM239.938 327.248C239.938 317.648 247.57 309.92 257.17 309.92C266.77 309.92 274.45 317.648 274.45 327.248C274.45 336.848 266.77 344.48 257.17 344.48C247.57 344.48 239.938 336.848 239.938 327.248ZM247.618 327.248C247.618 332.48 251.938 336.8 257.17 336.8C262.45 336.8 266.77 332.48 266.77 327.248C266.77 321.968 262.45 317.6 257.17 317.6C251.938 317.6 247.618 321.968 247.618 327.248ZM89.4702 379.248C89.4702 369.648 97.1502 361.968 106.702 361.968C110.734 361.968 115.15 363.648 118.414 366.48C118.846 366.816 118.894 367.392 118.51 367.776L114.718 371.808C114.334 372.144 113.806 372.144 113.422 371.856C111.598 370.176 109.486 369.552 107.134 369.552C101.902 369.552 97.6782 373.968 97.6782 379.248C97.6782 384.48 101.95 388.8 107.182 388.8C108.574 388.8 110.014 388.608 111.454 388.032V385.248H108.43C107.902 385.248 107.518 384.864 107.518 384.384V379.632C107.518 379.104 107.902 378.72 108.43 378.72H118.078C118.558 378.72 118.942 379.152 118.942 379.632L118.99 392.544C118.99 392.784 118.798 393.168 118.606 393.312C118.606 393.312 113.662 396.432 106.702 396.432C97.1502 396.432 89.4702 388.848 89.4702 379.248ZM125.573 395.088V363.312C125.573 362.832 125.957 362.4 126.485 362.4H140.837C146.597 362.4 151.301 367.056 151.301 372.768C151.301 377.184 148.373 380.736 144.197 382.416L150.773 394.608C151.109 395.232 150.773 396 149.957 396H143.573C143.189 396 142.901 395.76 142.805 395.568L136.421 382.848H133.109V395.088C133.109 395.568 132.677 396 132.197 396H126.485C125.957 396 125.573 395.568 125.573 395.088ZM133.109 376.752H140.213C142.181 376.752 143.861 374.928 143.861 372.912C143.861 370.896 142.181 369.264 140.213 369.264H133.109V376.752ZM154.226 396C153.506 396 153.122 395.376 153.41 394.752L168.434 362.448C168.578 362.16 168.914 361.92 169.25 361.92H169.73C170.066 361.92 170.402 362.16 170.546 362.448L185.57 394.752C185.858 395.376 185.474 396 184.754 396H179.426C178.562 396 178.178 395.712 177.746 394.8L176.018 391.008H162.962L161.234 394.848C160.994 395.424 160.466 396 159.506 396H154.226ZM165.842 384.48H173.138L169.49 376.56H169.442L165.842 384.48ZM192.096 395.088V369.456H185.232C184.704 369.456 184.32 369.024 184.32 368.544V363.312C184.32 362.832 184.704 362.4 185.232 362.4H206.544C207.072 362.4 207.456 362.832 207.456 363.312V368.544C207.456 369.024 207.072 369.456 206.544 369.456H199.68V395.088C199.68 395.568 199.248 396 198.768 396H193.008C192.528 396 192.096 395.568 192.096 395.088ZM212.245 395.088V363.312C212.245 362.832 212.677 362.4 213.157 362.4H218.917C219.397 362.4 219.829 362.832 219.829 363.312V395.088C219.829 395.568 219.397 396 218.917 396H213.157C212.677 396 212.245 395.568 212.245 395.088ZM226.409 392.784C225.929 392.304 225.785 392.112 226.169 391.44L228.425 387.456C228.809 386.832 229.721 386.928 230.057 387.168C230.249 387.264 233.705 389.808 236.873 389.808C238.793 389.808 240.185 388.608 240.185 386.928C240.185 384.912 238.505 383.376 235.241 382.08C231.113 380.448 225.929 377.232 225.929 371.472C225.929 366.72 229.625 361.92 237.017 361.92C242.009 361.92 245.849 364.464 247.289 365.52C247.865 365.856 247.769 366.72 247.577 367.056L245.129 370.752C244.793 371.28 243.929 371.712 243.497 371.376C243.065 371.136 239.561 368.496 236.633 368.496C234.905 368.496 233.609 369.648 233.609 370.944C233.609 372.72 235.049 374.064 238.841 375.6C242.585 377.088 248.537 380.016 248.537 386.544C248.537 391.488 244.265 396.48 237.209 396.48C230.969 396.48 227.513 393.888 226.409 392.784Z" fill="#DDBA60"/>
</svg>
