<svg width="339" height="483" viewBox="0 0 339 483" fill="none" xmlns="http://www.w3.org/2000/svg">
<rect width="338.114" height="482.498" fill="#061F0E"/>
<path d="M137.872 142.43V139.725C145.717 129.446 165.735 102.259 173.715 90.0859C175.473 87.3808 177.232 83.5936 177.232 79.8064C177.232 74.6667 172.904 70.0679 165.329 70.0679C159.784 70.0679 154.779 73.9904 152.209 76.8308C151.127 77.9128 149.504 77.9128 148.422 76.8308L140.172 68.4449C139.225 67.6333 139.089 66.0102 140.036 64.9282C140.036 64.9282 150.992 51.6731 167.088 51.6731C186.429 51.6731 197.791 63.9814 197.791 78.9949C197.791 86.1635 195.762 90.2211 192.516 96.5782C188.188 104.288 177.097 118.76 170.74 127.687H194.545C195.897 127.687 197.115 128.904 197.115 130.257V142.43C197.115 143.783 195.897 145 194.545 145H140.442C138.954 145 137.872 143.783 137.872 142.43Z" fill="white"/>
<path d="M63.4192 223.342C63.4192 214.942 70.1812 208.18 78.5812 208.18C82.7812 208.18 85.8892 209.482 88.7452 212.086C89.1232 212.422 89.1232 212.926 88.7872 213.262L85.5112 216.664C85.2172 216.958 84.7552 216.958 84.4612 216.664C82.9072 215.278 80.8492 214.522 78.7912 214.522C74.0452 214.522 70.5592 218.47 70.5592 223.174C70.5592 227.836 74.0872 231.7 78.8332 231.7C80.8072 231.7 82.9492 230.986 84.4612 229.684C84.7552 229.432 85.3012 229.432 85.5532 229.726L88.8292 233.212C89.1232 233.506 89.0812 234.052 88.7872 234.346C85.9312 237.118 82.3192 238.42 78.5812 238.42C70.1812 238.42 63.4192 231.742 63.4192 223.342ZM90.755 238C90.125 238 89.789 237.454 90.041 236.908L103.187 208.642C103.313 208.39 103.607 208.18 103.901 208.18H104.321C104.615 208.18 104.909 208.39 105.035 208.642L118.181 236.908C118.433 237.454 118.097 238 117.467 238H112.805C112.049 238 111.713 237.748 111.335 236.95L109.823 233.632H98.399L96.887 236.992C96.677 237.496 96.215 238 95.375 238H90.755ZM100.919 227.92H107.303L104.111 220.99H104.069L100.919 227.92ZM121.63 237.202L121.588 208.936C121.588 208.516 121.966 208.18 122.386 208.18H123.436L140.194 224.308H140.236V209.398C140.236 208.978 140.572 208.6 141.034 208.6H146.074C146.494 208.6 146.872 208.978 146.872 209.398V237.664C146.872 238.084 146.494 238.42 146.074 238.42H145.402C145.276 238.42 144.94 238.294 144.856 238.21L128.266 221.536H128.224V237.202C128.224 237.622 127.888 238 127.426 238H122.428C122.008 238 121.63 237.622 121.63 237.202ZM149.914 235.354C149.704 235.018 149.746 234.598 149.998 234.304L152.854 231.49C153.19 231.196 153.652 231.154 153.988 231.49C154.492 231.994 154.996 232.372 156.13 232.372C157.306 232.372 158.608 231.28 158.608 229.18V209.398C158.608 208.978 158.944 208.6 159.406 208.6H164.53C164.992 208.6 165.328 208.978 165.328 209.398V229.222C165.328 235.06 161.212 238.42 156.298 238.42C152.644 238.42 150.628 236.236 149.914 235.354ZM171.915 237.202V209.398C171.915 208.978 172.251 208.6 172.713 208.6H190.101C190.563 208.6 190.899 208.978 190.899 209.398V213.976C190.899 214.396 190.563 214.774 190.101 214.774H178.467V219.982H188.043C188.463 219.982 188.841 220.36 188.841 220.78V225.358C188.841 225.82 188.463 226.156 188.043 226.156H178.467V231.826H190.101C190.563 231.826 190.899 232.204 190.899 232.624V237.202C190.899 237.622 190.563 238 190.101 238H172.713C172.251 238 171.915 237.622 171.915 237.202ZM193.458 238C192.828 238 192.492 237.454 192.744 236.908L205.89 208.642C206.016 208.39 206.31 208.18 206.604 208.18H207.024C207.318 208.18 207.612 208.39 207.738 208.642L220.884 236.908C221.136 237.454 220.8 238 220.17 238H215.508C214.752 238 214.416 237.748 214.038 236.95L212.526 233.632H201.102L199.59 236.992C199.38 237.496 198.918 238 198.078 238H193.458ZM203.622 227.92H210.006L206.814 220.99H206.772L203.622 227.92ZM233.602 237.202V209.398C233.602 208.978 233.938 208.6 234.4 208.6H251.788C252.25 208.6 252.586 208.978 252.586 209.398V213.976C252.586 214.396 252.25 214.774 251.788 214.774H240.154V219.982H249.73C250.15 219.982 250.528 220.36 250.528 220.78V225.358C250.528 225.82 250.15 226.156 249.73 226.156H240.154V231.826H251.788C252.25 231.826 252.586 232.204 252.586 232.624V237.202C252.586 237.622 252.25 238 251.788 238H234.4C233.938 238 233.602 237.622 233.602 237.202ZM258.212 237.202V209.398C258.212 208.978 258.548 208.6 259.01 208.6H264.008C264.428 208.6 264.806 208.978 264.806 209.398V231.826H274.802C275.264 231.826 275.6 232.204 275.6 232.624V237.202C275.6 237.622 275.264 238 274.802 238H259.01C258.548 238 258.212 237.622 258.212 237.202ZM48.387 275.342C48.387 266.942 55.149 260.18 63.549 260.18C67.749 260.18 70.857 261.482 73.713 264.086C74.091 264.422 74.091 264.926 73.755 265.262L70.479 268.664C70.185 268.958 69.723 268.958 69.429 268.664C67.875 267.278 65.817 266.522 63.759 266.522C59.013 266.522 55.527 270.47 55.527 275.174C55.527 279.836 59.055 283.7 63.801 283.7C65.775 283.7 67.917 282.986 69.429 281.684C69.723 281.432 70.269 281.432 70.521 281.726L73.797 285.212C74.091 285.506 74.049 286.052 73.755 286.346C70.899 289.118 67.287 290.42 63.549 290.42C55.149 290.42 48.387 283.742 48.387 275.342ZM78.3688 278.744V261.398C78.3688 260.978 78.7468 260.6 79.1668 260.6H84.3328C84.7948 260.6 85.1308 260.978 85.1308 261.398V278.408C85.1308 281.348 87.3148 283.7 90.2968 283.7C93.3208 283.7 95.5468 281.348 95.5468 278.408V261.398C95.5468 260.978 95.8828 260.6 96.3448 260.6H101.511C101.931 260.6 102.309 260.978 102.309 261.398V278.744C102.309 285.128 96.9328 290.42 90.2968 290.42C83.7028 290.42 78.3688 285.128 78.3688 278.744ZM109.058 289.202V261.398C109.058 260.978 109.394 260.6 109.856 260.6H119.978C125.144 260.6 129.386 264.8 129.386 269.882C129.386 275.09 125.144 279.332 120.02 279.332H115.61V289.202C115.61 289.622 115.232 290 114.812 290H109.856C109.394 290 109.058 289.622 109.058 289.202ZM115.61 273.2H119.6C121.406 273.2 122.918 271.772 122.918 269.882C122.918 268.118 121.406 266.774 119.6 266.774H115.61V273.2ZM131.649 275.342C131.649 266.942 138.327 260.18 146.727 260.18C155.127 260.18 161.847 266.942 161.847 275.342C161.847 283.742 155.127 290.42 146.727 290.42C138.327 290.42 131.649 283.742 131.649 275.342ZM138.369 275.342C138.369 279.92 142.149 283.7 146.727 283.7C151.347 283.7 155.127 279.92 155.127 275.342C155.127 270.722 151.347 266.9 146.727 266.9C142.149 266.9 138.369 270.722 138.369 275.342ZM143.745 257.996C143.199 258.332 142.821 258.038 142.611 257.618L141.729 255.854C141.561 255.518 141.771 255.224 141.981 255.056L149.121 250.688C149.373 250.52 150.003 250.436 150.213 250.814L151.641 253.292C151.977 253.922 151.725 254.342 151.389 254.552L143.745 257.996ZM166.931 289.202L166.889 260.936C166.889 260.516 167.267 260.18 167.687 260.18H168.737L185.495 276.308H185.537V261.398C185.537 260.978 185.873 260.6 186.335 260.6H191.375C191.795 260.6 192.173 260.978 192.173 261.398V289.664C192.173 290.084 191.795 290.42 191.375 290.42H190.703C190.577 290.42 190.241 290.294 190.157 290.21L173.567 273.536H173.525V289.202C173.525 289.622 173.189 290 172.727 290H167.729C167.309 290 166.931 289.622 166.931 289.202ZM208.685 289.202V261.398C208.685 260.978 209.021 260.6 209.483 260.6H219.605C224.771 260.6 229.013 264.8 229.013 269.882C229.013 275.09 224.771 279.332 219.647 279.332H215.237V289.202C215.237 289.622 214.859 290 214.439 290H209.483C209.021 290 208.685 289.622 208.685 289.202ZM215.237 273.2H219.227C221.033 273.2 222.545 271.772 222.545 269.882C222.545 268.118 221.033 266.774 219.227 266.774H215.237V273.2ZM231.276 275.342C231.276 266.942 237.954 260.18 246.354 260.18C254.754 260.18 261.474 266.942 261.474 275.342C261.474 283.742 254.754 290.42 246.354 290.42C237.954 290.42 231.276 283.742 231.276 275.342ZM237.996 275.342C237.996 279.92 241.776 283.7 246.354 283.7C250.974 283.7 254.754 279.92 254.754 275.342C254.754 270.722 250.974 266.9 246.354 266.9C241.776 266.9 237.996 270.722 237.996 275.342ZM266.558 289.202V261.398C266.558 260.978 266.894 260.6 267.356 260.6H279.914C284.954 260.6 289.07 264.674 289.07 269.672C289.07 273.536 286.508 276.644 282.854 278.114L288.608 288.782C288.902 289.328 288.608 290 287.894 290H282.308C281.972 290 281.72 289.79 281.636 289.622L276.05 278.492H273.152V289.202C273.152 289.622 272.774 290 272.354 290H267.356C266.894 290 266.558 289.622 266.558 289.202ZM273.152 273.158H279.368C281.09 273.158 282.56 271.562 282.56 269.798C282.56 268.034 281.09 266.606 279.368 266.606H273.152V273.158ZM36.7133 341.202V318.774H30.7073C30.2453 318.774 29.9093 318.396 29.9093 317.976V313.398C29.9093 312.978 30.2453 312.6 30.7073 312.6H49.3553C49.8173 312.6 50.1533 312.978 50.1533 313.398V317.976C50.1533 318.396 49.8173 318.774 49.3553 318.774H43.3493V341.202C43.3493 341.622 42.9713 342 42.5513 342H37.5113C37.0913 342 36.7133 341.622 36.7133 341.202ZM53.9234 330.744V313.398C53.9234 312.978 54.3014 312.6 54.7214 312.6H59.8874C60.3494 312.6 60.6854 312.978 60.6854 313.398V330.408C60.6854 333.348 62.8694 335.7 65.8514 335.7C68.8754 335.7 71.1014 333.348 71.1014 330.408V313.398C71.1014 312.978 71.4374 312.6 71.8994 312.6H77.0654C77.4854 312.6 77.8634 312.978 77.8634 313.398V330.744C77.8634 337.128 72.4874 342.42 65.8514 342.42C59.2574 342.42 53.9234 337.128 53.9234 330.744ZM93.8825 341.202V313.398C93.8825 312.978 94.2185 312.6 94.6805 312.6H107.239C112.279 312.6 116.395 316.674 116.395 321.672C116.395 325.536 113.833 328.644 110.179 330.114L115.933 340.782C116.227 341.328 115.933 342 115.219 342H109.633C109.297 342 109.045 341.79 108.961 341.622L103.375 330.492H100.477V341.202C100.477 341.622 100.099 342 99.6785 342H94.6805C94.2185 342 93.8825 341.622 93.8825 341.202ZM100.477 325.158H106.693C108.415 325.158 109.885 323.562 109.885 321.798C109.885 320.034 108.415 318.606 106.693 318.606H100.477V325.158ZM122.019 341.202V313.398C122.019 312.978 122.355 312.6 122.817 312.6H140.205C140.667 312.6 141.003 312.978 141.003 313.398V317.976C141.003 318.396 140.667 318.774 140.205 318.774H128.571V323.982H138.147C138.567 323.982 138.945 324.36 138.945 324.78V329.358C138.945 329.82 138.567 330.156 138.147 330.156H128.571V335.826H140.205C140.667 335.826 141.003 336.204 141.003 336.624V341.202C141.003 341.622 140.667 342 140.205 342H122.817C122.355 342 122.019 341.622 122.019 341.202ZM144.487 327.342C144.487 318.942 151.249 312.18 159.649 312.18C163.849 312.18 166.957 313.482 169.813 316.086C170.191 316.422 170.191 316.926 169.855 317.262L166.579 320.664C166.285 320.958 165.823 320.958 165.529 320.664C163.975 319.278 161.917 318.522 159.859 318.522C155.113 318.522 151.627 322.47 151.627 327.174C151.627 331.836 155.155 335.7 159.901 335.7C161.875 335.7 164.017 334.986 165.529 333.684C165.823 333.432 166.369 333.432 166.621 333.726L169.897 337.212C170.191 337.506 170.149 338.052 169.855 338.346C166.999 341.118 163.387 342.42 159.649 342.42C151.249 342.42 144.487 335.742 144.487 327.342ZM171.822 342C171.192 342 170.856 341.454 171.108 340.908L184.254 312.642C184.38 312.39 184.674 312.18 184.968 312.18H185.388C185.682 312.18 185.976 312.39 186.102 312.642L199.248 340.908C199.5 341.454 199.164 342 198.534 342H193.872C193.116 342 192.78 341.748 192.402 340.95L190.89 337.632H179.466L177.954 340.992C177.744 341.496 177.282 342 176.442 342H171.822ZM181.986 331.92H188.37L185.178 324.99H185.136L181.986 331.92ZM200.849 341.076L205.595 312.852C205.637 312.474 206.015 312.18 206.351 312.18H207.023C207.233 312.18 207.611 312.348 207.737 312.6L217.481 330.744H217.565L227.309 312.6C227.435 312.348 227.813 312.18 228.023 312.18H228.695C229.031 312.18 229.409 312.474 229.451 312.852L234.197 341.076C234.281 341.622 233.903 342 233.399 342H228.443C228.065 342 227.687 341.664 227.645 341.328L225.755 328.35H225.671L218.615 341.958C218.489 342.21 218.111 342.42 217.901 342.42H217.145C216.893 342.42 216.557 342.21 216.431 341.958L209.333 328.35H209.249L207.401 341.328C207.359 341.664 207.023 342 206.603 342H201.647C201.143 342 200.765 341.622 200.849 341.076ZM239.57 341.202V313.398C239.57 312.978 239.906 312.6 240.368 312.6H250.154C255.11 312.6 259.184 316.002 259.184 320.412C259.184 323.646 256.286 325.998 254.312 327.048C256.538 327.972 259.94 330.03 259.94 333.894C259.94 338.598 255.782 342 250.784 342H240.368C239.906 342 239.57 341.622 239.57 341.202ZM246.122 324.528H249.398C250.994 324.528 252.338 323.184 252.338 321.504C252.338 319.824 250.994 318.648 249.398 318.648H246.122V324.528ZM246.122 335.994H249.944C251.582 335.994 252.968 334.65 252.968 332.928C252.968 331.248 251.162 329.988 249.524 329.988H246.122V335.994ZM265.287 341.202V313.398C265.287 312.978 265.665 312.6 266.085 312.6H271.125C271.545 312.6 271.923 312.978 271.923 313.398V341.202C271.923 341.622 271.545 342 271.125 342H266.085C265.665 342 265.287 341.622 265.287 341.202ZM277.008 327.342C277.008 318.942 283.686 312.18 292.086 312.18C300.486 312.18 307.206 318.942 307.206 327.342C307.206 335.742 300.486 342.42 292.086 342.42C283.686 342.42 277.008 335.742 277.008 327.342ZM283.728 327.342C283.728 331.92 287.508 335.7 292.086 335.7C296.706 335.7 300.486 331.92 300.486 327.342C300.486 322.722 296.706 318.9 292.086 318.9C287.508 318.9 283.728 322.722 283.728 327.342ZM18.9366 394C18.3066 394 17.9706 393.454 18.2226 392.908L31.3686 364.642C31.4946 364.39 31.7886 364.18 32.0826 364.18H32.5026C32.7966 364.18 33.0906 364.39 33.2166 364.642L46.3626 392.908C46.6146 393.454 46.2786 394 45.6486 394H40.9866C40.2306 394 39.8946 393.748 39.5166 392.95L38.0046 389.632H26.5806L25.0686 392.992C24.8586 393.496 24.3966 394 23.5566 394H18.9366ZM29.1006 383.92H35.4846L32.2926 376.99H32.2506L29.1006 383.92ZM49.8112 393.202V365.398C49.8112 364.978 50.1892 364.6 50.6092 364.6H55.6492C56.0692 364.6 56.4472 364.978 56.4472 365.398V393.202C56.4472 393.622 56.0692 394 55.6492 394H50.6092C50.1892 394 49.8112 393.622 49.8112 393.202ZM63.6745 393.202V365.398C63.6745 364.978 64.0105 364.6 64.4725 364.6H77.0305C82.0705 364.6 86.1865 368.674 86.1865 373.672C86.1865 377.536 83.6245 380.644 79.9705 382.114L85.7245 392.782C86.0185 393.328 85.7245 394 85.0105 394H79.4245C79.0885 394 78.8365 393.79 78.7525 393.622L73.1665 382.492H70.2685V393.202C70.2685 393.622 69.8905 394 69.4705 394H64.4725C64.0105 394 63.6745 393.622 63.6745 393.202ZM70.2685 377.158H76.4845C78.2065 377.158 79.6765 375.562 79.6765 373.798C79.6765 372.034 78.2065 370.606 76.4845 370.606H70.2685V377.158ZM106.415 393.832L98.4768 365.608C98.3088 365.02 98.6448 364.6 99.2328 364.6H104.147C104.483 364.6 104.819 364.894 104.903 365.188L108.515 379.426H108.683L115.193 364.642C115.319 364.39 115.571 364.18 115.907 364.18H116.663C117.041 364.18 117.293 364.39 117.377 364.642L123.887 379.426H124.055L127.667 365.188C127.751 364.894 128.087 364.6 128.423 364.6H133.337C133.925 364.6 134.261 365.02 134.093 365.608L126.155 393.832C126.071 394.168 125.735 394.42 125.399 394.42H124.727C124.433 394.42 124.139 394.21 124.013 393.958L116.327 376.78H116.201L108.557 393.958C108.431 394.21 108.137 394.42 107.843 394.42H107.171C106.835 394.42 106.499 394.168 106.415 393.832ZM138.61 393.202V365.398C138.61 364.978 138.988 364.6 139.408 364.6H144.448C144.868 364.6 145.246 364.978 145.246 365.398V393.202C145.246 393.622 144.868 394 144.448 394H139.408C138.988 394 138.61 393.622 138.61 393.202ZM150.331 379.342C150.331 370.942 157.093 364.18 165.493 364.18C169.693 364.18 172.801 365.482 175.657 368.086C176.035 368.422 176.035 368.926 175.699 369.262L172.423 372.664C172.129 372.958 171.667 372.958 171.373 372.664C169.819 371.278 167.761 370.522 165.703 370.522C160.957 370.522 157.471 374.47 157.471 379.174C157.471 383.836 160.999 387.7 165.745 387.7C167.719 387.7 169.861 386.986 171.373 385.684C171.667 385.432 172.213 385.432 172.465 385.726L175.741 389.212C176.035 389.506 175.993 390.052 175.699 390.346C172.843 393.118 169.231 394.42 165.493 394.42C157.093 394.42 150.331 387.742 150.331 379.342ZM180.733 392.992V365.608C180.733 365.062 181.153 364.6 181.741 364.6H186.655C187.201 364.6 187.663 365.062 187.663 365.608V376.654L196.987 365.02C197.155 364.81 197.533 364.6 197.785 364.6H203.077C203.875 364.6 204.295 365.524 203.833 366.154L194.005 378.46L204.715 392.404C205.177 393.034 204.715 393.958 203.917 393.958H198.121C197.827 393.958 197.449 393.79 197.365 393.664L187.663 380.476V392.992C187.663 393.538 187.201 394 186.655 394H181.741C181.153 394 180.733 393.538 180.733 392.992ZM215.196 394C214.566 394 214.23 393.454 214.482 392.908L227.628 364.642C227.754 364.39 228.048 364.18 228.342 364.18H228.762C229.056 364.18 229.35 364.39 229.476 364.642L242.622 392.908C242.874 393.454 242.538 394 241.908 394H237.246C236.49 394 236.154 393.748 235.776 392.95L234.264 389.632H222.84L221.328 392.992C221.118 393.496 220.656 394 219.816 394H215.196ZM225.36 383.92H231.744L228.552 376.99H228.51L225.36 383.92ZM243.683 379.342C243.683 370.942 250.361 364.18 258.761 364.18C267.161 364.18 273.881 370.942 273.881 379.342C273.881 384.802 270.731 389.758 266.111 392.572L271.529 401.056C271.865 401.644 271.529 402.316 270.857 402.316H265.187C264.851 402.316 264.641 402.106 264.515 401.896L260.063 394.378C259.559 394.42 259.055 394.42 258.761 394.42C250.361 394.42 243.683 387.742 243.683 379.342ZM250.403 379.342C250.403 383.92 254.183 387.7 258.761 387.7C263.381 387.7 267.161 383.92 267.161 379.342C267.161 374.722 263.381 370.9 258.761 370.9C254.183 370.9 250.403 374.722 250.403 379.342ZM278.669 382.744V365.398C278.669 364.978 279.047 364.6 279.467 364.6H284.633C285.095 364.6 285.431 364.978 285.431 365.398V382.408C285.431 385.348 287.615 387.7 290.597 387.7C293.621 387.7 295.847 385.348 295.847 382.408V365.398C295.847 364.978 296.183 364.6 296.645 364.6H301.811C302.231 364.6 302.609 364.978 302.609 365.398V382.744C302.609 389.128 297.233 394.42 290.597 394.42C284.003 394.42 278.669 389.128 278.669 382.744ZM309.358 393.202V365.398C309.358 364.978 309.736 364.6 310.156 364.6H315.196C315.616 364.6 315.994 364.978 315.994 365.398V393.202C315.994 393.622 315.616 394 315.196 394H310.156C309.736 394 309.358 393.622 309.358 393.202ZM309.694 361.996C309.148 362.332 308.77 362.038 308.56 361.618L307.678 359.854C307.51 359.518 307.72 359.224 307.93 359.056L315.07 354.688C315.322 354.52 315.952 354.436 316.162 354.814L317.59 357.292C317.926 357.922 317.674 358.342 317.338 358.552L309.694 361.996Z" fill="#DDBA60"/>
</svg>
