<svg width="339" height="483" viewBox="0 0 339 483" fill="none" xmlns="http://www.w3.org/2000/svg">
<rect width="338.114" height="482.498" fill="#061F0E"/>
<path d="M137.872 142.43V139.725C145.717 129.446 165.735 102.259 173.715 90.0859C175.473 87.3808 177.232 83.5936 177.232 79.8064C177.232 74.6667 172.904 70.0679 165.329 70.0679C159.784 70.0679 154.779 73.9904 152.209 76.8308C151.127 77.9128 149.504 77.9128 148.422 76.8308L140.172 68.4449C139.225 67.6333 139.089 66.0102 140.036 64.9282C140.036 64.9282 150.992 51.6731 167.088 51.6731C186.429 51.6731 197.791 63.9814 197.791 78.9949C197.791 86.1635 195.762 90.2211 192.516 96.5782C188.188 104.288 177.097 118.76 170.74 127.687H194.545C195.897 127.687 197.115 128.904 197.115 130.257V142.43C197.115 143.783 195.897 145 194.545 145H140.442C138.954 145 137.872 143.783 137.872 142.43Z" fill="white"/>
<path d="M71.6671 239.088V207.312C71.6671 206.832 72.0511 206.4 72.5791 206.4H86.9311C92.6911 206.4 97.3951 211.056 97.3951 216.768C97.3951 221.184 94.4671 224.736 90.2911 226.416L96.8671 238.608C97.2031 239.232 96.8671 240 96.0511 240H89.6671C89.2831 240 88.9951 239.76 88.8991 239.568L82.5151 226.848H79.2031V239.088C79.2031 239.568 78.7711 240 78.2911 240H72.5791C72.0511 240 71.6671 239.568 71.6671 239.088ZM79.2031 220.752H86.3071C88.2751 220.752 89.9551 218.928 89.9551 216.912C89.9551 214.896 88.2751 213.264 86.3071 213.264H79.2031V220.752ZM103.823 239.088V207.312C103.823 206.832 104.207 206.4 104.735 206.4H124.607C125.135 206.4 125.519 206.832 125.519 207.312V212.544C125.519 213.024 125.135 213.456 124.607 213.456H111.311V219.408H122.255C122.735 219.408 123.167 219.84 123.167 220.32V225.552C123.167 226.08 122.735 226.464 122.255 226.464H111.311V232.944H124.607C125.135 232.944 125.519 233.376 125.519 233.856V239.088C125.519 239.568 125.135 240 124.607 240H104.735C104.207 240 103.823 239.568 103.823 239.088ZM130.268 236.784C129.788 236.304 129.644 236.112 130.028 235.44L132.284 231.456C132.668 230.832 133.58 230.928 133.916 231.168C134.108 231.264 137.564 233.808 140.732 233.808C142.652 233.808 144.044 232.608 144.044 230.928C144.044 228.912 142.364 227.376 139.1 226.08C134.972 224.448 129.788 221.232 129.788 215.472C129.788 210.72 133.484 205.92 140.876 205.92C145.868 205.92 149.708 208.464 151.148 209.52C151.724 209.856 151.628 210.72 151.436 211.056L148.988 214.752C148.652 215.28 147.788 215.712 147.356 215.376C146.924 215.136 143.42 212.496 140.492 212.496C138.764 212.496 137.468 213.648 137.468 214.944C137.468 216.72 138.908 218.064 142.7 219.6C146.444 221.088 152.396 224.016 152.396 230.544C152.396 235.488 148.124 240.48 141.068 240.48C134.828 240.48 131.372 237.888 130.268 236.784ZM155.845 223.248C155.845 213.648 163.525 205.968 173.077 205.968C177.109 205.968 181.525 207.648 184.789 210.48C185.221 210.816 185.269 211.392 184.885 211.776L181.093 215.808C180.709 216.144 180.181 216.144 179.797 215.856C177.973 214.176 175.861 213.552 173.509 213.552C168.277 213.552 164.053 217.968 164.053 223.248C164.053 228.48 168.325 232.8 173.557 232.8C174.949 232.8 176.389 232.608 177.829 232.032V229.248H174.805C174.277 229.248 173.893 228.864 173.893 228.384V223.632C173.893 223.104 174.277 222.72 174.805 222.72H184.453C184.933 222.72 185.317 223.152 185.317 223.632L185.365 236.544C185.365 236.784 185.173 237.168 184.981 237.312C184.981 237.312 180.037 240.432 173.077 240.432C163.525 240.432 155.845 232.848 155.845 223.248ZM188.444 240C187.724 240 187.34 239.376 187.628 238.752L202.652 206.448C202.796 206.16 203.132 205.92 203.468 205.92H203.948C204.284 205.92 204.62 206.16 204.764 206.448L219.788 238.752C220.076 239.376 219.692 240 218.972 240H213.644C212.78 240 212.396 239.712 211.964 238.8L210.236 235.008H197.18L195.452 238.848C195.212 239.424 194.684 240 193.724 240H188.444ZM200.06 228.48H207.356L203.708 220.56H203.66L200.06 228.48ZM226.315 239.088V213.456H219.451C218.923 213.456 218.539 213.024 218.539 212.544V207.312C218.539 206.832 218.923 206.4 219.451 206.4H240.763C241.291 206.4 241.675 206.832 241.675 207.312V212.544C241.675 213.024 241.291 213.456 240.763 213.456H233.899V239.088C233.899 239.568 233.467 240 232.987 240H227.227C226.747 240 226.315 239.568 226.315 239.088ZM246.464 239.088V207.312C246.464 206.832 246.848 206.4 247.376 206.4H267.248C267.776 206.4 268.16 206.832 268.16 207.312V212.544C268.16 213.024 267.776 213.456 267.248 213.456H253.952V219.408H264.896C265.376 219.408 265.808 219.84 265.808 220.32V225.552C265.808 226.08 265.376 226.464 264.896 226.464H253.952V232.944H267.248C267.776 232.944 268.16 233.376 268.16 233.856V239.088C268.16 239.568 267.776 240 267.248 240H247.376C246.848 240 246.464 239.568 246.464 239.088ZM35.6084 292C34.8884 292 34.5044 291.376 34.7924 290.752L49.8164 258.448C49.9604 258.16 50.2964 257.92 50.6324 257.92H51.1124C51.4484 257.92 51.7844 258.16 51.9284 258.448L66.9524 290.752C67.2404 291.376 66.8564 292 66.1364 292H60.8084C59.9444 292 59.5604 291.712 59.1284 290.8L57.4004 287.008H44.3444L42.6164 290.848C42.3764 291.424 41.8484 292 40.8884 292H35.6084ZM47.2244 280.48H54.5204L50.8724 272.56H50.8244L47.2244 280.48ZM68.1644 275.248C68.1644 265.648 75.7964 257.92 85.3964 257.92C94.9964 257.92 102.676 265.648 102.676 275.248C102.676 281.488 99.0764 287.152 93.7964 290.368L99.9884 300.064C100.372 300.736 99.9884 301.504 99.2204 301.504H92.7404C92.3564 301.504 92.1164 301.264 91.9724 301.024L86.8844 292.432C86.3084 292.48 85.7324 292.48 85.3964 292.48C75.7964 292.48 68.1644 284.848 68.1644 275.248ZM75.8444 275.248C75.8444 280.48 80.1644 284.8 85.3964 284.8C90.6764 284.8 94.9964 280.48 94.9964 275.248C94.9964 269.968 90.6764 265.6 85.3964 265.6C80.1644 265.6 75.8444 269.968 75.8444 275.248ZM108.148 279.136V259.312C108.148 258.832 108.58 258.4 109.06 258.4H114.964C115.492 258.4 115.876 258.832 115.876 259.312V278.752C115.876 282.112 118.372 284.8 121.78 284.8C125.236 284.8 127.78 282.112 127.78 278.752V259.312C127.78 258.832 128.164 258.4 128.692 258.4H134.596C135.076 258.4 135.508 258.832 135.508 259.312V279.136C135.508 286.432 129.364 292.48 121.78 292.48C114.244 292.48 108.148 286.432 108.148 279.136ZM143.222 291.088V259.312C143.222 258.832 143.654 258.4 144.134 258.4H149.894C150.374 258.4 150.806 258.832 150.806 259.312V291.088C150.806 291.568 150.374 292 149.894 292H144.134C143.654 292 143.222 291.568 143.222 291.088ZM167.211 275.248C167.211 265.648 174.843 257.92 184.443 257.92C194.043 257.92 201.723 265.648 201.723 275.248C201.723 284.848 194.043 292.48 184.443 292.48C174.843 292.48 167.211 284.848 167.211 275.248ZM174.891 275.248C174.891 280.48 179.211 284.8 184.443 284.8C189.723 284.8 194.043 280.48 194.043 275.248C194.043 269.968 189.723 265.6 184.443 265.6C179.211 265.6 174.891 269.968 174.891 275.248ZM216.448 288.784C215.968 288.304 215.824 288.112 216.208 287.44L218.464 283.456C218.848 282.832 219.76 282.928 220.096 283.168C220.288 283.264 223.744 285.808 226.912 285.808C228.832 285.808 230.224 284.608 230.224 282.928C230.224 280.912 228.544 279.376 225.28 278.08C221.152 276.448 215.968 273.232 215.968 267.472C215.968 262.72 219.664 257.92 227.056 257.92C232.048 257.92 235.888 260.464 237.328 261.52C237.904 261.856 237.808 262.72 237.616 263.056L235.168 266.752C234.832 267.28 233.968 267.712 233.536 267.376C233.104 267.136 229.6 264.496 226.672 264.496C224.944 264.496 223.648 265.648 223.648 266.944C223.648 268.72 225.088 270.064 228.88 271.6C232.624 273.088 238.576 276.016 238.576 282.544C238.576 287.488 234.304 292.48 227.248 292.48C221.008 292.48 217.552 289.888 216.448 288.784ZM244.425 291.088V259.312C244.425 258.832 244.809 258.4 245.337 258.4H265.209C265.737 258.4 266.121 258.832 266.121 259.312V264.544C266.121 265.024 265.737 265.456 265.209 265.456H251.913V271.408H262.857C263.337 271.408 263.769 271.84 263.769 272.32V277.552C263.769 278.08 263.337 278.464 262.857 278.464H251.913V284.944H265.209C265.737 284.944 266.121 285.376 266.121 285.856V291.088C266.121 291.568 265.737 292 265.209 292H245.337C244.809 292 244.425 291.568 244.425 291.088ZM272.07 279.136V259.312C272.07 258.832 272.502 258.4 272.982 258.4H278.886C279.414 258.4 279.798 258.832 279.798 259.312V278.752C279.798 282.112 282.294 284.8 285.702 284.8C289.158 284.8 291.702 282.112 291.702 278.752V259.312C291.702 258.832 292.086 258.4 292.614 258.4H298.518C298.998 258.4 299.43 258.832 299.43 259.312V279.136C299.43 286.432 293.286 292.48 285.702 292.48C278.166 292.48 272.07 286.432 272.07 279.136ZM44.7959 344C44.0759 344 43.6919 343.376 43.9799 342.752L59.0039 310.448C59.1479 310.16 59.4839 309.92 59.8199 309.92H60.2999C60.6359 309.92 60.9719 310.16 61.1159 310.448L76.1399 342.752C76.4279 343.376 76.0439 344 75.3239 344H69.9959C69.1319 344 68.7479 343.712 68.3159 342.8L66.5879 339.008H53.5319L51.8039 342.848C51.5639 343.424 51.0359 344 50.0759 344H44.7959ZM56.4119 332.48H63.7079L60.0599 324.56H60.0119L56.4119 332.48ZM80.0811 343.088V311.312C80.0811 310.832 80.4651 310.4 80.9931 310.4H92.5611C98.4651 310.4 103.313 315.2 103.313 321.008C103.313 326.96 98.4651 331.808 92.6091 331.808H87.5691V343.088C87.5691 343.568 87.1371 344 86.6571 344H80.9931C80.4651 344 80.0811 343.568 80.0811 343.088ZM87.5691 324.8H92.1291C94.1931 324.8 95.9211 323.168 95.9211 321.008C95.9211 318.992 94.1931 317.456 92.1291 317.456H87.5691V324.8ZM102.921 344C102.201 344 101.817 343.376 102.105 342.752L117.129 310.448C117.273 310.16 117.609 309.92 117.945 309.92H118.425C118.761 309.92 119.097 310.16 119.241 310.448L134.265 342.752C134.553 343.376 134.169 344 133.449 344H128.121C127.257 344 126.873 343.712 126.441 342.8L124.713 339.008H111.657L109.929 342.848C109.689 343.424 109.161 344 108.201 344H102.921ZM114.537 332.48H121.833L118.185 324.56H118.137L114.537 332.48ZM138.206 343.088V311.312C138.206 310.832 138.59 310.4 139.118 310.4H153.47C159.23 310.4 163.934 315.056 163.934 320.768C163.934 325.184 161.006 328.736 156.83 330.416L163.406 342.608C163.742 343.232 163.406 344 162.59 344H156.206C155.822 344 155.534 343.76 155.438 343.568L149.054 330.848H145.742V343.088C145.742 343.568 145.31 344 144.83 344H139.118C138.59 344 138.206 343.568 138.206 343.088ZM145.742 324.752H152.846C154.814 324.752 156.494 322.928 156.494 320.912C156.494 318.896 154.814 317.264 152.846 317.264H145.742V324.752ZM170.362 343.088V311.312C170.362 310.832 170.746 310.4 171.274 310.4H191.146C191.674 310.4 192.058 310.832 192.058 311.312V316.544C192.058 317.024 191.674 317.456 191.146 317.456H177.85V323.408H188.794C189.274 323.408 189.706 323.84 189.706 324.32V329.552C189.706 330.08 189.274 330.464 188.794 330.464H177.85V336.944H191.146C191.674 336.944 192.058 337.376 192.058 337.856V343.088C192.058 343.568 191.674 344 191.146 344H171.274C170.746 344 170.362 343.568 170.362 343.088ZM198.487 343.088V311.312C198.487 310.832 198.871 310.4 199.399 310.4H205.111C205.591 310.4 206.023 310.832 206.023 311.312V336.944H217.447C217.975 336.944 218.359 337.376 218.359 337.856V343.088C218.359 343.568 217.975 344 217.447 344H199.399C198.871 344 198.487 343.568 198.487 343.088ZM223.003 343.088V311.312C223.003 310.832 223.435 310.4 223.915 310.4H229.627C230.155 310.4 230.539 310.832 230.539 311.312V323.408H244.267V311.312C244.267 310.832 244.651 310.4 245.179 310.4H250.891C251.371 310.4 251.803 310.832 251.803 311.312V343.088C251.803 343.568 251.371 344 250.891 344H245.179C244.651 344 244.267 343.568 244.267 343.088V330.464H230.539V343.088C230.539 343.568 230.155 344 229.627 344H223.915C223.435 344 223.003 343.568 223.003 343.088ZM257.633 327.248C257.633 317.648 265.265 309.92 274.865 309.92C284.465 309.92 292.145 317.648 292.145 327.248C292.145 336.848 284.465 344.48 274.865 344.48C265.265 344.48 257.633 336.848 257.633 327.248ZM265.313 327.248C265.313 332.48 269.633 336.8 274.865 336.8C280.145 336.8 284.465 332.48 284.465 327.248C284.465 321.968 280.145 317.6 274.865 317.6C269.633 317.6 265.313 321.968 265.313 327.248ZM89.4702 379.248C89.4702 369.648 97.1502 361.968 106.702 361.968C110.734 361.968 115.15 363.648 118.414 366.48C118.846 366.816 118.894 367.392 118.51 367.776L114.718 371.808C114.334 372.144 113.806 372.144 113.422 371.856C111.598 370.176 109.486 369.552 107.134 369.552C101.902 369.552 97.6782 373.968 97.6782 379.248C97.6782 384.48 101.95 388.8 107.182 388.8C108.574 388.8 110.014 388.608 111.454 388.032V385.248H108.43C107.902 385.248 107.518 384.864 107.518 384.384V379.632C107.518 379.104 107.902 378.72 108.43 378.72H118.078C118.558 378.72 118.942 379.152 118.942 379.632L118.99 392.544C118.99 392.784 118.798 393.168 118.606 393.312C118.606 393.312 113.662 396.432 106.702 396.432C97.1502 396.432 89.4702 388.848 89.4702 379.248ZM125.573 395.088V363.312C125.573 362.832 125.957 362.4 126.485 362.4H140.837C146.597 362.4 151.301 367.056 151.301 372.768C151.301 377.184 148.373 380.736 144.197 382.416L150.773 394.608C151.109 395.232 150.773 396 149.957 396H143.573C143.189 396 142.901 395.76 142.805 395.568L136.421 382.848H133.109V395.088C133.109 395.568 132.677 396 132.197 396H126.485C125.957 396 125.573 395.568 125.573 395.088ZM133.109 376.752H140.213C142.181 376.752 143.861 374.928 143.861 372.912C143.861 370.896 142.181 369.264 140.213 369.264H133.109V376.752ZM154.226 396C153.506 396 153.122 395.376 153.41 394.752L168.434 362.448C168.578 362.16 168.914 361.92 169.25 361.92H169.73C170.066 361.92 170.402 362.16 170.546 362.448L185.57 394.752C185.858 395.376 185.474 396 184.754 396H179.426C178.562 396 178.178 395.712 177.746 394.8L176.018 391.008H162.962L161.234 394.848C160.994 395.424 160.466 396 159.506 396H154.226ZM165.842 384.48H173.138L169.49 376.56H169.442L165.842 384.48ZM166.082 359.424C165.458 359.808 165.026 359.472 164.786 358.992L163.778 356.976C163.586 356.592 163.826 356.256 164.066 356.064L172.226 351.072C172.514 350.88 173.234 350.784 173.474 351.216L175.106 354.048C175.49 354.768 175.202 355.248 174.818 355.488L166.082 359.424ZM192.096 395.088V369.456H185.232C184.704 369.456 184.32 369.024 184.32 368.544V363.312C184.32 362.832 184.704 362.4 185.232 362.4H206.544C207.072 362.4 207.456 362.832 207.456 363.312V368.544C207.456 369.024 207.072 369.456 206.544 369.456H199.68V395.088C199.68 395.568 199.248 396 198.768 396H193.008C192.528 396 192.096 395.568 192.096 395.088ZM212.245 395.088V363.312C212.245 362.832 212.677 362.4 213.157 362.4H218.917C219.397 362.4 219.829 362.832 219.829 363.312V395.088C219.829 395.568 219.397 396 218.917 396H213.157C212.677 396 212.245 395.568 212.245 395.088ZM226.409 392.784C225.929 392.304 225.785 392.112 226.169 391.44L228.425 387.456C228.809 386.832 229.721 386.928 230.057 387.168C230.249 387.264 233.705 389.808 236.873 389.808C238.793 389.808 240.185 388.608 240.185 386.928C240.185 384.912 238.505 383.376 235.241 382.08C231.113 380.448 225.929 377.232 225.929 371.472C225.929 366.72 229.625 361.92 237.017 361.92C242.009 361.92 245.849 364.464 247.289 365.52C247.865 365.856 247.769 366.72 247.577 367.056L245.129 370.752C244.793 371.28 243.929 371.712 243.497 371.376C243.065 371.136 239.561 368.496 236.633 368.496C234.905 368.496 233.609 369.648 233.609 370.944C233.609 372.72 235.049 374.064 238.841 375.6C242.585 377.088 248.537 380.016 248.537 386.544C248.537 391.488 244.265 396.48 237.209 396.48C230.969 396.48 227.513 393.888 226.409 392.784Z" fill="#DDBA60"/>
</svg>
