<svg width="339" height="483" viewBox="0 0 339 483" fill="none" xmlns="http://www.w3.org/2000/svg">
<path d="M0 0H338.114V482.498H0V0Z" fill="#182D1B"/>
<path d="M83.3977 223.55C83.3977 213.55 91.3977 205.55 101.348 205.55C105.548 205.55 110.148 207.3 113.548 210.25C113.998 210.6 114.048 211.2 113.648 211.6L109.698 215.8C109.298 216.15 108.748 216.15 108.348 215.85C106.448 214.1 104.248 213.45 101.798 213.45C96.3477 213.45 91.9477 218.05 91.9477 223.55C91.9477 229 96.3977 233.5 101.848 233.5C103.298 233.5 104.798 233.3 106.298 232.7V229.8H103.148C102.598 229.8 102.198 229.4 102.198 228.9V223.95C102.198 223.4 102.598 223 103.148 223H113.198C113.698 223 114.098 223.45 114.098 223.95L114.148 237.4C114.148 237.65 113.948 238.05 113.748 238.2C113.748 238.2 108.598 241.45 101.348 241.45C91.3977 241.45 83.3977 233.55 83.3977 223.55ZM117.355 241C116.605 241 116.205 240.35 116.505 239.7L132.155 206.05C132.305 205.75 132.655 205.5 133.005 205.5H133.505C133.855 205.5 134.205 205.75 134.355 206.05L150.005 239.7C150.305 240.35 149.905 241 149.155 241H143.605C142.705 241 142.305 240.7 141.855 239.75L140.055 235.8H126.455L124.655 239.8C124.405 240.4 123.855 241 122.855 241H117.355ZM129.455 229H137.055L133.255 220.75H133.205L129.455 229ZM154.111 240.05L154.061 206.4C154.061 205.9 154.511 205.5 155.011 205.5H156.261L176.211 224.7H176.261V206.95C176.261 206.45 176.661 206 177.211 206H183.211C183.711 206 184.161 206.45 184.161 206.95V240.6C184.161 241.1 183.711 241.5 183.211 241.5H182.411C182.261 241.5 181.861 241.35 181.761 241.25L162.011 221.4H161.961V240.05C161.961 240.55 161.561 241 161.011 241H155.061C154.561 241 154.111 240.55 154.111 240.05ZM192.782 240.05V206.95C192.782 206.45 193.232 206 193.732 206H199.682C200.232 206 200.632 206.45 200.632 206.95V219.55H214.932V206.95C214.932 206.45 215.332 206 215.882 206H221.832C222.332 206 222.782 206.45 222.782 206.95V240.05C222.782 240.55 222.332 241 221.832 241H215.882C215.332 241 214.932 240.55 214.932 240.05V226.9H200.632V240.05C200.632 240.55 200.232 241 199.682 241H193.732C193.232 241 192.782 240.55 192.782 240.05ZM231.405 240.05V206.95C231.405 206.45 231.805 206 232.355 206H253.055C253.605 206 254.005 206.45 254.005 206.95V212.4C254.005 212.9 253.605 213.35 253.055 213.35H239.205V219.55H250.605C251.105 219.55 251.555 220 251.555 220.5V225.95C251.555 226.5 251.105 226.9 250.605 226.9H239.205V233.65H253.055C253.605 233.65 254.005 234.1 254.005 234.6V240.05C254.005 240.55 253.605 241 253.055 241H232.355C231.805 241 231.405 240.55 231.405 240.05Z" fill="white"/>
<path d="M137.621 134.315C136.809 133.368 136.945 131.88 137.756 130.933L146.277 122.412C147.224 121.465 148.577 121.33 149.659 122.142C149.659 122.142 158.045 128.363 164.537 128.363C170.353 128.363 176.304 123.494 176.304 117.543C176.304 111.592 170.218 106.587 160.209 106.587H152.634C151.282 106.587 150.064 105.37 150.064 104.017V92.791C150.064 91.3032 151.282 90.2211 152.634 90.2211H160.209C169.677 90.2211 174.681 85.6224 174.681 79.8064C174.681 73.9904 169.677 69.6622 163.861 69.6622C157.909 69.6622 154.122 72.7731 152.093 75.0724C151.146 76.1545 149.523 76.1545 148.441 75.2077L140.191 67.0923C139.109 66.1455 139.244 64.5224 140.191 63.5756C140.191 63.5756 151.282 51.6731 166.025 51.6731C181.714 51.6731 195.24 61.2763 195.24 76.425C195.24 86.8397 187.395 94.5494 181.309 97.3897V97.7955C187.666 100.501 197.675 108.887 197.675 120.519C197.675 135.262 184.825 146.353 166.16 146.353C149.118 146.353 140.461 137.967 137.621 134.315Z" fill="white"/>
<path d="M37.0814 411.297V386.803C37.0814 386.433 37.3774 386.1 37.7474 386.1H46.7754C53.9164 386.1 59.7624 391.909 59.7624 399.013C59.7624 406.191 53.9164 412 46.7754 412H37.7474C37.3774 412 37.0814 411.667 37.0814 411.297ZM42.8534 406.524H46.4054C50.5864 406.524 53.6204 403.231 53.6204 399.013C53.6204 394.832 50.5864 391.539 46.4054 391.539H42.8534V406.524ZM64.2894 411.297V386.803C64.2894 386.433 64.5854 386.1 64.9924 386.1H80.3104C80.7174 386.1 81.0134 386.433 81.0134 386.803V390.836C81.0134 391.206 80.7174 391.539 80.3104 391.539H70.0614V396.127H78.4974C78.8674 396.127 79.2004 396.46 79.2004 396.83V400.863C79.2004 401.27 78.8674 401.566 78.4974 401.566H70.0614V406.561H80.3104C80.7174 406.561 81.0134 406.894 81.0134 407.264V411.297C81.0134 411.667 80.7174 412 80.3104 412H64.9924C64.5854 412 64.2894 411.667 64.2894 411.297ZM94.1351 411.297V386.803C94.1351 386.433 94.4311 386.1 94.8011 386.1H103.829C110.97 386.1 116.816 391.909 116.816 399.013C116.816 406.191 110.97 412 103.829 412H94.8011C94.4311 412 94.1351 411.667 94.1351 411.297ZM99.9071 406.524H103.459C107.64 406.524 110.674 403.231 110.674 399.013C110.674 394.832 107.64 391.539 103.459 391.539H99.9071V406.524ZM121.343 411.297V386.803C121.343 386.433 121.639 386.1 122.046 386.1H137.364C137.771 386.1 138.067 386.433 138.067 386.803V390.836C138.067 391.206 137.771 391.539 137.364 391.539H127.115V396.127H135.551C135.921 396.127 136.254 396.46 136.254 396.83V400.863C136.254 401.27 135.921 401.566 135.551 401.566H127.115V406.561H137.364C137.771 406.561 138.067 406.894 138.067 407.264V411.297C138.067 411.667 137.771 412 137.364 412H122.046C121.639 412 121.343 411.667 121.343 411.297ZM141.728 409.521C141.358 409.151 141.247 409.003 141.543 408.485L143.282 405.414C143.578 404.933 144.281 405.007 144.54 405.192C144.688 405.266 147.352 407.227 149.794 407.227C151.274 407.227 152.347 406.302 152.347 405.007C152.347 403.453 151.052 402.269 148.536 401.27C145.354 400.012 141.358 397.533 141.358 393.093C141.358 389.43 144.207 385.73 149.905 385.73C153.753 385.73 156.713 387.691 157.823 388.505C158.267 388.764 158.193 389.43 158.045 389.689L156.158 392.538C155.899 392.945 155.233 393.278 154.9 393.019C154.567 392.834 151.866 390.799 149.609 390.799C148.277 390.799 147.278 391.687 147.278 392.686C147.278 394.055 148.388 395.091 151.311 396.275C154.197 397.422 158.785 399.679 158.785 404.711C158.785 408.522 155.492 412.37 150.053 412.37C145.243 412.37 142.579 410.372 141.728 409.521ZM161.406 399.087C161.406 391.687 167.363 385.73 174.763 385.73C178.463 385.73 181.201 386.877 183.717 389.171C184.05 389.467 184.05 389.911 183.754 390.207L180.868 393.204C180.609 393.463 180.202 393.463 179.943 393.204C178.574 391.983 176.761 391.317 174.948 391.317C170.767 391.317 167.696 394.795 167.696 398.939C167.696 403.046 170.804 406.45 174.985 406.45C176.724 406.45 178.611 405.821 179.943 404.674C180.202 404.452 180.683 404.452 180.905 404.711L183.791 407.782C184.05 408.041 184.013 408.522 183.754 408.781C181.238 411.223 178.056 412.37 174.763 412.37C167.363 412.37 161.406 406.487 161.406 399.087ZM186.193 399.087C186.193 391.687 192.076 385.73 199.476 385.73C206.876 385.73 212.796 391.687 212.796 399.087C212.796 406.487 206.876 412.37 199.476 412.37C192.076 412.37 186.193 406.487 186.193 399.087ZM192.113 399.087C192.113 403.12 195.443 406.45 199.476 406.45C203.546 406.45 206.876 403.12 206.876 399.087C206.876 395.017 203.546 391.65 199.476 391.65C195.443 391.65 192.113 395.017 192.113 399.087ZM217.276 411.297L217.239 386.396C217.239 386.026 217.572 385.73 217.942 385.73H218.867L233.63 399.938H233.667V386.803C233.667 386.433 233.963 386.1 234.37 386.1H238.81C239.18 386.1 239.513 386.433 239.513 386.803V411.704C239.513 412.074 239.18 412.37 238.81 412.37H238.218C238.107 412.37 237.811 412.259 237.737 412.185L223.122 397.496H223.085V411.297C223.085 411.667 222.789 412 222.382 412H217.979C217.609 412 217.276 411.667 217.276 411.297ZM249.223 411.297V391.539H243.932C243.525 391.539 243.229 391.206 243.229 390.836V386.803C243.229 386.433 243.525 386.1 243.932 386.1H260.36C260.767 386.1 261.063 386.433 261.063 386.803V390.836C261.063 391.206 260.767 391.539 260.36 391.539H255.069V411.297C255.069 411.667 254.736 412 254.366 412H249.926C249.556 412 249.223 411.667 249.223 411.297ZM262.723 399.087C262.723 391.687 268.606 385.73 276.006 385.73C283.406 385.73 289.326 391.687 289.326 399.087C289.326 406.487 283.406 412.37 276.006 412.37C268.606 412.37 262.723 406.487 262.723 399.087ZM268.643 399.087C268.643 403.12 271.973 406.45 276.006 406.45C280.076 406.45 283.406 403.12 283.406 399.087C283.406 395.017 280.076 391.65 276.006 391.65C271.973 391.65 268.643 395.017 268.643 399.087ZM296.543 399.161C296.173 399.161 295.84 398.828 295.84 398.458L295.914 395.128L293.176 397.015C292.88 397.237 292.399 397.126 292.214 396.83L291.4 395.535C291.178 395.202 291.215 394.758 291.585 394.536L294.767 392.649L291.585 390.725C291.252 390.503 291.178 390.059 291.363 389.726C291.733 389.171 291.955 388.838 292.251 388.431C292.473 388.172 292.88 388.061 293.176 388.283L295.914 390.17L295.84 386.803C295.84 386.433 296.173 386.1 296.543 386.1H298.06C298.43 386.1 298.763 386.433 298.763 386.803L298.689 390.17L301.464 388.283C301.76 388.098 302.241 388.172 302.426 388.468L303.24 389.726C303.462 390.059 303.425 390.54 303.055 390.762L299.873 392.649L303.055 394.573C303.425 394.795 303.462 395.239 303.277 395.535L302.352 396.83C302.167 397.126 301.723 397.2 301.427 397.015L298.689 395.165L298.763 398.458C298.763 398.828 298.43 399.161 298.06 399.161H296.543Z" fill="white"/>
<path d="M61.7309 360.419V299.294H48.6909C47.3326 299.294 46.2459 298.072 46.2459 296.713V288.156C46.2459 287.613 46.6534 286.526 47.0609 286.118L66.8926 270.633H79.3893C80.7476 270.633 81.8343 271.856 81.8343 273.214V360.419C81.8343 361.777 80.7476 363 79.3893 363H64.3118C62.8176 363 61.7309 361.777 61.7309 360.419ZM97.3224 351.59C97.3224 344.527 103.163 338.55 110.091 338.55C117.154 338.55 123.131 344.527 123.131 351.59C123.131 358.518 117.154 364.358 110.091 364.358C103.163 364.358 97.3224 358.518 97.3224 351.59ZM133.881 353.084C132.115 351.047 131.979 350.096 133.609 348.466L142.167 340.044C142.982 339.229 144.34 338.958 145.427 339.637C145.427 339.637 155.071 346.157 161.591 346.157C168.926 346.157 174.495 340.723 174.495 333.252C174.495 325.918 169.333 320.077 160.504 320.077H139.586C136.869 320.077 135.375 317.496 135.375 315.323V273.214C135.375 271.856 136.462 270.633 137.956 270.633H181.694C183.188 270.633 184.275 271.856 184.275 273.214V285.168C184.275 286.526 183.188 287.748 181.694 287.748H153.712V302.282H163.357C182.102 302.282 194.327 315.458 194.327 333.252C194.327 350.232 179.792 364.358 160.776 364.358C146.649 364.358 137.277 357.159 133.881 353.084ZM203.61 329.313C202.252 329.313 201.165 328.091 201.165 326.732V324.423C201.165 323.065 202.252 321.843 203.61 321.843H208.772C208.5 319.805 208.5 317.768 208.5 315.594C208.5 314.779 208.5 313.828 208.5 313.013H203.61C202.252 313.013 201.165 311.791 201.165 310.432V308.123C201.165 306.765 202.252 305.543 203.61 305.543H209.451C214.069 283.266 233.765 266.558 257.536 266.558C271.119 266.558 281.171 270.769 290.407 279.191C291.63 280.277 291.63 281.908 290.543 282.994L279.948 293.997C278.997 294.947 277.503 294.947 276.552 293.997C271.527 289.514 264.871 287.069 258.215 287.069C246.126 287.069 236.753 294.947 233.086 305.543H261.611C263.105 305.543 264.192 306.765 264.192 308.123V310.704C264.192 312.062 263.105 313.149 261.611 313.149H231.592C231.592 313.828 231.592 314.372 231.592 315.051C231.592 317.36 231.863 319.669 232.407 321.843H256.177C257.672 321.843 258.758 323.065 258.758 324.423V326.868C258.758 328.227 257.672 329.313 256.177 329.313H235.259C239.877 337.327 248.299 342.625 258.351 342.625C264.735 342.625 271.662 340.316 276.552 336.105C277.503 335.29 279.269 335.29 280.084 336.241L290.679 347.515C291.63 348.466 291.494 350.232 290.543 351.182C281.307 360.147 269.625 364.358 257.536 364.358C235.123 364.358 216.242 349.688 210.402 329.313H203.61Z" fill="white"/>
</svg>
