<svg width="339" height="483" viewBox="0 0 339 483" fill="none" xmlns="http://www.w3.org/2000/svg">
<path d="M0 0H338.114V482.498H0V0Z" fill="#182D1B"/>
<path d="M100.805 223.55C100.805 213.55 108.805 205.55 118.755 205.55C122.955 205.55 127.555 207.3 130.955 210.25C131.405 210.6 131.455 211.2 131.055 211.6L127.105 215.8C126.705 216.15 126.155 216.15 125.755 215.85C123.855 214.1 121.655 213.45 119.205 213.45C113.755 213.45 109.355 218.05 109.355 223.55C109.355 229 113.805 233.5 119.255 233.5C120.705 233.5 122.205 233.3 123.705 232.7V229.8H120.555C120.005 229.8 119.605 229.4 119.605 228.9V223.95C119.605 223.4 120.005 223 120.555 223H130.605C131.105 223 131.505 223.45 131.505 223.95L131.555 237.4C131.555 237.65 131.355 238.05 131.155 238.2C131.155 238.2 126.005 241.45 118.755 241.45C108.805 241.45 100.805 233.55 100.805 223.55ZM134.762 241C134.012 241 133.612 240.35 133.912 239.7L149.562 206.05C149.712 205.75 150.062 205.5 150.412 205.5H150.912C151.262 205.5 151.612 205.75 151.762 206.05L167.412 239.7C167.712 240.35 167.312 241 166.562 241H161.012C160.112 241 159.712 240.7 159.262 239.75L157.462 235.8H143.862L142.062 239.8C141.812 240.4 141.262 241 140.262 241H134.762ZM146.862 229H154.462L150.662 220.75H150.612L146.862 229ZM171.518 240.05L171.468 206.4C171.468 205.9 171.918 205.5 172.418 205.5H173.668L193.618 224.7H193.668V206.95C193.668 206.45 194.068 206 194.618 206H200.618C201.118 206 201.568 206.45 201.568 206.95V240.6C201.568 241.1 201.118 241.5 200.618 241.5H199.818C199.668 241.5 199.268 241.35 199.168 241.25L179.418 221.4H179.368V240.05C179.368 240.55 178.968 241 178.418 241H172.468C171.968 241 171.518 240.55 171.518 240.05ZM206.54 241C205.79 241 205.39 240.35 205.69 239.7L221.34 206.05C221.49 205.75 221.84 205.5 222.19 205.5H222.69C223.04 205.5 223.39 205.75 223.54 206.05L239.19 239.7C239.49 240.35 239.09 241 238.34 241H232.79C231.89 241 231.49 240.7 231.04 239.75L229.24 235.8H215.64L213.84 239.8C213.59 240.4 213.04 241 212.04 241H206.54ZM218.64 229H226.24L222.44 220.75H222.39L218.64 229Z" fill="white"/>
<path d="M31.5419 419.145V389.355C31.5419 388.905 31.9019 388.5 32.3519 388.5H43.3319C52.0169 388.5 59.1269 395.565 59.1269 404.205C59.1269 412.935 52.0169 420 43.3319 420H32.3519C31.9019 420 31.5419 419.595 31.5419 419.145ZM38.5619 413.34H42.8819C47.9669 413.34 51.6569 409.335 51.6569 404.205C51.6569 399.12 47.9669 395.115 42.8819 395.115H38.5619V413.34ZM64.6327 419.145V389.355C64.6327 388.905 64.9927 388.5 65.4877 388.5H84.1177C84.6127 388.5 84.9727 388.905 84.9727 389.355V394.26C84.9727 394.71 84.6127 395.115 84.1177 395.115H71.6527V400.695H81.9127C82.3627 400.695 82.7677 401.1 82.7677 401.55V406.455C82.7677 406.95 82.3627 407.31 81.9127 407.31H71.6527V413.385H84.1177C84.6127 413.385 84.9727 413.79 84.9727 414.24V419.145C84.9727 419.595 84.6127 420 84.1177 420H65.4877C64.9927 420 64.6327 419.595 64.6327 419.145ZM89.4249 416.985C88.9749 416.535 88.8399 416.355 89.1999 415.725L91.3149 411.99C91.6749 411.405 92.5299 411.495 92.8449 411.72C93.0249 411.81 96.2649 414.195 99.2349 414.195C101.035 414.195 102.34 413.07 102.34 411.495C102.34 409.605 100.765 408.165 97.7049 406.95C93.8349 405.42 88.9749 402.405 88.9749 397.005C88.9749 392.55 92.4399 388.05 99.3699 388.05C104.05 388.05 107.65 390.435 109 391.425C109.54 391.74 109.45 392.55 109.27 392.865L106.975 396.33C106.66 396.825 105.85 397.23 105.445 396.915C105.04 396.69 101.755 394.215 99.0099 394.215C97.3899 394.215 96.1749 395.295 96.1749 396.51C96.1749 398.175 97.5249 399.435 101.08 400.875C104.59 402.27 110.17 405.015 110.17 411.135C110.17 415.77 106.165 420.45 99.5499 420.45C93.6999 420.45 90.4599 418.02 89.4249 416.985ZM113.358 404.295C113.358 395.295 120.603 388.05 129.603 388.05C134.103 388.05 137.433 389.445 140.493 392.235C140.898 392.595 140.898 393.135 140.538 393.495L137.028 397.14C136.713 397.455 136.218 397.455 135.903 397.14C134.238 395.655 132.033 394.845 129.828 394.845C124.743 394.845 121.008 399.075 121.008 404.115C121.008 409.11 124.788 413.25 129.873 413.25C131.988 413.25 134.283 412.485 135.903 411.09C136.218 410.82 136.803 410.82 137.073 411.135L140.583 414.87C140.898 415.185 140.853 415.77 140.538 416.085C137.478 419.055 133.608 420.45 129.603 420.45C120.603 420.45 113.358 413.295 113.358 404.295ZM145.482 407.94V389.355C145.482 388.905 145.887 388.5 146.337 388.5H151.872C152.367 388.5 152.727 388.905 152.727 389.355V407.58C152.727 410.73 155.067 413.25 158.262 413.25C161.502 413.25 163.887 410.73 163.887 407.58V389.355C163.887 388.905 164.247 388.5 164.742 388.5H170.277C170.727 388.5 171.132 388.905 171.132 389.355V407.94C171.132 414.78 165.372 420.45 158.262 420.45C151.197 420.45 145.482 414.78 145.482 407.94ZM178.363 419.145V389.355C178.363 388.905 178.723 388.5 179.218 388.5H197.848C198.343 388.5 198.703 388.905 198.703 389.355V394.26C198.703 394.71 198.343 395.115 197.848 395.115H185.383V400.695H195.643C196.093 400.695 196.498 401.1 196.498 401.55V406.455C196.498 406.95 196.093 407.31 195.643 407.31H185.383V413.385H197.848C198.343 413.385 198.703 413.79 198.703 414.24V419.145C198.703 419.595 198.343 420 197.848 420H179.218C178.723 420 178.363 419.595 178.363 419.145ZM204.73 419.145L204.685 388.86C204.685 388.41 205.09 388.05 205.54 388.05H206.665L224.62 405.33H224.665V389.355C224.665 388.905 225.025 388.5 225.52 388.5H230.92C231.37 388.5 231.775 388.905 231.775 389.355V419.64C231.775 420.09 231.37 420.45 230.92 420.45H230.2C230.065 420.45 229.705 420.315 229.615 420.225L211.84 402.36H211.795V419.145C211.795 419.595 211.435 420 210.94 420H205.585C205.135 420 204.73 419.595 204.73 419.145ZM243.585 419.145V395.115H237.15C236.655 395.115 236.295 394.71 236.295 394.26V389.355C236.295 388.905 236.655 388.5 237.15 388.5H257.13C257.625 388.5 257.985 388.905 257.985 389.355V394.26C257.985 394.71 257.625 395.115 257.13 395.115H250.695V419.145C250.695 419.595 250.29 420 249.84 420H244.44C243.99 420 243.585 419.595 243.585 419.145ZM260.004 404.295C260.004 395.295 267.159 388.05 276.159 388.05C285.159 388.05 292.359 395.295 292.359 404.295C292.359 413.295 285.159 420.45 276.159 420.45C267.159 420.45 260.004 413.295 260.004 404.295ZM267.204 404.295C267.204 409.2 271.254 413.25 276.159 413.25C281.109 413.25 285.159 409.2 285.159 404.295C285.159 399.345 281.109 395.25 276.159 395.25C271.254 395.25 267.204 399.345 267.204 404.295ZM301.137 404.385C300.687 404.385 300.282 403.98 300.282 403.53L300.372 399.48L297.042 401.775C296.682 402.045 296.097 401.91 295.872 401.55L294.882 399.975C294.612 399.57 294.657 399.03 295.107 398.76L298.977 396.465L295.107 394.125C294.702 393.855 294.612 393.315 294.837 392.91C295.287 392.235 295.557 391.83 295.917 391.335C296.187 391.02 296.682 390.885 297.042 391.155L300.372 393.45L300.282 389.355C300.282 388.905 300.687 388.5 301.137 388.5H302.982C303.432 388.5 303.837 388.905 303.837 389.355L303.747 393.45L307.122 391.155C307.482 390.93 308.067 391.02 308.292 391.38L309.282 392.91C309.552 393.315 309.507 393.9 309.057 394.17L305.187 396.465L309.057 398.805C309.507 399.075 309.552 399.615 309.327 399.975L308.202 401.55C307.977 401.91 307.437 402 307.077 401.775L303.747 399.525L303.837 403.53C303.837 403.98 303.432 404.385 302.982 404.385H301.137Z" fill="white"/>
<path d="M88.8865 360.419V357.703C96.7648 347.379 116.868 320.077 124.882 307.852C126.648 305.135 128.414 301.332 128.414 297.528C128.414 292.367 124.067 287.748 116.461 287.748C110.891 287.748 105.866 291.687 103.285 294.54C102.198 295.627 100.568 295.627 99.4815 294.54L91.1956 286.118C90.2448 285.303 90.109 283.673 91.0598 282.587C91.0598 282.587 102.062 269.275 118.226 269.275C137.651 269.275 149.061 281.636 149.061 296.713C149.061 303.912 147.023 307.987 143.763 314.372C139.416 322.114 128.278 336.648 121.894 345.613H145.801C147.159 345.613 148.381 346.836 148.381 348.194V360.419C148.381 361.777 147.159 363 145.801 363H91.4673C89.9731 363 88.8865 361.777 88.8865 360.419ZM160.698 329.313C159.339 329.313 158.253 328.091 158.253 326.732V324.423C158.253 323.065 159.339 321.843 160.698 321.843H165.859C165.588 319.805 165.588 317.768 165.588 315.594C165.588 314.779 165.588 313.828 165.588 313.013H160.698C159.339 313.013 158.253 311.791 158.253 310.432V308.123C158.253 306.765 159.339 305.543 160.698 305.543H166.539C171.157 283.266 190.853 266.558 214.624 266.558C228.207 266.558 238.259 270.769 247.495 279.191C248.718 280.277 248.718 281.908 247.631 282.994L237.036 293.997C236.085 294.947 234.591 294.947 233.64 293.997C228.614 289.514 221.959 287.069 215.303 287.069C203.214 287.069 193.841 294.947 190.174 305.543H218.699C220.193 305.543 221.279 306.765 221.279 308.123V310.704C221.279 312.062 220.193 313.149 218.699 313.149H188.679C188.679 313.828 188.679 314.372 188.679 315.051C188.679 317.36 188.951 319.669 189.494 321.843H213.265C214.759 321.843 215.846 323.065 215.846 324.423V326.868C215.846 328.227 214.759 329.313 213.265 329.313H192.347C196.965 337.327 205.387 342.625 215.439 342.625C221.823 342.625 228.75 340.316 233.64 336.105C234.591 335.29 236.357 335.29 237.172 336.241L247.767 347.515C248.718 348.466 248.582 350.232 247.631 351.182C238.394 360.147 226.713 364.358 214.624 364.358C192.211 364.358 173.33 349.688 167.489 329.313H160.698Z" fill="white"/>
<path d="M137.621 134.315C136.809 133.368 136.945 131.88 137.756 130.933L146.277 122.412C147.224 121.465 148.577 121.33 149.659 122.142C149.659 122.142 158.045 128.363 164.537 128.363C170.353 128.363 176.304 123.494 176.304 117.543C176.304 111.592 170.218 106.587 160.209 106.587H152.634C151.282 106.587 150.064 105.37 150.064 104.017V92.791C150.064 91.3032 151.282 90.2211 152.634 90.2211H160.209C169.677 90.2211 174.681 85.6224 174.681 79.8064C174.681 73.9904 169.677 69.6622 163.861 69.6622C157.909 69.6622 154.122 72.7731 152.093 75.0724C151.146 76.1545 149.523 76.1545 148.441 75.2077L140.191 67.0923C139.109 66.1455 139.244 64.5224 140.191 63.5756C140.191 63.5756 151.282 51.6731 166.025 51.6731C181.714 51.6731 195.24 61.2763 195.24 76.425C195.24 86.8397 187.395 94.5494 181.309 97.3897V97.7955C187.666 100.501 197.675 108.887 197.675 120.519C197.675 135.262 184.825 146.353 166.16 146.353C149.118 146.353 140.461 137.967 137.621 134.315Z" fill="white"/>
</svg>
