<svg width="815" height="51" viewBox="0 0 815 51" fill="none" xmlns="http://www.w3.org/2000/svg">
<path d="M-1.93268e-05 48.37V2.03001C-1.93268e-05 1.33001 0.559981 0.700009 1.32998 0.700009H17.64C25.9 0.700009 32.69 6.37001 32.69 13.72C32.69 19.11 27.86 23.03 24.57 24.78C28.28 26.32 33.95 29.75 33.95 36.19C33.95 44.03 27.02 49.7 18.69 49.7H1.32998C0.559981 49.7 -1.93268e-05 49.07 -1.93268e-05 48.37ZM10.92 20.58H16.38C19.04 20.58 21.28 18.34 21.28 15.54C21.28 12.74 19.04 10.78 16.38 10.78H10.92V20.58ZM10.92 39.69H17.29C20.02 39.69 22.33 37.45 22.33 34.58C22.33 31.78 19.32 29.68 16.59 29.68H10.92V39.69ZM42.8613 48.37V2.03001C42.8613 1.33001 43.4913 0.700009 44.1913 0.700009H52.5913C53.2913 0.700009 53.9213 1.33001 53.9213 2.03001V48.37C53.9213 49.07 53.2913 49.7 52.5913 49.7H44.1913C43.4913 49.7 42.8613 49.07 42.8613 48.37ZM65.9668 48.37V2.03001C65.9668 1.33001 66.5268 0.700009 67.2968 0.700009H96.2768C97.0468 0.700009 97.6068 1.33001 97.6068 2.03001V9.66001C97.6068 10.36 97.0468 10.99 96.2768 10.99H76.8868V19.67H92.8468C93.5468 19.67 94.1768 20.3 94.1768 21V28.63C94.1768 29.4 93.5468 29.96 92.8468 29.96H76.8868V39.41H96.2768C97.0468 39.41 97.6068 40.04 97.6068 40.74V48.37C97.6068 49.07 97.0468 49.7 96.2768 49.7H67.2968C66.5268 49.7 65.9668 49.07 65.9668 48.37ZM106.982 48.37L106.912 1.26001C106.912 0.560011 107.542 9.53674e-06 108.242 9.53674e-06H109.992L137.922 26.88H137.992V2.03001C137.992 1.33001 138.552 0.700009 139.322 0.700009H147.722C148.422 0.700009 149.052 1.33001 149.052 2.03001V49.14C149.052 49.84 148.422 50.4 147.722 50.4H146.602C146.392 50.4 145.832 50.19 145.692 50.05L118.042 22.26H117.972V48.37C117.972 49.07 117.412 49.7 116.642 49.7H108.312C107.612 49.7 106.982 49.07 106.982 48.37ZM176.663 49.63L154.823 2.52001C154.403 1.61001 154.963 0.700009 156.013 0.700009H165.323C165.883 0.700009 166.373 1.12001 166.513 1.47001L178.063 27.02H178.483L190.033 1.47001C190.173 1.12001 190.663 0.700009 191.223 0.700009H200.533C201.583 0.700009 202.143 1.61001 201.723 2.52001L179.743 49.63C179.533 50.05 179.113 50.4 178.553 50.4H177.853C177.293 50.4 176.873 50.05 176.663 49.63ZM207.471 48.37V2.03001C207.471 1.33001 208.031 0.700009 208.801 0.700009H237.781C238.551 0.700009 239.111 1.33001 239.111 2.03001V9.66001C239.111 10.36 238.551 10.99 237.781 10.99H218.391V19.67H234.351C235.051 19.67 235.681 20.3 235.681 21V28.63C235.681 29.4 235.051 29.96 234.351 29.96H218.391V39.41H237.781C238.551 39.41 239.111 40.04 239.111 40.74V48.37C239.111 49.07 238.551 49.7 237.781 49.7H208.801C208.031 49.7 207.471 49.07 207.471 48.37ZM248.486 48.37L248.416 1.26001C248.416 0.560011 249.046 9.53674e-06 249.746 9.53674e-06H251.496L279.426 26.88H279.496V2.03001C279.496 1.33001 280.056 0.700009 280.826 0.700009H289.226C289.926 0.700009 290.556 1.33001 290.556 2.03001V49.14C290.556 49.84 289.926 50.4 289.226 50.4H288.106C287.896 50.4 287.336 50.19 287.196 50.05L259.546 22.26H259.476V48.37C259.476 49.07 258.916 49.7 258.146 49.7H249.816C249.116 49.7 248.486 49.07 248.486 48.37ZM302.627 48.37V2.03001C302.627 1.33001 303.257 0.700009 303.957 0.700009H312.357C313.057 0.700009 313.687 1.33001 313.687 2.03001V48.37C313.687 49.07 313.057 49.7 312.357 49.7H303.957C303.257 49.7 302.627 49.07 302.627 48.37ZM325.732 48.37V2.03001C325.732 1.33001 326.292 0.700009 326.992 0.700009H344.072C357.582 0.700009 368.642 11.69 368.642 25.13C368.642 38.71 357.582 49.7 344.072 49.7H326.992C326.292 49.7 325.732 49.07 325.732 48.37ZM336.652 39.34H343.372C351.282 39.34 357.022 33.11 357.022 25.13C357.022 17.22 351.282 10.99 343.372 10.99H336.652V39.34ZM373.637 25.27C373.637 11.27 384.767 9.53674e-06 398.767 9.53674e-06C412.767 9.53674e-06 423.967 11.27 423.967 25.27C423.967 39.27 412.767 50.4 398.767 50.4C384.767 50.4 373.637 39.27 373.637 25.27ZM384.837 25.27C384.837 32.9 391.137 39.2 398.767 39.2C406.467 39.2 412.767 32.9 412.767 25.27C412.767 17.57 406.467 11.2 398.767 11.2C391.137 11.2 384.837 17.57 384.837 25.27ZM442.781 49.7C441.731 49.7 441.171 48.79 441.591 47.88L463.501 0.770008C463.711 0.350009 464.201 9.53674e-06 464.691 9.53674e-06H465.391C465.881 9.53674e-06 466.371 0.350009 466.581 0.770008L488.491 47.88C488.911 48.79 488.351 49.7 487.301 49.7H479.531C478.271 49.7 477.711 49.28 477.081 47.95L474.561 42.42H455.521L453.001 48.02C452.651 48.86 451.881 49.7 450.481 49.7H442.781ZM459.721 32.9H470.361L465.041 21.35H464.971L459.721 32.9ZM504.577 49.7C503.527 49.7 502.967 48.79 503.387 47.88L525.297 0.770008C525.507 0.350009 525.997 9.53674e-06 526.487 9.53674e-06H527.187C527.677 9.53674e-06 528.167 0.350009 528.377 0.770008L550.287 47.88C550.707 48.79 550.147 49.7 549.097 49.7H541.327C540.067 49.7 539.507 49.28 538.877 47.95L536.357 42.42H517.317L514.797 48.02C514.447 48.86 513.677 49.7 512.277 49.7H504.577ZM521.517 32.9H532.157L526.837 21.35H526.767L521.517 32.9ZM556.035 48.37V2.03001C556.035 1.33001 556.665 0.700009 557.365 0.700009H565.765C566.465 0.700009 567.095 1.33001 567.095 2.03001V48.37C567.095 49.07 566.465 49.7 565.765 49.7H557.365C556.665 49.7 556.035 49.07 556.035 48.37ZM579.141 48.37V2.03001C579.141 1.33001 579.701 0.700009 580.471 0.700009H601.401C609.801 0.700009 616.661 7.49001 616.661 15.82C616.661 22.26 612.391 27.44 606.301 29.89L615.891 47.67C616.381 48.58 615.891 49.7 614.701 49.7H605.391C604.831 49.7 604.411 49.35 604.271 49.07L594.961 30.52H590.131V48.37C590.131 49.07 589.501 49.7 588.801 49.7H580.471C579.701 49.7 579.141 49.07 579.141 48.37ZM590.131 21.63H600.491C603.361 21.63 605.811 18.97 605.811 16.03C605.811 13.09 603.361 10.71 600.491 10.71H590.131V21.63ZM650.374 49.42L637.144 2.38001C636.864 1.40001 637.424 0.700009 638.404 0.700009H646.594C647.154 0.700009 647.714 1.19001 647.854 1.68001L653.874 25.41H654.154L665.004 0.770008C665.214 0.350009 665.634 9.53674e-06 666.194 9.53674e-06H667.454C668.084 9.53674e-06 668.504 0.350009 668.644 0.770008L679.494 25.41H679.774L685.794 1.68001C685.934 1.19001 686.494 0.700009 687.054 0.700009H695.244C696.224 0.700009 696.784 1.40001 696.504 2.38001L683.274 49.42C683.134 49.98 682.574 50.4 682.014 50.4H680.894C680.404 50.4 679.914 50.05 679.704 49.63L666.894 21H666.684L653.944 49.63C653.734 50.05 653.244 50.4 652.754 50.4H651.634C651.074 50.4 650.514 49.98 650.374 49.42ZM704.033 48.37V2.03001C704.033 1.33001 704.663 0.700009 705.363 0.700009H713.763C714.463 0.700009 715.093 1.33001 715.093 2.03001V48.37C715.093 49.07 714.463 49.7 713.763 49.7H705.363C704.663 49.7 704.033 49.07 704.033 48.37ZM723.569 25.27C723.569 11.27 734.839 9.53674e-06 748.839 9.53674e-06C755.839 9.53674e-06 761.019 2.17001 765.779 6.51001C766.409 7.07001 766.409 7.91001 765.849 8.47001L760.389 14.14C759.899 14.63 759.129 14.63 758.639 14.14C756.049 11.83 752.619 10.57 749.189 10.57C741.279 10.57 735.469 17.15 735.469 24.99C735.469 32.76 741.349 39.2 749.259 39.2C752.549 39.2 756.119 38.01 758.639 35.84C759.129 35.42 760.039 35.42 760.459 35.91L765.919 41.72C766.409 42.21 766.339 43.12 765.849 43.61C761.089 48.23 755.069 50.4 748.839 50.4C734.839 50.4 723.569 39.27 723.569 25.27ZM774.238 48.02V2.38001C774.238 1.47001 774.938 0.700009 775.918 0.700009H784.108C785.018 0.700009 785.788 1.47001 785.788 2.38001V20.79L801.328 1.40001C801.608 1.05001 802.238 0.700009 802.658 0.700009H811.478C812.808 0.700009 813.508 2.24001 812.738 3.29001L796.358 23.8L814.208 47.04C814.978 48.09 814.208 49.63 812.878 49.63H803.218C802.728 49.63 802.098 49.35 801.958 49.14L785.788 27.16V48.02C785.788 48.93 785.018 49.7 784.108 49.7H775.918C774.938 49.7 774.238 48.93 774.238 48.02Z" fill="white"/>
</svg>
