<svg width="451" height="36" viewBox="0 0 451 36" fill="none" xmlns="http://www.w3.org/2000/svg">
<path d="M7.45058e-09 18.05C7.45058e-09 8.05 8.05 -1.90735e-06 18.05 -1.90735e-06C23.05 -1.90735e-06 26.75 1.55 30.15 4.65C30.6 5.05 30.6 5.65 30.2 6.05L26.3 10.1C25.95 10.45 25.4 10.45 25.05 10.1C23.2 8.45 20.75 7.55 18.3 7.55C12.65 7.55 8.5 12.25 8.5 17.85C8.5 23.4 12.7 28 18.35 28C20.7 28 23.25 27.15 25.05 25.6C25.4 25.3 26.05 25.3 26.35 25.65L30.25 29.8C30.6 30.15 30.55 30.8 30.2 31.15C26.8 34.45 22.5 36 18.05 36C8.05 36 7.45058e-09 28.05 7.45058e-09 18.05ZM33.4961 18.05C33.4961 8.05 41.4461 -1.90735e-06 51.4461 -1.90735e-06C61.4461 -1.90735e-06 69.4461 8.05 69.4461 18.05C69.4461 28.05 61.4461 36 51.4461 36C41.4461 36 33.4961 28.05 33.4961 18.05ZM41.4961 18.05C41.4961 23.5 45.9961 28 51.4461 28C56.9461 28 61.4461 23.5 61.4461 18.05C61.4461 12.55 56.9461 8 51.4461 8C45.9961 8 41.4961 12.55 41.4961 18.05ZM73.2992 34.4L78.9492 0.8C78.9992 0.35 79.4492 -1.90735e-06 79.8492 -1.90735e-06H80.6492C80.8992 -1.90735e-06 81.3492 0.199998 81.4992 0.499998L93.0992 22.1H93.1992L104.799 0.499998C104.949 0.199998 105.399 -1.90735e-06 105.649 -1.90735e-06H106.449C106.849 -1.90735e-06 107.299 0.35 107.349 0.8L112.999 34.4C113.099 35.05 112.649 35.5 112.049 35.5H106.149C105.699 35.5 105.249 35.1 105.199 34.7L102.949 19.25H102.849L94.4492 35.45C94.2992 35.75 93.8492 36 93.5992 36H92.6992C92.3992 36 91.9992 35.75 91.8492 35.45L83.3992 19.25H83.2992L81.0992 34.7C81.0492 35.1 80.6492 35.5 80.1492 35.5H74.2492C73.6492 35.5 73.1992 35.05 73.2992 34.4ZM116.846 18.05C116.846 8.05 124.796 -1.90735e-06 134.796 -1.90735e-06C144.796 -1.90735e-06 152.796 8.05 152.796 18.05C152.796 28.05 144.796 36 134.796 36C124.796 36 116.846 28.05 116.846 18.05ZM124.846 18.05C124.846 23.5 129.346 28 134.796 28C140.296 28 144.796 23.5 144.796 18.05C144.796 12.55 140.296 8 134.796 8C129.346 8 124.846 12.55 124.846 18.05ZM169.884 34.55V1.45C169.884 0.949998 170.284 0.499998 170.834 0.499998H191.534C192.084 0.499998 192.484 0.949998 192.484 1.45V6.9C192.484 7.4 192.084 7.85 191.534 7.85H177.684V15.05H189.084C189.584 15.05 190.034 15.5 190.034 16V21.45C190.034 21.95 189.584 22.4 189.084 22.4H177.684V34.55C177.684 35.05 177.234 35.5 176.734 35.5H170.834C170.284 35.5 169.884 35.05 169.884 34.55ZM197.558 22.1V1.45C197.558 0.949998 198.008 0.499998 198.508 0.499998H204.658C205.208 0.499998 205.608 0.949998 205.608 1.45V21.7C205.608 25.2 208.208 28 211.758 28C215.358 28 218.008 25.2 218.008 21.7V1.45C218.008 0.949998 218.408 0.499998 218.958 0.499998H225.108C225.608 0.499998 226.058 0.949998 226.058 1.45V22.1C226.058 29.7 219.658 36 211.758 36C203.908 36 197.558 29.7 197.558 22.1ZM234.093 34.55L234.043 0.899998C234.043 0.399999 234.493 -1.90735e-06 234.993 -1.90735e-06H236.243L256.193 19.2H256.243V1.45C256.243 0.949998 256.643 0.499998 257.193 0.499998H263.193C263.693 0.499998 264.143 0.949998 264.143 1.45V35.1C264.143 35.6 263.693 36 263.193 36H262.393C262.243 36 261.843 35.85 261.743 35.75L241.993 15.9H241.943V34.55C241.943 35.05 241.543 35.5 240.993 35.5H235.043C234.543 35.5 234.093 35.05 234.093 34.55ZM270.215 18.05C270.215 8.05 278.265 -1.90735e-06 288.265 -1.90735e-06C293.265 -1.90735e-06 296.965 1.55 300.365 4.65C300.815 5.05 300.815 5.65 300.415 6.05L296.515 10.1C296.165 10.45 295.615 10.45 295.265 10.1C293.415 8.45 290.965 7.55 288.515 7.55C282.865 7.55 278.715 12.25 278.715 17.85C278.715 23.4 282.915 28 288.565 28C290.915 28 293.465 27.15 295.265 25.6C295.615 25.3 296.265 25.3 296.565 25.65L300.465 29.8C300.815 30.15 300.765 30.8 300.415 31.15C297.015 34.45 292.715 36 288.265 36C278.265 36 270.215 28.05 270.215 18.05ZM306.407 34.55V1.45C306.407 0.949998 306.857 0.499998 307.357 0.499998H313.357C313.857 0.499998 314.307 0.949998 314.307 1.45V34.55C314.307 35.05 313.857 35.5 313.357 35.5H307.357C306.857 35.5 306.407 35.05 306.407 34.55ZM320.361 18.05C320.361 8.05 328.311 -1.90735e-06 338.311 -1.90735e-06C348.311 -1.90735e-06 356.311 8.05 356.311 18.05C356.311 28.05 348.311 36 338.311 36C328.311 36 320.361 28.05 320.361 18.05ZM328.361 18.05C328.361 23.5 332.861 28 338.311 28C343.811 28 348.311 23.5 348.311 18.05C348.311 12.55 343.811 8 338.311 8C332.861 8 328.361 12.55 328.361 18.05ZM362.364 34.55L362.314 0.899998C362.314 0.399999 362.764 -1.90735e-06 363.264 -1.90735e-06H364.514L384.464 19.2H384.514V1.45C384.514 0.949998 384.914 0.499998 385.464 0.499998H391.464C391.964 0.499998 392.414 0.949998 392.414 1.45V35.1C392.414 35.6 391.964 36 391.464 36H390.664C390.514 36 390.114 35.85 390.014 35.75L370.264 15.9H370.214V34.55C370.214 35.05 369.814 35.5 369.264 35.5H363.314C362.814 35.5 362.364 35.05 362.364 34.55ZM397.386 35.5C396.636 35.5 396.236 34.85 396.536 34.2L412.186 0.549997C412.336 0.249998 412.686 -1.90735e-06 413.036 -1.90735e-06H413.536C413.886 -1.90735e-06 414.236 0.249998 414.386 0.549997L430.036 34.2C430.336 34.85 429.936 35.5 429.186 35.5H423.636C422.736 35.5 422.336 35.2 421.886 34.25L420.086 30.3H406.486L404.686 34.3C404.436 34.9 403.886 35.5 402.886 35.5H397.386ZM409.486 23.5H417.086L413.286 15.25H413.236L409.486 23.5ZM437.102 21.9C436.602 21.9 436.152 21.5 436.152 20.95V18.85C436.152 14.65 443.052 12.8 443.052 9.6C443.052 8.05 441.452 6.65 439.302 6.65C435.802 6.65 434.852 9.8 433.602 8.7L430.552 5.7C430.152 5.35 430.202 4.75 430.552 4.4C430.552 4.4 434.252 -1.90735e-06 440.702 -1.90735e-06C446.002 -1.90735e-06 450.902 3.7 450.902 8.75C450.902 15.35 443.402 15.55 443.402 20.95C443.402 21.5 442.952 21.9 442.452 21.9H437.102ZM435.052 31.3C435.052 28.7 437.202 26.5 439.752 26.5C442.352 26.5 444.552 28.7 444.552 31.3C444.552 33.85 442.352 36 439.752 36C437.202 36 435.052 33.85 435.052 31.3Z" fill="white"/>
</svg>
