<svg width="475" height="63" viewBox="0 0 475 63" fill="none" xmlns="http://www.w3.org/2000/svg">
<path d="M11.1499 36.1001C8.5499 36.1001 6.3499 33.9001 6.3499 31.3001C6.3499 28.7501 8.5499 26.6001 11.1499 26.6001C13.6999 26.6001 15.8499 28.7501 15.8499 31.3001C15.8499 33.9001 13.6999 36.1001 11.1499 36.1001ZM-9.76101e-05 53.8501C-9.76101e-05 47.2501 7.4999 47.0501 7.4999 41.6501C7.4999 41.1001 7.9499 40.7001 8.4499 40.7001H13.7999C14.2999 40.7001 14.7499 41.1001 14.7499 41.6501V43.7501C14.7499 47.9501 7.8499 49.8001 7.8499 53.0001C7.8499 54.5501 9.4499 55.9501 11.5999 55.9501C15.0999 55.9501 16.0499 52.8001 17.2999 53.9001L20.3499 56.9001C20.7499 57.2501 20.6999 57.8501 20.3499 58.2001C20.3499 58.2001 16.6499 62.6001 10.1999 62.6001C4.8999 62.6001 -9.76101e-05 58.9001 -9.76101e-05 53.8501ZM23.2144 29.6501C23.2144 19.6501 31.2644 11.6001 41.2644 11.6001C46.2644 11.6001 49.9644 13.1501 53.3644 16.2501C53.8144 16.6501 53.8144 17.2501 53.4144 17.6501L49.5144 21.7001C49.1644 22.0501 48.6144 22.0501 48.2644 21.7001C46.4144 20.0501 43.9644 19.1501 41.5144 19.1501C35.8644 19.1501 31.7144 23.8501 31.7144 29.4501C31.7144 35.0001 35.9144 39.6001 41.5644 39.6001C43.9144 39.6001 46.4644 38.7501 48.2644 37.2001C48.6144 36.9001 49.2644 36.9001 49.5644 37.2501L53.4644 41.4001C53.8144 41.7501 53.7644 42.4001 53.4144 42.7501C50.0144 46.0501 45.7144 47.6001 41.2644 47.6001C31.2644 47.6001 23.2144 39.6501 23.2144 29.6501ZM56.7104 29.6501C56.7104 19.6501 64.6604 11.6001 74.6605 11.6001C84.6605 11.6001 92.6604 19.6501 92.6604 29.6501C92.6604 39.6501 84.6605 47.6001 74.6605 47.6001C64.6604 47.6001 56.7104 39.6501 56.7104 29.6501ZM64.7104 29.6501C64.7104 35.1001 69.2105 39.6001 74.6605 39.6001C80.1604 39.6001 84.6605 35.1001 84.6605 29.6501C84.6605 24.1501 80.1604 19.6001 74.6605 19.6001C69.2105 19.6001 64.7104 24.1501 64.7104 29.6501ZM71.1104 9.0001C70.4604 9.4001 70.0105 9.0501 69.7604 8.5501L68.7104 6.4501C68.5105 6.0501 68.7605 5.70009 69.0105 5.5001L77.5105 0.300095C77.8105 0.100095 78.5605 9.60827e-05 78.8105 0.450096L80.5105 3.4001C80.9105 4.1501 80.6104 4.6501 80.2104 4.9001L71.1104 9.0001ZM96.5136 46.0001L102.164 12.4001C102.214 11.9501 102.664 11.6001 103.064 11.6001H103.864C104.114 11.6001 104.564 11.8001 104.714 12.1001L116.314 33.7001H116.414L128.014 12.1001C128.164 11.8001 128.614 11.6001 128.864 11.6001H129.664C130.064 11.6001 130.514 11.9501 130.564 12.4001L136.214 46.0001C136.314 46.6501 135.864 47.1001 135.264 47.1001H129.364C128.914 47.1001 128.464 46.7001 128.414 46.3001L126.164 30.8501H126.064L117.664 47.0501C117.514 47.3501 117.064 47.6001 116.814 47.6001H115.914C115.614 47.6001 115.214 47.3501 115.064 47.0501L106.614 30.8501H106.514L104.314 46.3001C104.264 46.7001 103.864 47.1001 103.364 47.1001H97.4636C96.8636 47.1001 96.4136 46.6501 96.5136 46.0001ZM140.06 29.6501C140.06 19.6501 148.01 11.6001 158.01 11.6001C168.01 11.6001 176.01 19.6501 176.01 29.6501C176.01 39.6501 168.01 47.6001 158.01 47.6001C148.01 47.6001 140.06 39.6501 140.06 29.6501ZM148.06 29.6501C148.06 35.1001 152.56 39.6001 158.01 39.6001C163.51 39.6001 168.01 35.1001 168.01 29.6501C168.01 24.1501 163.51 19.6001 158.01 19.6001C152.56 19.6001 148.06 24.1501 148.06 29.6501ZM193.098 46.1501V13.0501C193.098 12.5501 193.498 12.1001 194.048 12.1001H214.748C215.298 12.1001 215.698 12.5501 215.698 13.0501V18.5001C215.698 19.0001 215.298 19.4501 214.748 19.4501H200.898V26.6501H212.298C212.798 26.6501 213.248 27.1001 213.248 27.6001V33.0501C213.248 33.5501 212.798 34.0001 212.298 34.0001H200.898V46.1501C200.898 46.6501 200.448 47.1001 199.948 47.1001H194.048C193.498 47.1001 193.098 46.6501 193.098 46.1501ZM220.772 33.7001V13.0501C220.772 12.5501 221.222 12.1001 221.722 12.1001H227.872C228.422 12.1001 228.822 12.5501 228.822 13.0501V33.3001C228.822 36.8001 231.422 39.6001 234.972 39.6001C238.572 39.6001 241.222 36.8001 241.222 33.3001V13.0501C241.222 12.5501 241.622 12.1001 242.172 12.1001H248.322C248.822 12.1001 249.272 12.5501 249.272 13.0501V33.7001C249.272 41.3001 242.872 47.6001 234.972 47.6001C227.122 47.6001 220.772 41.3001 220.772 33.7001ZM257.307 46.1501L257.257 12.5001C257.257 12.0001 257.707 11.6001 258.207 11.6001H259.457L279.407 30.8001H279.457V13.0501C279.457 12.5501 279.857 12.1001 280.407 12.1001H286.407C286.907 12.1001 287.357 12.5501 287.357 13.0501V46.7001C287.357 47.2001 286.907 47.6001 286.407 47.6001H285.607C285.457 47.6001 285.057 47.4501 284.957 47.3501L265.207 27.5001H265.157V46.1501C265.157 46.6501 264.757 47.1001 264.207 47.1001H258.257C257.757 47.1001 257.307 46.6501 257.307 46.1501ZM293.429 29.6501C293.429 19.6501 301.479 11.6001 311.479 11.6001C316.479 11.6001 320.179 13.1501 323.579 16.2501C324.029 16.6501 324.029 17.2501 323.629 17.6501L319.729 21.7001C319.379 22.0501 318.829 22.0501 318.479 21.7001C316.629 20.0501 314.179 19.1501 311.729 19.1501C306.079 19.1501 301.929 23.8501 301.929 29.4501C301.929 35.0001 306.129 39.6001 311.779 39.6001C314.129 39.6001 316.679 38.7501 318.479 37.2001C318.829 36.9001 319.479 36.9001 319.779 37.2501L323.679 41.4001C324.029 41.7501 323.979 42.4001 323.629 42.7501C320.229 46.0501 315.929 47.6001 311.479 47.6001C301.479 47.6001 293.429 39.6501 293.429 29.6501ZM329.622 46.1501V13.0501C329.622 12.5501 330.072 12.1001 330.572 12.1001H336.572C337.072 12.1001 337.522 12.5501 337.522 13.0501V46.1501C337.522 46.6501 337.072 47.1001 336.572 47.1001H330.572C330.072 47.1001 329.622 46.6501 329.622 46.1501ZM343.576 29.6501C343.576 19.6501 351.526 11.6001 361.526 11.6001C371.526 11.6001 379.526 19.6501 379.526 29.6501C379.526 39.6501 371.526 47.6001 361.526 47.6001C351.526 47.6001 343.576 39.6501 343.576 29.6501ZM351.576 29.6501C351.576 35.1001 356.076 39.6001 361.526 39.6001C367.026 39.6001 371.526 35.1001 371.526 29.6501C371.526 24.1501 367.026 19.6001 361.526 19.6001C356.076 19.6001 351.576 24.1501 351.576 29.6501ZM385.579 46.1501L385.529 12.5001C385.529 12.0001 385.979 11.6001 386.479 11.6001H387.729L407.679 30.8001H407.729V13.0501C407.729 12.5501 408.129 12.1001 408.679 12.1001H414.679C415.179 12.1001 415.629 12.5501 415.629 13.0501V46.7001C415.629 47.2001 415.179 47.6001 414.679 47.6001H413.879C413.729 47.6001 413.329 47.4501 413.229 47.3501L393.479 27.5001H393.429V46.1501C393.429 46.6501 393.029 47.1001 392.479 47.1001H386.529C386.029 47.1001 385.579 46.6501 385.579 46.1501ZM420.601 47.1001C419.851 47.1001 419.451 46.4501 419.751 45.8001L435.401 12.1501C435.551 11.8501 435.901 11.6001 436.251 11.6001H436.751C437.101 11.6001 437.451 11.8501 437.601 12.1501L453.251 45.8001C453.551 46.4501 453.151 47.1001 452.401 47.1001H446.851C445.951 47.1001 445.551 46.8001 445.101 45.8501L443.301 41.9001H429.701L427.901 45.9001C427.651 46.5001 427.101 47.1001 426.101 47.1001H420.601ZM432.701 35.1001H440.301L436.501 26.8501H436.451L432.701 35.1001ZM460.317 33.5001C459.817 33.5001 459.367 33.1001 459.367 32.5501V30.4501C459.367 26.2501 466.267 24.4001 466.267 21.2001C466.267 19.6501 464.667 18.2501 462.517 18.2501C459.017 18.2501 458.067 21.4001 456.817 20.3001L453.767 17.3001C453.367 16.9501 453.417 16.3501 453.767 16.0001C453.767 16.0001 457.467 11.6001 463.917 11.6001C469.217 11.6001 474.117 15.3001 474.117 20.3501C474.117 26.9501 466.617 27.1501 466.617 32.5501C466.617 33.1001 466.167 33.5001 465.667 33.5001H460.317ZM458.267 42.9001C458.267 40.3001 460.417 38.1001 462.967 38.1001C465.567 38.1001 467.767 40.3001 467.767 42.9001C467.767 45.4501 465.567 47.6001 462.967 47.6001C460.417 47.6001 458.267 45.4501 458.267 42.9001Z" fill="white"/>
</svg>
