<svg width="412" height="57" viewBox="0 0 412 57" fill="none" xmlns="http://www.w3.org/2000/svg">
<path d="M0 28.4894C0 12.7551 12.9476 0 28.9192 0H383.081C399.052 0 412 12.7551 412 28.4894C412 44.2236 399.052 56.9787 383.081 56.9787H28.9192C12.9476 56.9787 0 44.2236 0 28.4894Z" fill="white"/>
<path d="M65.8484 28.5679C65.8484 22.7239 70.4944 18.0195 76.3383 18.0195C82.1823 18.0195 86.8575 22.7239 86.8575 28.5679C86.8575 32.3665 84.666 35.8144 81.4518 37.7722L85.2212 43.6746C85.4549 44.0836 85.2212 44.5512 84.7537 44.5512H80.809C80.5752 44.5512 80.4291 44.4051 80.3415 44.259L77.2442 39.0286C76.8935 39.0578 76.5429 39.0578 76.3383 39.0578C70.4944 39.0578 65.8484 34.4119 65.8484 28.5679ZM70.5236 28.5679C70.5236 31.7529 73.1534 34.3826 76.3383 34.3826C79.5525 34.3826 82.1823 31.7529 82.1823 28.5679C82.1823 25.3537 79.5525 22.6947 76.3383 22.6947C73.1534 22.6947 70.5236 25.3537 70.5236 28.5679ZM90.1883 30.9347V18.8669C90.1883 18.5747 90.4513 18.3117 90.7435 18.3117H94.3375C94.659 18.3117 94.8927 18.5747 94.8927 18.8669V30.7009C94.8927 32.7463 96.4121 34.3826 98.4868 34.3826C100.591 34.3826 102.139 32.7463 102.139 30.7009V18.8669C102.139 18.5747 102.373 18.3117 102.694 18.3117H106.288C106.581 18.3117 106.844 18.5747 106.844 18.8669V30.9347C106.844 35.3761 103.103 39.0578 98.4868 39.0578C93.8992 39.0578 90.1883 35.3761 90.1883 30.9347ZM111.539 38.2104V18.8669C111.539 18.5747 111.802 18.3117 112.095 18.3117H115.601C115.893 18.3117 116.156 18.5747 116.156 18.8669V38.2104C116.156 38.5026 115.893 38.7656 115.601 38.7656H112.095C111.802 38.7656 111.539 38.5026 111.539 38.2104ZM121.184 38.2104V18.8669C121.184 18.5747 121.418 18.3117 121.739 18.3117H133.836C134.158 18.3117 134.392 18.5747 134.392 18.8669V22.0519C134.392 22.3441 134.158 22.607 133.836 22.607H125.742V26.2303H132.405C132.697 26.2303 132.96 26.4933 132.96 26.7855V29.9704C132.96 30.2919 132.697 30.5256 132.405 30.5256H125.742V34.4703H133.836C134.158 34.4703 134.392 34.7333 134.392 35.0255V38.2104C134.392 38.5026 134.158 38.7656 133.836 38.7656H121.739C121.418 38.7656 121.184 38.5026 121.184 38.2104ZM138.305 38.2104V18.8669C138.305 18.5747 138.539 18.3117 138.86 18.3117H147.597C151.103 18.3117 153.967 21.1461 153.967 24.6232C153.967 27.3114 152.185 29.4737 149.642 30.4964L153.646 37.9182C153.85 38.2981 153.646 38.7656 153.149 38.7656H149.263C149.029 38.7656 148.854 38.6195 148.795 38.5026L144.909 30.7594H142.893V38.2104C142.893 38.5026 142.63 38.7656 142.338 38.7656H138.86C138.539 38.7656 138.305 38.5026 138.305 38.2104ZM142.893 27.0485H147.217C148.415 27.0485 149.438 25.9381 149.438 24.7109C149.438 23.4836 148.415 22.4902 147.217 22.4902H142.893V27.0485ZM156.39 28.5679C156.39 22.7239 161.036 18.0195 166.88 18.0195C172.724 18.0195 177.399 22.7239 177.399 28.5679C177.399 34.4119 172.724 39.0578 166.88 39.0578C161.036 39.0578 156.39 34.4119 156.39 28.5679ZM161.065 28.5679C161.065 31.7529 163.695 34.3826 166.88 34.3826C170.094 34.3826 172.724 31.7529 172.724 28.5679C172.724 25.3537 170.094 22.6947 166.88 22.6947C163.695 22.6947 161.065 25.3537 161.065 28.5679ZM187.385 38.2104V18.8669C187.385 18.5747 187.619 18.3117 187.941 18.3117H194.983C198.577 18.3117 201.528 21.2337 201.528 24.7693C201.528 28.3926 198.577 31.3438 195.012 31.3438H191.944V38.2104C191.944 38.5026 191.681 38.7656 191.389 38.7656H187.941C187.619 38.7656 187.385 38.5026 187.385 38.2104ZM191.944 27.0777H194.72C195.976 27.0777 197.028 26.0842 197.028 24.7693C197.028 23.5421 195.976 22.607 194.72 22.607H191.944V27.0777ZM201.289 38.7656C200.851 38.7656 200.617 38.3858 200.792 38.0059L209.938 18.3409C210.026 18.1656 210.23 18.0195 210.435 18.0195H210.727C210.932 18.0195 211.136 18.1656 211.224 18.3409L220.37 38.0059C220.545 38.3858 220.311 38.7656 219.873 38.7656H216.629C216.103 38.7656 215.87 38.5903 215.607 38.0351L214.555 35.7268H206.607L205.555 38.0643C205.409 38.415 205.088 38.7656 204.503 38.7656H201.289ZM208.36 31.7529H212.802L210.581 26.9316H210.552L208.36 31.7529ZM222.769 38.2104V18.8669C222.769 18.5747 223.003 18.3117 223.324 18.3117H232.061C235.567 18.3117 238.431 21.1461 238.431 24.6232C238.431 27.3114 236.648 29.4737 234.106 30.4964L238.109 37.9182C238.314 38.2981 238.109 38.7656 237.612 38.7656H233.726C233.492 38.7656 233.317 38.6195 233.259 38.5026L229.372 30.7594H227.356V38.2104C227.356 38.5026 227.093 38.7656 226.801 38.7656H223.324C223.003 38.7656 222.769 38.5026 222.769 38.2104ZM227.356 27.0485H231.681C232.879 27.0485 233.902 25.9381 233.902 24.7109C233.902 23.4836 232.879 22.4902 231.681 22.4902H227.356V27.0485ZM244.974 38.2104V22.607H240.795C240.474 22.607 240.24 22.3441 240.24 22.0519V18.8669C240.24 18.5747 240.474 18.3117 240.795 18.3117H253.769C254.09 18.3117 254.324 18.5747 254.324 18.8669V22.0519C254.324 22.3441 254.09 22.607 253.769 22.607H249.59V38.2104C249.59 38.5026 249.327 38.7656 249.035 38.7656H245.529C245.237 38.7656 244.974 38.5026 244.974 38.2104ZM257.239 38.2104V18.8669C257.239 18.5747 257.502 18.3117 257.794 18.3117H261.301C261.593 18.3117 261.856 18.5747 261.856 18.8669V38.2104C261.856 38.5026 261.593 38.7656 261.301 38.7656H257.794C257.502 38.7656 257.239 38.5026 257.239 38.2104ZM265.394 28.5679C265.394 22.7239 270.098 18.0195 275.942 18.0195C278.864 18.0195 281.026 18.9253 283.013 20.737C283.276 20.9707 283.276 21.3214 283.043 21.5551L280.763 23.9219C280.559 24.1265 280.237 24.1265 280.033 23.9219C278.952 22.9577 277.52 22.4317 276.088 22.4317C272.786 22.4317 270.361 25.1784 270.361 28.451C270.361 31.6944 272.816 34.3826 276.117 34.3826C277.491 34.3826 278.981 33.8859 280.033 32.9801C280.237 32.8048 280.617 32.8048 280.793 33.0093L283.072 35.4346C283.276 35.6391 283.247 36.019 283.043 36.2235C281.056 38.152 278.543 39.0578 275.942 39.0578C270.098 39.0578 265.394 34.4119 265.394 28.5679ZM286.545 38.2104V18.8669C286.545 18.5747 286.808 18.3117 287.1 18.3117H290.606C290.898 18.3117 291.161 18.5747 291.161 18.8669V38.2104C291.161 38.5026 290.898 38.7656 290.606 38.7656H287.1C286.808 38.7656 286.545 38.5026 286.545 38.2104ZM296.189 38.2104V18.8669C296.189 18.5747 296.423 18.3117 296.745 18.3117H303.787C307.381 18.3117 310.332 21.2337 310.332 24.7693C310.332 28.3926 307.381 31.3438 303.816 31.3438H300.748V38.2104C300.748 38.5026 300.485 38.7656 300.193 38.7656H296.745C296.423 38.7656 296.189 38.5026 296.189 38.2104ZM300.748 27.0777H303.524C304.78 27.0777 305.832 26.0842 305.832 24.7693C305.832 23.5421 304.78 22.607 303.524 22.607H300.748V27.0777ZM310.093 38.7656C309.655 38.7656 309.421 38.3858 309.596 38.0059L318.742 18.3409C318.83 18.1656 319.034 18.0195 319.239 18.0195H319.531C319.736 18.0195 319.94 18.1656 320.028 18.3409L329.174 38.0059C329.349 38.3858 329.115 38.7656 328.677 38.7656H325.433C324.907 38.7656 324.674 38.5903 324.411 38.0351L323.359 35.7268H315.411L314.359 38.0643C314.213 38.415 313.892 38.7656 313.307 38.7656H310.093ZM317.164 31.7529H321.606L319.385 26.9316H319.356L317.164 31.7529ZM331.573 38.2104V18.8669C331.573 18.5747 331.807 18.3117 332.128 18.3117H340.865C344.371 18.3117 347.235 21.1461 347.235 24.6232C347.235 27.3114 345.452 29.4737 342.91 30.4964L346.913 37.9182C347.118 38.2981 346.913 38.7656 346.416 38.7656H342.53C342.296 38.7656 342.121 38.6195 342.063 38.5026L338.176 30.7594H336.16V38.2104C336.16 38.5026 335.897 38.7656 335.605 38.7656H332.128C331.807 38.7656 331.573 38.5026 331.573 38.2104ZM336.16 27.0485H340.485C341.683 27.0485 342.706 25.9381 342.706 24.7109C342.706 23.4836 341.683 22.4902 340.485 22.4902H336.16V27.0485Z" fill="#3D5C3D"/>
</svg>
