<svg width="412" height="57" viewBox="0 0 412 57" fill="none" xmlns="http://www.w3.org/2000/svg">
<path d="M0 28.4894C0 12.7551 12.9476 0 28.9192 0H383.081C399.052 0 412 12.7551 412 28.4894C412 44.2236 399.052 56.9787 383.081 56.9787H28.9192C12.9476 56.9787 0 44.2236 0 28.4894Z" fill="white"/>
<path d="M77.5343 39.6714C77.5927 39.9442 77.622 40.2071 77.622 40.4604C77.622 41.1032 77.4466 41.6973 77.096 42.2428C76.7649 42.7882 76.2973 43.2168 75.6935 43.5285C75.0896 43.8401 74.4273 43.996 73.7065 43.996C72.9273 43.996 72.2066 43.8401 71.5442 43.5285C70.8819 43.2363 70.1125 42.798 69.2359 42.2136C68.5541 41.746 67.9794 41.3954 67.5119 41.1617C67.0639 40.9474 66.6158 40.8402 66.1678 40.8402C65.6223 40.8402 65.1548 40.8792 64.7652 40.9571C64.3756 41.035 63.9179 41.2298 63.3919 41.5415L63.1581 41.1324C64.2685 40.1584 65.4081 39.4085 66.5769 38.8825C63.9666 38.4734 61.9893 37.3728 60.6452 35.5807C59.3011 33.7885 58.6291 31.4412 58.6291 28.5387C58.6291 25.2271 59.4959 22.646 61.2296 20.7954C62.9828 18.9448 65.5347 18.0195 68.8852 18.0195C72.2358 18.0195 74.7779 18.9448 76.5116 20.7954C78.2648 22.646 79.1414 25.2271 79.1414 28.5387C79.1414 31.8503 78.2648 34.4313 76.5116 36.2819C74.7779 38.1325 72.2358 39.0578 68.8852 39.0578C68.5346 39.0578 68.2716 39.0481 68.0963 39.0286C67.5509 39.3013 67.132 39.5643 66.8398 39.8175H67.1905C67.7944 39.8175 68.369 39.8955 68.9145 40.0513C69.4794 40.2071 70.1904 40.4506 71.0475 40.7818C71.8267 41.0935 72.4793 41.3272 73.0052 41.4831C73.5312 41.6389 74.0669 41.7168 74.6123 41.7168C75.2746 41.7168 75.7811 41.561 76.1318 41.2493C76.4824 40.9376 76.7649 40.4117 76.9791 39.6714H77.5343ZM62.1647 28.5387C62.1647 31.3827 62.7296 33.6132 63.8594 35.23C65.0087 36.8469 66.6743 37.6553 68.856 37.6553C71.0572 37.6553 72.7325 36.8469 73.8818 35.23C75.0311 33.6132 75.6058 31.3827 75.6058 28.5387C75.6058 25.6946 75.0311 23.4642 73.8818 21.8473C72.7325 20.211 71.0572 19.3929 68.856 19.3929C66.6743 19.3929 65.0087 20.211 63.8594 21.8473C62.7296 23.4642 62.1647 25.6946 62.1647 28.5387ZM91.4272 39.0578C88.7585 39.0578 86.7131 38.5513 85.291 37.5384C83.8885 36.5254 83.1872 34.8989 83.1872 32.6587V20.2987C83.1872 19.948 83.0411 19.6851 82.7489 19.5097C82.4762 19.3149 82.0963 19.2175 81.6093 19.2175H80.9081V18.3117H89.002V19.2175H88.2715C87.7845 19.2175 87.3949 19.3149 87.1027 19.5097C86.8299 19.6851 86.6936 19.948 86.6936 20.2987V32.9217C86.6936 34.6748 87.1903 35.9118 88.1838 36.6326C89.1968 37.3339 90.5506 37.6845 92.2454 37.6845C93.7843 37.6845 95.0797 37.3241 96.1316 36.6034C97.1835 35.8631 97.7095 34.6359 97.7095 32.9217V20.2987C97.7095 19.948 97.5634 19.6851 97.2712 19.5097C96.9985 19.3149 96.6186 19.2175 96.1316 19.2175H95.4303V18.3117H101.654V19.2175H100.924C100.437 19.2175 100.047 19.3149 99.7549 19.5097C99.4821 19.6851 99.3458 19.948 99.3458 20.2987V32.6587C99.3458 36.9248 96.7063 39.0578 91.4272 39.0578ZM103.079 37.8598H103.956C105.066 37.8598 105.621 37.5092 105.621 36.8079V20.2987C105.621 19.5779 105.066 19.2175 103.956 19.2175H103.079V18.3117H111.67V19.2175H110.822C109.693 19.2175 109.128 19.5779 109.128 20.2987V36.8079C109.128 37.178 109.264 37.4507 109.537 37.6261C109.829 37.7819 110.257 37.8598 110.822 37.8598H111.67V38.7656H103.079V37.8598ZM129.604 33.3892L129.078 38.7656H112.832V37.8598H113.679C114.244 37.8598 114.663 37.7819 114.936 37.6261C115.228 37.4507 115.374 37.178 115.374 36.8079V20.2987C115.374 19.5779 114.809 19.2175 113.679 19.2175H112.832V18.3117H129.107V23.5421H128.202C128.007 20.9513 127.101 19.6558 125.484 19.6558H118.88V27.3699H123.731C124.315 27.3699 124.695 27.1459 124.87 26.6978C125.065 26.2303 125.202 25.529 125.28 24.594H126.068V31.4899H125.28C125.202 30.5548 125.065 29.8633 124.87 29.4153C124.695 28.9478 124.315 28.714 123.731 28.714H118.88V37.4215H126.01C127.491 37.4215 128.387 36.0774 128.698 33.3892H129.604ZM146.406 33.6229C146.659 34.5385 146.903 35.2787 147.137 35.8436C147.37 36.3891 147.692 36.8566 148.101 37.2462C148.51 37.6358 149.046 37.8403 149.708 37.8598V38.7656H146.991C145.958 38.7656 145.169 38.5221 144.624 38.0351C144.078 37.5481 143.65 36.7982 143.338 35.7852C143.163 35.1424 143.026 34.5969 142.929 34.1489C142.715 33.1554 142.5 32.3665 142.286 31.7821C142.072 31.1782 141.741 30.6912 141.293 30.3211H137.26V36.8079C137.26 37.5092 137.816 37.8598 138.926 37.8598H139.802V38.7656H131.212V37.8598H132.059C132.624 37.8598 133.043 37.7819 133.316 37.6261C133.608 37.4507 133.754 37.178 133.754 36.8079V20.2987C133.754 19.5779 133.189 19.2175 132.059 19.2175H131.212V18.3117H141.526C143.845 18.3117 145.51 18.8279 146.523 19.8604C147.536 20.8928 148.042 22.3733 148.042 24.3018C148.042 25.8212 147.741 27.0679 147.137 28.0419C146.533 28.9965 145.549 29.6588 144.185 30.0289C144.809 30.36 145.257 30.8081 145.53 31.373C145.822 31.9184 146.114 32.6684 146.406 33.6229ZM137.26 28.977H140.767C142.091 28.977 143.056 28.5874 143.66 27.8082C144.283 27.0095 144.595 25.8407 144.595 24.3018C144.595 22.7629 144.283 21.6038 143.66 20.8246C143.056 20.0454 142.091 19.6558 140.767 19.6558H137.26V28.977ZM161.909 39.0578C158.559 39.0578 156.007 38.1325 154.254 36.2819C152.52 34.4313 151.653 31.8503 151.653 28.5387C151.653 25.2271 152.52 22.646 154.254 20.7954C156.007 18.9448 158.559 18.0195 161.909 18.0195C165.26 18.0195 167.802 18.9448 169.536 20.7954C171.289 22.646 172.166 25.2271 172.166 28.5387C172.166 31.8503 171.289 34.4313 169.536 36.2819C167.802 38.1325 165.26 39.0578 161.909 39.0578ZM161.88 37.6553C164.081 37.6553 165.757 36.8469 166.906 35.23C168.055 33.6132 168.63 31.3827 168.63 28.5387C168.63 25.6946 168.055 23.4642 166.906 21.8473C165.757 20.211 164.081 19.3929 161.88 19.3929C159.698 19.3929 158.033 20.211 156.884 21.8473C155.754 23.4642 155.189 25.6946 155.189 28.5387C155.189 31.3827 155.754 33.6132 156.884 35.23C158.033 36.8469 159.698 37.6553 161.88 37.6553ZM181.376 37.8598H182.224C182.789 37.8598 183.207 37.7819 183.48 37.6261C183.772 37.4507 183.919 37.178 183.919 36.8079V20.2987C183.919 19.5779 183.354 19.2175 182.224 19.2175H181.376V18.3117H191.779C194.097 18.3117 195.753 18.8572 196.746 19.948C197.759 21.0389 198.265 22.5778 198.265 24.5648C198.265 26.5322 197.759 28.0712 196.746 29.1815C195.753 30.2724 194.097 30.8178 191.779 30.8178H187.425V36.8079C187.425 37.5092 187.98 37.8598 189.09 37.8598H189.967V38.7656H181.376V37.8598ZM191.048 29.4737C193.561 29.4737 194.818 27.8374 194.818 24.5648C194.818 21.2922 193.561 19.6558 191.048 19.6558H187.425V29.4737H191.048ZM218.313 37.8598V38.7656H210.307V37.8598H210.833C211.301 37.8598 211.632 37.7916 211.827 37.6553C212.041 37.5189 212.148 37.3144 212.148 37.0417C212.148 36.7884 212.051 36.3891 211.856 35.8436L210.746 32.834H202.71L201.366 36.428C201.308 36.6034 201.278 36.7495 201.278 36.8663C201.278 37.178 201.415 37.4215 201.687 37.5968C201.96 37.7722 202.291 37.8598 202.681 37.8598H203.236V38.7656H196.632V37.8598H197.071C197.48 37.8598 197.879 37.7624 198.269 37.5676C198.678 37.3728 198.941 37.1196 199.058 36.8079L206.012 18.8085L208.612 17.815L216.005 36.8371C216.141 37.1683 216.375 37.4215 216.706 37.5968C217.038 37.7722 217.388 37.8598 217.758 37.8598H218.313ZM210.249 31.4899L206.772 21.9642L203.207 31.4899H210.249ZM234.237 33.6229C234.49 34.5385 234.734 35.2787 234.967 35.8436C235.201 36.3891 235.523 36.8566 235.932 37.2462C236.341 37.6358 236.876 37.8403 237.539 37.8598V38.7656H234.821C233.789 38.7656 233 38.5221 232.455 38.0351C231.909 37.5481 231.481 36.7982 231.169 35.7852C230.994 35.1424 230.857 34.5969 230.76 34.1489C230.545 33.1554 230.331 32.3665 230.117 31.7821C229.903 31.1782 229.571 30.6912 229.123 30.3211H225.091V36.8079C225.091 37.5092 225.646 37.8598 226.757 37.8598H227.633V38.7656H219.043V37.8598H219.89C220.455 37.8598 220.874 37.7819 221.146 37.6261C221.439 37.4507 221.585 37.178 221.585 36.8079V20.2987C221.585 19.5779 221.02 19.2175 219.89 19.2175H219.043V18.3117H229.357C231.675 18.3117 233.341 18.8279 234.354 19.8604C235.367 20.8928 235.873 22.3733 235.873 24.3018C235.873 25.8212 235.571 27.0679 234.967 28.0419C234.364 28.9965 233.38 29.6588 232.016 30.0289C232.64 30.36 233.088 30.8081 233.36 31.373C233.653 31.9184 233.945 32.6684 234.237 33.6229ZM225.091 28.977H228.597C229.922 28.977 230.886 28.5874 231.49 27.8082C232.114 27.0095 232.425 25.8407 232.425 24.3018C232.425 22.7629 232.114 21.6038 231.49 20.8246C230.886 20.0454 229.922 19.6558 228.597 19.6558H225.091V28.977ZM244.013 37.8598H244.86C245.425 37.8598 245.844 37.7819 246.117 37.6261C246.409 37.4507 246.555 37.178 246.555 36.8079V19.6558H242.552C241.773 19.6558 241.218 20.1818 240.887 21.2337C240.575 22.2661 240.409 23.2791 240.39 24.2726H239.484V18.3117H257.133V24.2726H256.198C256.178 23.2791 256.003 22.2661 255.672 21.2337C255.36 20.1818 254.815 19.6558 254.035 19.6558H250.062V36.8079C250.062 37.5092 250.617 37.8598 251.727 37.8598H252.604V38.7656H244.013V37.8598ZM258.852 37.8598H259.728C260.839 37.8598 261.394 37.5092 261.394 36.8079V20.2987C261.394 19.5779 260.839 19.2175 259.728 19.2175H258.852V18.3117H267.442V19.2175H266.595C265.465 19.2175 264.9 19.5779 264.9 20.2987V36.8079C264.9 37.178 265.037 37.4507 265.309 37.6261C265.601 37.7819 266.03 37.8598 266.595 37.8598H267.442V38.7656H258.852V37.8598ZM279.211 39.0578C276.017 39.0578 273.572 38.1325 271.877 36.2819C270.182 34.4313 269.335 31.8503 269.335 28.5387C269.335 26.3764 269.725 24.5063 270.504 22.9285C271.283 21.3506 272.413 20.1428 273.893 19.3052C275.393 18.4481 277.205 18.0195 279.328 18.0195C280.594 18.0195 281.705 18.1949 282.659 18.5455C283.633 18.8766 284.451 19.276 285.114 19.7435C285.133 19.7435 285.172 19.763 285.231 19.8019C285.289 19.8409 285.338 19.8604 285.377 19.8604C285.552 19.8604 285.64 19.724 285.64 19.4513V18.1656H286.867V23.9219H285.844C285.669 22.4609 285.036 21.3506 283.945 20.5909C282.874 19.8117 281.578 19.4221 280.059 19.4221C277.78 19.4221 276.007 20.2402 274.741 21.8766C273.494 23.5129 272.871 25.7336 272.871 28.5387C272.871 31.4022 273.445 33.6424 274.595 35.2592C275.744 36.8761 277.448 37.6845 279.708 37.6845C281.072 37.6845 282.328 37.3728 283.477 36.7495C284.646 36.1066 285.474 35.1034 285.961 33.7398H287.276C286.925 35.3566 286.029 36.6521 284.588 37.6261C283.146 38.5806 281.354 39.0578 279.211 39.0578ZM288.871 37.8598H289.747C290.857 37.8598 291.413 37.5092 291.413 36.8079V20.2987C291.413 19.5779 290.857 19.2175 289.747 19.2175H288.871V18.3117H297.461V19.2175H296.614C295.484 19.2175 294.919 19.5779 294.919 20.2987V36.8079C294.919 37.178 295.055 37.4507 295.328 37.6261C295.62 37.7819 296.049 37.8598 296.614 37.8598H297.461V38.7656H288.871V37.8598ZM298.769 37.8598H299.617C300.182 37.8598 300.601 37.7819 300.873 37.6261C301.165 37.4507 301.312 37.178 301.312 36.8079V20.2987C301.312 19.5779 300.747 19.2175 299.617 19.2175H298.769V18.3117H309.172C311.49 18.3117 313.146 18.8572 314.139 19.948C315.152 21.0389 315.658 22.5778 315.658 24.5648C315.658 26.5322 315.152 28.0712 314.139 29.1815C313.146 30.2724 311.49 30.8178 309.172 30.8178H304.818V36.8079C304.818 37.5092 305.373 37.8598 306.483 37.8598H307.36V38.7656H298.769V37.8598ZM308.441 29.4737C310.954 29.4737 312.211 27.8374 312.211 24.5648C312.211 21.2922 310.954 19.6558 308.441 19.6558H304.818V29.4737H308.441ZM335.707 37.8598V38.7656H327.7V37.8598H328.226C328.694 37.8598 329.025 37.7916 329.22 37.6553C329.434 37.5189 329.541 37.3144 329.541 37.0417C329.541 36.7884 329.444 36.3891 329.249 35.8436L328.139 32.834H320.103L318.759 36.428C318.701 36.6034 318.671 36.7495 318.671 36.8663C318.671 37.178 318.808 37.4215 319.08 37.5968C319.353 37.7722 319.684 37.8598 320.074 37.8598H320.629V38.7656H314.025V37.8598H314.464C314.873 37.8598 315.272 37.7624 315.662 37.5676C316.071 37.3728 316.334 37.1196 316.451 36.8079L323.405 18.8085L326.006 17.815L333.398 36.8371C333.534 37.1683 333.768 37.4215 334.099 37.5968C334.431 37.7722 334.781 37.8598 335.151 37.8598H335.707ZM327.642 31.4899L324.165 21.9642L320.6 31.4899H327.642ZM351.63 33.6229C351.883 34.5385 352.127 35.2787 352.36 35.8436C352.594 36.3891 352.916 36.8566 353.325 37.2462C353.734 37.6358 354.27 37.8403 354.932 37.8598V38.7656H352.214C351.182 38.7656 350.393 38.5221 349.848 38.0351C349.302 37.5481 348.874 36.7982 348.562 35.7852C348.387 35.1424 348.25 34.5969 348.153 34.1489C347.939 33.1554 347.724 32.3665 347.51 31.7821C347.296 31.1782 346.965 30.6912 346.517 30.3211H342.484V36.8079C342.484 37.5092 343.039 37.8598 344.15 37.8598H345.026V38.7656H336.436V37.8598H337.283C337.848 37.8598 338.267 37.7819 338.539 37.6261C338.832 37.4507 338.978 37.178 338.978 36.8079V20.2987C338.978 19.5779 338.413 19.2175 337.283 19.2175H336.436V18.3117H346.75C349.068 18.3117 350.734 18.8279 351.747 19.8604C352.76 20.8928 353.266 22.3733 353.266 24.3018C353.266 25.8212 352.964 27.0679 352.36 28.0419C351.757 28.9965 350.773 29.6588 349.409 30.0289C350.033 30.36 350.481 30.8081 350.753 31.373C351.046 31.9184 351.338 32.6684 351.63 33.6229ZM342.484 28.977H345.991C347.315 28.977 348.279 28.5874 348.883 27.8082C349.507 27.0095 349.818 25.8407 349.818 24.3018C349.818 22.7629 349.507 21.6038 348.883 20.8246C348.279 20.0454 347.315 19.6558 345.991 19.6558H342.484V28.977Z" fill="#3D5C3D"/>
</svg>
