<svg width="412" height="57" viewBox="0 0 412 57" fill="none" xmlns="http://www.w3.org/2000/svg">
<path d="M0 28.4894C0 12.7551 12.9476 0 28.9192 0H383.081C399.052 0 412 12.7551 412 28.4894C412 44.2236 399.052 56.9787 383.081 56.9787H28.9192C12.9476 56.9787 0 44.2236 0 28.4894Z" fill="white"/>
<path d="M70.6711 28.5679C70.6711 22.7239 75.317 18.0195 81.161 18.0195C87.005 18.0195 91.6801 22.7239 91.6801 28.5679C91.6801 32.3665 89.4887 35.8144 86.2745 37.7722L90.0438 43.6746C90.2776 44.0836 90.0438 44.5512 89.5763 44.5512H85.6316C85.3979 44.5512 85.2518 44.4051 85.1641 44.259L82.0668 39.0286C81.7162 39.0578 81.3655 39.0578 81.161 39.0578C75.317 39.0578 70.6711 34.4119 70.6711 28.5679ZM75.3462 28.5679C75.3462 31.7529 77.976 34.3826 81.161 34.3826C84.3752 34.3826 87.005 31.7529 87.005 28.5679C87.005 25.3537 84.3752 22.6947 81.161 22.6947C77.976 22.6947 75.3462 25.3537 75.3462 28.5679ZM95.011 30.9347V18.8669C95.011 18.5747 95.274 18.3117 95.5662 18.3117H99.1602C99.4816 18.3117 99.7154 18.5747 99.7154 18.8669V30.7009C99.7154 32.7463 101.235 34.3826 103.309 34.3826C105.413 34.3826 106.962 32.7463 106.962 30.7009V18.8669C106.962 18.5747 107.196 18.3117 107.517 18.3117H111.111C111.403 18.3117 111.666 18.5747 111.666 18.8669V30.9347C111.666 35.3761 107.926 39.0578 103.309 39.0578C98.7219 39.0578 95.011 35.3761 95.011 30.9347ZM116.362 38.2104V18.8669C116.362 18.5747 116.596 18.3117 116.917 18.3117H129.014C129.336 18.3117 129.569 18.5747 129.569 18.8669V22.0519C129.569 22.3441 129.336 22.607 129.014 22.607H120.92V26.2303H127.582C127.875 26.2303 128.138 26.4933 128.138 26.7855V29.9704C128.138 30.2919 127.875 30.5256 127.582 30.5256H120.92V34.4703H129.014C129.336 34.4703 129.569 34.7333 129.569 35.0255V38.2104C129.569 38.5026 129.336 38.7656 129.014 38.7656H116.917C116.596 38.7656 116.362 38.5026 116.362 38.2104ZM133.483 38.2104V18.8669C133.483 18.5747 133.717 18.3117 134.038 18.3117H142.775C146.281 18.3117 149.145 21.1461 149.145 24.6232C149.145 27.3114 147.362 29.4737 144.82 30.4964L148.823 37.9182C149.028 38.2981 148.823 38.7656 148.327 38.7656H144.44C144.207 38.7656 144.031 38.6195 143.973 38.5026L140.087 30.7594H138.071V38.2104C138.071 38.5026 137.808 38.7656 137.515 38.7656H134.038C133.717 38.7656 133.483 38.5026 133.483 38.2104ZM138.071 27.0485H142.395C143.593 27.0485 144.616 25.9381 144.616 24.7109C144.616 23.4836 143.593 22.4902 142.395 22.4902H138.071V27.0485ZM151.568 28.5679C151.568 22.7239 156.214 18.0195 162.058 18.0195C167.902 18.0195 172.577 22.7239 172.577 28.5679C172.577 34.4119 167.902 39.0578 162.058 39.0578C156.214 39.0578 151.568 34.4119 151.568 28.5679ZM156.243 28.5679C156.243 31.7529 158.873 34.3826 162.058 34.3826C165.272 34.3826 167.902 31.7529 167.902 28.5679C167.902 25.3537 165.272 22.6947 162.058 22.6947C158.873 22.6947 156.243 25.3537 156.243 28.5679ZM182.563 38.2104V18.8669C182.563 18.5747 182.797 18.3117 183.118 18.3117H190.16C193.754 18.3117 196.706 21.2337 196.706 24.7693C196.706 28.3926 193.754 31.3438 190.19 31.3438H187.122V38.2104C187.122 38.5026 186.859 38.7656 186.566 38.7656H183.118C182.797 38.7656 182.563 38.5026 182.563 38.2104ZM187.122 27.0777H189.897C191.154 27.0777 192.206 26.0842 192.206 24.7693C192.206 23.5421 191.154 22.607 189.897 22.607H187.122V27.0777ZM196.467 38.7656C196.029 38.7656 195.795 38.3858 195.97 38.0059L205.116 18.3409C205.204 18.1656 205.408 18.0195 205.613 18.0195H205.905C206.109 18.0195 206.314 18.1656 206.402 18.3409L215.547 38.0059C215.723 38.3858 215.489 38.7656 215.051 38.7656H211.807C211.281 38.7656 211.048 38.5903 210.785 38.0351L209.733 35.7268H201.785L200.733 38.0643C200.587 38.415 200.265 38.7656 199.681 38.7656H196.467ZM203.538 31.7529H207.979L205.759 26.9316H205.73L203.538 31.7529ZM217.947 38.2104V18.8669C217.947 18.5747 218.18 18.3117 218.502 18.3117H227.239C230.745 18.3117 233.608 21.1461 233.608 24.6232C233.608 27.3114 231.826 29.4737 229.284 30.4964L233.287 37.9182C233.492 38.2981 233.287 38.7656 232.79 38.7656H228.904C228.67 38.7656 228.495 38.6195 228.437 38.5026L224.55 30.7594H222.534V38.2104C222.534 38.5026 222.271 38.7656 221.979 38.7656H218.502C218.18 38.7656 217.947 38.5026 217.947 38.2104ZM222.534 27.0485H226.859C228.057 27.0485 229.079 25.9381 229.079 24.7109C229.079 23.4836 228.057 22.4902 226.859 22.4902H222.534V27.0485ZM240.151 38.2104V22.607H235.973C235.652 22.607 235.418 22.3441 235.418 22.0519V18.8669C235.418 18.5747 235.652 18.3117 235.973 18.3117H248.947C249.268 18.3117 249.502 18.5747 249.502 18.8669V22.0519C249.502 22.3441 249.268 22.607 248.947 22.607H244.768V38.2104C244.768 38.5026 244.505 38.7656 244.213 38.7656H240.707C240.414 38.7656 240.151 38.5026 240.151 38.2104ZM252.417 38.2104V18.8669C252.417 18.5747 252.68 18.3117 252.972 18.3117H256.478C256.771 18.3117 257.034 18.5747 257.034 18.8669V38.2104C257.034 38.5026 256.771 38.7656 256.478 38.7656H252.972C252.68 38.7656 252.417 38.5026 252.417 38.2104ZM260.572 28.5679C260.572 22.7239 265.276 18.0195 271.12 18.0195C274.042 18.0195 276.204 18.9253 278.191 20.737C278.454 20.9707 278.454 21.3214 278.22 21.5551L275.941 23.9219C275.737 24.1265 275.415 24.1265 275.211 23.9219C274.13 22.9577 272.698 22.4317 271.266 22.4317C267.964 22.4317 265.539 25.1784 265.539 28.451C265.539 31.6944 267.993 34.3826 271.295 34.3826C272.669 34.3826 274.159 33.8859 275.211 32.9801C275.415 32.8048 275.795 32.8048 275.97 33.0093L278.25 35.4346C278.454 35.6391 278.425 36.019 278.22 36.2235C276.233 38.152 273.72 39.0578 271.12 39.0578C265.276 39.0578 260.572 34.4119 260.572 28.5679ZM281.722 38.2104V18.8669C281.722 18.5747 281.985 18.3117 282.278 18.3117H285.784C286.076 18.3117 286.339 18.5747 286.339 18.8669V38.2104C286.339 38.5026 286.076 38.7656 285.784 38.7656H282.278C281.985 38.7656 281.722 38.5026 281.722 38.2104ZM291.367 38.2104V18.8669C291.367 18.5747 291.601 18.3117 291.922 18.3117H298.964C302.558 18.3117 305.51 21.2337 305.51 24.7693C305.51 28.3926 302.558 31.3438 298.994 31.3438H295.926V38.2104C295.926 38.5026 295.663 38.7656 295.37 38.7656H291.922C291.601 38.7656 291.367 38.5026 291.367 38.2104ZM295.926 27.0777H298.701C299.958 27.0777 301.01 26.0842 301.01 24.7693C301.01 23.5421 299.958 22.607 298.701 22.607H295.926V27.0777ZM305.271 38.7656C304.833 38.7656 304.599 38.3858 304.774 38.0059L313.92 18.3409C314.008 18.1656 314.212 18.0195 314.417 18.0195H314.709C314.913 18.0195 315.118 18.1656 315.206 18.3409L324.351 38.0059C324.527 38.3858 324.293 38.7656 323.855 38.7656H320.611C320.085 38.7656 319.852 38.5903 319.589 38.0351L318.537 35.7268H310.589L309.537 38.0643C309.391 38.415 309.069 38.7656 308.485 38.7656H305.271ZM312.342 31.7529H316.783L314.563 26.9316H314.534L312.342 31.7529ZM326.751 38.2104V18.8669C326.751 18.5747 326.984 18.3117 327.306 18.3117H336.043C339.549 18.3117 342.412 21.1461 342.412 24.6232C342.412 27.3114 340.63 29.4737 338.088 30.4964L342.091 37.9182C342.296 38.2981 342.091 38.7656 341.594 38.7656H337.708C337.474 38.7656 337.299 38.6195 337.241 38.5026L333.354 30.7594H331.338V38.2104C331.338 38.5026 331.075 38.7656 330.783 38.7656H327.306C326.984 38.7656 326.751 38.5026 326.751 38.2104ZM331.338 27.0485H335.663C336.861 27.0485 337.883 25.9381 337.883 24.7109C337.883 23.4836 336.861 22.4902 335.663 22.4902H331.338V27.0485Z" fill="#3D5C3D"/>
</svg>
