<svg width="653" height="34" viewBox="0 0 653 34" fill="none" xmlns="http://www.w3.org/2000/svg">
<path d="M-5.84275e-05 26.85V6.99004C-5.84275e-05 6.69004 0.239942 6.42004 0.569942 6.42004H12.3899C12.7199 6.42004 12.9599 6.69004 12.9599 6.99004V7.86004C12.9599 8.16004 12.7199 8.43004 12.3899 8.43004H2.30994V15.75H10.9199C11.2199 15.75 11.4899 16.02 11.4899 16.32V17.19C11.4899 17.52 11.2199 17.76 10.9199 17.76H2.30994V25.41H12.3899C12.7199 25.41 12.9599 25.68 12.9599 25.98V26.85C12.9599 27.15 12.7199 27.42 12.3899 27.42H0.569942C0.239942 27.42 -5.84275e-05 27.15 -5.84275e-05 26.85ZM17.7538 26.85V6.99004C17.7538 6.69004 17.9938 6.42004 18.3238 6.42004H19.4938C19.7938 6.42004 20.0638 6.69004 20.0638 6.99004V25.41H28.7038C29.0338 25.41 29.2738 25.68 29.2738 25.98V26.85C29.2738 27.15 29.0338 27.42 28.7038 27.42H18.3238C17.9938 27.42 17.7538 27.15 17.7538 26.85ZM32.4902 26.85V6.99004C32.4902 6.69004 32.7602 6.42004 33.0602 6.42004H34.2602C34.5602 6.42004 34.8302 6.69004 34.8302 6.99004V26.85C34.8302 27.15 34.5602 27.42 34.2602 27.42H33.0602C32.7602 27.42 32.4902 27.15 32.4902 26.85ZM39.427 16.95C39.427 10.95 44.257 6.12004 50.257 6.12004C53.287 6.12004 55.477 7.17004 57.517 8.91004C57.757 9.15004 57.787 9.51004 57.547 9.75004C57.277 10.02 56.947 10.32 56.707 10.59C56.437 10.89 56.257 10.86 55.927 10.56C54.397 9.21004 52.237 8.22004 50.227 8.22004C45.487 8.22004 41.887 12.18 41.887 16.83C41.887 21.45 45.487 25.5 50.227 25.5C53.527 25.5 55.627 24.24 55.627 24.24V20.04H52.177C51.847 20.04 51.607 19.8 51.607 19.5V18.39C51.607 18.06 51.847 17.82 52.177 17.82H57.367C57.667 17.82 57.907 18.09 57.907 18.39V25.26C57.907 25.41 57.787 25.65 57.667 25.74C57.667 25.74 54.607 27.72 50.257 27.72C44.257 27.72 39.427 22.95 39.427 16.95ZM62.9296 26.85V6.99004C62.9296 6.69004 63.1696 6.42004 63.4996 6.42004H75.3196C75.6496 6.42004 75.8896 6.69004 75.8896 6.99004V7.86004C75.8896 8.16004 75.6496 8.43004 75.3196 8.43004H65.2396V15.75H73.8496C74.1496 15.75 74.4196 16.02 74.4196 16.32V17.19C74.4196 17.52 74.1496 17.76 73.8496 17.76H65.2396V25.41H75.3196C75.6496 25.41 75.8896 25.68 75.8896 25.98V26.85C75.8896 27.15 75.6496 27.42 75.3196 27.42H63.4996C63.1696 27.42 62.9296 27.15 62.9296 26.85ZM87.3339 26.85V6.99004C87.3339 6.69004 87.5739 6.42004 87.9039 6.42004H99.7239C100.054 6.42004 100.294 6.69004 100.294 6.99004V7.86004C100.294 8.16004 100.054 8.43004 99.7239 8.43004H89.6439V15.75H98.2539C98.5539 15.75 98.8239 16.02 98.8239 16.32V17.19C98.8239 17.52 98.5539 17.76 98.2539 17.76H89.6439V25.41H99.7239C100.054 25.41 100.294 25.68 100.294 25.98V26.85C100.294 27.15 100.054 27.42 99.7239 27.42H87.9039C87.5739 27.42 87.3339 27.15 87.3339 26.85ZM105.088 26.85V6.66004C105.088 6.36004 105.358 6.12004 105.658 6.12004H106.408L119.938 22.98C119.968 22.98 119.968 22.98 119.998 22.98V6.99004C119.998 6.69004 120.238 6.42004 120.568 6.42004H121.618C121.918 6.42004 122.188 6.69004 122.188 6.99004V27.18C122.188 27.48 121.918 27.72 121.618 27.72H121.078L107.308 10.53H107.278V26.85C107.278 27.15 107.038 27.42 106.708 27.42H105.658C105.358 27.42 105.088 27.15 105.088 26.85ZM133.441 16.95C133.441 10.95 138.211 6.12004 144.211 6.12004C150.211 6.12004 155.011 10.95 155.011 16.95C155.011 21.39 152.401 25.14 148.621 26.82L152.131 32.46C152.401 32.88 152.131 33.36 151.651 33.36H150.151C150.031 33.36 149.791 33.27 149.671 33.06L146.401 27.54C145.741 27.66 144.901 27.72 144.211 27.72C138.211 27.72 133.441 22.95 133.441 16.95ZM135.541 16.95C135.541 21.72 139.441 25.62 144.211 25.62C148.981 25.62 152.911 21.72 152.911 16.95C152.911 12.18 148.981 8.22004 144.211 8.22004C139.441 8.22004 135.541 12.18 135.541 16.95ZM159.369 19.68V6.99004C159.369 6.69004 159.639 6.42004 159.939 6.42004H161.079C161.409 6.42004 161.649 6.69004 161.649 6.99004V19.5C161.649 22.92 163.779 25.59 167.289 25.59C170.829 25.59 172.989 22.98 172.989 19.56V6.99004C172.989 6.69004 173.229 6.42004 173.559 6.42004H174.699C174.999 6.42004 175.269 6.69004 175.269 6.99004V19.68C175.269 24.24 172.029 27.72 167.289 27.72C162.579 27.72 159.369 24.24 159.369 19.68ZM181.113 26.85V6.99004C181.113 6.69004 181.353 6.42004 181.683 6.42004H193.503C193.833 6.42004 194.073 6.69004 194.073 6.99004V7.86004C194.073 8.16004 193.833 8.43004 193.503 8.43004H183.423V15.75H192.033C192.333 15.75 192.603 16.02 192.603 16.32V17.19C192.603 17.52 192.333 17.76 192.033 17.76H183.423V25.41H193.503C193.833 25.41 194.073 25.68 194.073 25.98V26.85C194.073 27.15 193.833 27.42 193.503 27.42H181.683C181.353 27.42 181.113 27.15 181.113 26.85ZM185.163 3.93004L184.863 3.27004C184.743 3.03004 184.863 2.79004 185.043 2.70004L189.543 0.180042C189.723 0.0600421 190.173 4.29153e-05 190.323 0.270043L190.863 1.35004C190.983 1.59004 190.923 1.89004 190.683 1.98004L185.853 3.99004C185.433 4.17004 185.283 4.17004 185.163 3.93004ZM203.988 16.95C203.988 10.95 208.818 6.12004 214.818 6.12004C217.848 6.12004 220.038 7.17004 222.078 8.91004C222.318 9.15004 222.348 9.51004 222.108 9.75004L221.298 10.56C221.058 10.86 220.818 10.83 220.518 10.53C218.958 9.18004 216.828 8.28004 214.788 8.28004C210.048 8.28004 206.418 12.27 206.418 16.92C206.418 21.54 210.048 25.53 214.788 25.53C217.398 25.53 218.928 24.48 220.518 23.28C220.818 23.04 221.058 23.07 221.238 23.19L222.138 24C222.378 24.18 222.318 24.6 222.108 24.81C220.068 26.79 217.488 27.72 214.818 27.72C208.818 27.72 203.988 22.95 203.988 16.95ZM224.358 27.42C223.908 27.42 223.668 27.03 223.848 26.64L232.968 6.45004C233.058 6.27004 233.208 6.12004 233.478 6.12004H233.778C234.048 6.12004 234.198 6.27004 234.288 6.45004L243.348 26.64C243.528 27.03 243.288 27.42 242.838 27.42H241.638C241.368 27.42 241.188 27.24 241.128 27.09L238.908 22.14H228.258L226.068 27.09C226.008 27.24 225.828 27.42 225.558 27.42H224.358ZM229.098 20.28H238.098C236.628 17.01 235.188 13.71 233.718 10.44H233.478L229.098 20.28ZM245.121 26.7L248.991 6.54004C249.051 6.30004 249.291 6.12004 249.531 6.12004H250.011C250.221 6.12004 250.461 6.27004 250.521 6.45004L256.461 22.98C256.521 22.98 256.551 22.98 256.611 22.98L262.461 6.45004C262.521 6.27004 262.761 6.12004 262.971 6.12004H263.451C263.691 6.12004 263.931 6.30004 263.991 6.54004L267.861 26.7C267.951 27.12 267.771 27.42 267.321 27.42H266.121C265.881 27.42 265.641 27.21 265.581 27L262.911 11.55C262.881 11.55 262.821 11.55 262.791 11.55L257.271 27.39C257.211 27.57 256.941 27.72 256.761 27.72H256.221C256.041 27.72 255.771 27.57 255.711 27.39L250.131 11.55C250.101 11.55 250.041 11.55 250.011 11.55L247.401 27C247.371 27.21 247.101 27.42 246.861 27.42H245.661C245.211 27.42 245.031 27.12 245.121 26.7ZM272.49 26.85V6.99004C272.49 6.69004 272.73 6.42004 273.06 6.42004H279.69C283.38 6.42004 286.41 9.42004 286.41 13.05C286.41 16.77 283.38 19.8 279.72 19.8H274.77V26.85C274.77 27.15 274.5 27.42 274.2 27.42H273.06C272.73 27.42 272.49 27.15 272.49 26.85ZM274.77 17.58H279.54C282 17.58 284.1 15.57 284.1 12.99C284.1 10.56 282 8.70004 279.54 8.70004H274.77V17.58ZM287.083 27.42C286.633 27.42 286.393 27.03 286.573 26.64L295.693 6.45004C295.783 6.27004 295.933 6.12004 296.203 6.12004H296.503C296.773 6.12004 296.923 6.27004 297.013 6.45004L306.073 26.64C306.253 27.03 306.013 27.42 305.563 27.42H304.363C304.093 27.42 303.913 27.24 303.853 27.09L301.633 22.14H290.983L288.793 27.09C288.733 27.24 288.553 27.42 288.283 27.42H287.083ZM291.823 20.28H300.823C299.353 17.01 297.913 13.71 296.443 10.44H296.203L291.823 20.28ZM309.346 26.85V6.66004C309.346 6.36004 309.616 6.12004 309.916 6.12004H310.666L324.196 22.98C324.226 22.98 324.226 22.98 324.256 22.98V6.99004C324.256 6.69004 324.496 6.42004 324.826 6.42004H325.876C326.176 6.42004 326.446 6.69004 326.446 6.99004V27.18C326.446 27.48 326.176 27.72 325.876 27.72H325.336L311.566 10.53H311.536V26.85C311.536 27.15 311.296 27.42 310.966 27.42H309.916C309.616 27.42 309.346 27.15 309.346 26.85ZM314.506 3.57004L313.966 3.30004C313.726 3.18004 313.756 2.85004 313.846 2.64004C314.116 2.10004 314.626 0.120043 316.606 0.120043C318.406 0.120043 318.976 2.34004 319.906 2.34004C320.746 2.34004 321.106 1.32004 321.256 0.810043C321.346 0.510044 321.616 0.420043 321.946 0.570043L322.426 0.810043C322.786 0.990043 322.606 1.38004 322.546 1.59004C322.246 2.46004 321.526 4.02004 319.876 4.02004C318.226 4.02004 317.416 1.77004 316.576 1.77004C315.766 1.77004 315.466 2.64004 315.256 3.27004C315.166 3.57004 314.896 3.78004 314.506 3.57004ZM330.208 27.42C329.758 27.42 329.518 27.03 329.698 26.64L338.818 6.45004C338.908 6.27004 339.058 6.12004 339.328 6.12004H339.628C339.898 6.12004 340.048 6.27004 340.138 6.45004L349.198 26.64C349.378 27.03 349.138 27.42 348.688 27.42H347.488C347.218 27.42 347.038 27.24 346.978 27.09L344.758 22.14H334.108L331.918 27.09C331.858 27.24 331.678 27.42 331.408 27.42H330.208ZM334.948 20.28H343.948C342.478 17.01 341.038 13.71 339.568 10.44H339.328L334.948 20.28ZM357.591 16.95C357.591 10.95 362.361 6.12004 368.361 6.12004C374.361 6.12004 379.161 10.95 379.161 16.95C379.161 21.39 376.551 25.14 372.771 26.82L376.281 32.46C376.551 32.88 376.281 33.36 375.801 33.36H374.301C374.181 33.36 373.941 33.27 373.821 33.06L370.551 27.54C369.891 27.66 369.051 27.72 368.361 27.72C362.361 27.72 357.591 22.95 357.591 16.95ZM359.691 16.95C359.691 21.72 363.591 25.62 368.361 25.62C373.131 25.62 377.061 21.72 377.061 16.95C377.061 12.18 373.131 8.22004 368.361 8.22004C363.591 8.22004 359.691 12.18 359.691 16.95ZM383.519 19.68V6.99004C383.519 6.69004 383.789 6.42004 384.089 6.42004H385.229C385.559 6.42004 385.799 6.69004 385.799 6.99004V19.5C385.799 22.92 387.929 25.59 391.439 25.59C394.979 25.59 397.139 22.98 397.139 19.56V6.99004C397.139 6.69004 397.379 6.42004 397.709 6.42004H398.849C399.149 6.42004 399.419 6.69004 399.419 6.99004V19.68C399.419 24.24 396.179 27.72 391.439 27.72C386.729 27.72 383.519 24.24 383.519 19.68ZM405.264 26.85V6.99004C405.264 6.69004 405.534 6.42004 405.834 6.42004H407.034C407.334 6.42004 407.604 6.69004 407.604 6.99004V26.85C407.604 27.15 407.334 27.42 407.034 27.42H405.834C405.534 27.42 405.264 27.15 405.264 26.85ZM413.73 26.85V6.99004C413.73 6.69004 413.97 6.42004 414.3 6.42004H426.12C426.45 6.42004 426.69 6.69004 426.69 6.99004V7.86004C426.69 8.16004 426.45 8.43004 426.12 8.43004H416.04V15.75H424.65C424.95 15.75 425.22 16.02 425.22 16.32V17.19C425.22 17.52 424.95 17.76 424.65 17.76H416.04V25.41H426.12C426.45 25.41 426.69 25.68 426.69 25.98V26.85C426.69 27.15 426.45 27.42 426.12 27.42H414.3C413.97 27.42 413.73 27.15 413.73 26.85ZM431.484 26.85V6.99004C431.484 6.69004 431.724 6.42004 432.054 6.42004H439.824C443.424 6.42004 446.364 9.24004 446.364 12.81C446.364 15.57 444.534 17.88 441.924 18.93L446.034 26.55C446.244 26.94 446.034 27.42 445.524 27.42H443.994C443.724 27.42 443.574 27.27 443.514 27.15L439.524 19.2H433.794V26.85C433.794 27.15 433.524 27.42 433.224 27.42H432.054C431.724 27.42 431.484 27.15 431.484 26.85ZM433.854 17.22H439.674C441.984 17.22 443.994 15.3 443.994 12.84C443.994 10.56 441.984 8.61004 439.674 8.61004H433.854V17.22ZM451.318 26.85V6.99004C451.318 6.69004 451.558 6.42004 451.888 6.42004H463.708C464.038 6.42004 464.278 6.69004 464.278 6.99004V7.86004C464.278 8.16004 464.038 8.43004 463.708 8.43004H453.628V15.75H462.238C462.538 15.75 462.808 16.02 462.808 16.32V17.19C462.808 17.52 462.538 17.76 462.238 17.76H453.628V25.41H463.708C464.038 25.41 464.278 25.68 464.278 25.98V26.85C464.278 27.15 464.038 27.42 463.708 27.42H451.888C451.558 27.42 451.318 27.15 451.318 26.85ZM467.902 25.29C467.662 25.08 467.362 24.84 467.722 24.27C467.872 24.09 468.022 23.88 468.172 23.7C468.472 23.31 468.802 23.07 469.222 23.43C469.432 23.61 471.622 25.71 474.292 25.71C476.722 25.71 478.312 24.18 478.312 22.41C478.312 20.34 476.512 19.11 473.062 17.67C469.762 16.23 467.782 14.88 467.782 11.46C467.782 9.42004 469.402 6.12004 474.172 6.12004C477.112 6.12004 479.302 7.65004 479.302 7.65004C479.482 7.74004 479.842 8.10004 479.482 8.67004C479.362 8.85004 479.242 9.06004 479.122 9.24004C478.852 9.66004 478.552 9.78004 478.072 9.51004C477.862 9.39004 475.972 8.13004 474.142 8.13004C470.962 8.13004 470.002 10.17 470.002 11.43C470.002 13.44 471.532 14.61 474.052 15.66C478.102 17.31 480.712 18.84 480.712 22.32C480.712 25.44 477.742 27.72 474.232 27.72C470.692 27.72 468.292 25.65 467.902 25.29ZM491.719 26.85V6.99004C491.719 6.69004 491.959 6.42004 492.289 6.42004H498.919C502.609 6.42004 505.639 9.42004 505.639 13.05C505.639 16.77 502.609 19.8 498.949 19.8H493.999V26.85C493.999 27.15 493.729 27.42 493.429 27.42H492.289C491.959 27.42 491.719 27.15 491.719 26.85ZM493.999 17.58H498.769C501.229 17.58 503.329 15.57 503.329 12.99C503.329 10.56 501.229 8.70004 498.769 8.70004H493.999V17.58ZM506.312 27.42C505.862 27.42 505.622 27.03 505.802 26.64L514.922 6.45004C515.012 6.27004 515.162 6.12004 515.432 6.12004H515.732C516.002 6.12004 516.152 6.27004 516.242 6.45004L525.302 26.64C525.482 27.03 525.242 27.42 524.792 27.42H523.592C523.322 27.42 523.142 27.24 523.082 27.09L520.862 22.14H510.212L508.022 27.09C507.962 27.24 507.782 27.42 507.512 27.42H506.312ZM511.052 20.28H520.052C518.582 17.01 517.142 13.71 515.672 10.44H515.432L511.052 20.28ZM528.574 26.85V6.99004C528.574 6.69004 528.814 6.42004 529.144 6.42004H536.914C540.514 6.42004 543.454 9.24004 543.454 12.81C543.454 15.57 541.624 17.88 539.014 18.93L543.124 26.55C543.334 26.94 543.124 27.42 542.614 27.42H541.084C540.814 27.42 540.664 27.27 540.604 27.15L536.614 19.2H530.884V26.85C530.884 27.15 530.614 27.42 530.314 27.42H529.144C528.814 27.42 528.574 27.15 528.574 26.85ZM530.944 17.22H536.764C539.074 17.22 541.084 15.3 541.084 12.84C541.084 10.56 539.074 8.61004 536.764 8.61004H530.944V17.22ZM551.378 26.85V8.43004H546.158C545.828 8.43004 545.588 8.16004 545.588 7.86004V6.99004C545.588 6.69004 545.828 6.42004 546.158 6.42004H558.878C559.208 6.42004 559.448 6.69004 559.448 6.99004V7.86004C559.448 8.16004 559.208 8.43004 558.878 8.43004H553.658V26.85C553.658 27.15 553.388 27.42 553.088 27.42H551.948C551.648 27.42 551.378 27.15 551.378 26.85ZM562.734 26.85V6.99004C562.734 6.69004 563.004 6.42004 563.304 6.42004H564.504C564.804 6.42004 565.074 6.69004 565.074 6.99004V26.85C565.074 27.15 564.804 27.42 564.504 27.42H563.304C563.004 27.42 562.734 27.15 562.734 26.85ZM569.671 16.95C569.671 10.95 574.501 6.12004 580.501 6.12004C583.531 6.12004 585.721 7.17004 587.761 8.91004C588.001 9.15004 588.031 9.51004 587.791 9.75004L586.981 10.56C586.741 10.86 586.501 10.83 586.201 10.53C584.641 9.18004 582.511 8.28004 580.471 8.28004C575.731 8.28004 572.101 12.27 572.101 16.92C572.101 21.54 575.731 25.53 580.471 25.53C583.081 25.53 584.611 24.48 586.201 23.28C586.501 23.04 586.741 23.07 586.921 23.19L587.821 24C588.061 24.18 588.001 24.6 587.791 24.81C585.751 26.79 583.171 27.72 580.501 27.72C574.501 27.72 569.671 22.95 569.671 16.95ZM592.412 26.85V6.99004C592.412 6.69004 592.682 6.42004 592.982 6.42004H594.182C594.482 6.42004 594.752 6.69004 594.752 6.99004V26.85C594.752 27.15 594.482 27.42 594.182 27.42H592.982C592.682 27.42 592.412 27.15 592.412 26.85ZM600.879 26.85V6.99004C600.879 6.69004 601.119 6.42004 601.449 6.42004H608.079C611.769 6.42004 614.799 9.42004 614.799 13.05C614.799 16.77 611.769 19.8 608.109 19.8H603.159V26.85C603.159 27.15 602.889 27.42 602.589 27.42H601.449C601.119 27.42 600.879 27.15 600.879 26.85ZM603.159 17.58H607.929C610.389 17.58 612.489 15.57 612.489 12.99C612.489 10.56 610.389 8.70004 607.929 8.70004H603.159V17.58ZM615.472 27.42C615.022 27.42 614.782 27.03 614.962 26.64L624.082 6.45004C624.172 6.27004 624.322 6.12004 624.592 6.12004H624.892C625.162 6.12004 625.312 6.27004 625.402 6.45004L634.462 26.64C634.642 27.03 634.402 27.42 633.952 27.42H632.752C632.482 27.42 632.302 27.24 632.242 27.09L630.022 22.14H619.372L617.182 27.09C617.122 27.24 616.942 27.42 616.672 27.42H615.472ZM620.212 20.28H629.212C627.742 17.01 626.302 13.71 624.832 10.44H624.592L620.212 20.28ZM637.734 26.85V6.99004C637.734 6.69004 637.974 6.42004 638.304 6.42004H646.074C649.674 6.42004 652.614 9.24004 652.614 12.81C652.614 15.57 650.784 17.88 648.174 18.93L652.284 26.55C652.494 26.94 652.284 27.42 651.774 27.42H650.244C649.974 27.42 649.824 27.27 649.764 27.15L645.774 19.2H640.044V26.85C640.044 27.15 639.774 27.42 639.474 27.42H638.304C637.974 27.42 637.734 27.15 637.734 26.85ZM640.104 17.22H645.924C648.234 17.22 650.244 15.3 650.244 12.84C650.244 10.56 648.234 8.61004 645.924 8.61004H640.104V17.22Z" fill="white"/>
</svg>
